<svg xmlns="http://www.w3.org/2000/svg" width="16.105" height="20.28" viewBox="0 0 16.105 20.28">
  <g id="alarm-education-ring-svgrepo-com_1_" data-name="alarm-education-ring-svgrepo-com (1)" transform="translate(-104.461 -22.928)">
    <path id="Path_34885" data-name="Path 34885" d="M119.148,35.709l-.559-.573a2.625,2.625,0,0,1-.627-1.541V30.68a5.458,5.458,0,0,0-3.954-5.24c-.053-1.229-.627-2.012-1.494-2.012s-1.441.783-1.494,2.012a5.458,5.458,0,0,0-3.954,5.24V34.1a.512.512,0,0,0,1.024,0V30.68a4.424,4.424,0,1,1,8.849,0v2.914a3.661,3.661,0,0,0,.918,2.256l.559.573a2.625,2.625,0,0,1,.627,1.541V38.2a.6.6,0,0,1-.594.594H106.579a.6.6,0,0,1-.594-.594v-.235a2.687,2.687,0,0,1,.5-1.386h5.466a.512.512,0,1,0,0-1.024h-5.7a.512.512,0,0,0-.366.154,3.661,3.661,0,0,0-.918,2.256V38.2a1.62,1.62,0,0,0,1.618,1.618h2.571a3.4,3.4,0,0,0,6.727,0h2.571a1.62,1.62,0,0,0,1.618-1.618v-.235A3.662,3.662,0,0,0,119.148,35.709Zm-7.086-10.458c.055-.437.208-.8.451-.8s.4.362.451.8c-.149-.012-.3-.019-.451-.019S112.211,25.238,112.062,25.251Zm.451,16.433a2.382,2.382,0,0,1-2.322-1.866h4.645A2.382,2.382,0,0,1,112.514,41.684Z" fill="#393185" stroke="#393185" stroke-width="1"/>
  </g>
</svg>
