<svg xmlns="http://www.w3.org/2000/svg" width="18.667" height="19.929" viewBox="0 0 18.667 19.929">
  <g id="git-compare-svgrepo-com_1_" data-name="git-compare-svgrepo-com (1)" transform="translate(22.667 -3.05) rotate(90)">
    <path id="Path_34868" data-name="Path 34868" d="M18.6,15Zm0,0V9.444a2.232,2.232,0,0,0-2.242-2.222H15.242M13,7.222,15.242,5V7.222M13,7.222h2.242M13,7.222l2.242,2.222V7.222" transform="translate(1.033)" fill="none" stroke="#393185" stroke-linecap="round" stroke-linejoin="round" stroke-width="2"/>
    <path id="Path_34869" data-name="Path 34869" d="M3,7.563a2.563,2.563,0,1,1,2.563,2.563A2.563,2.563,0,0,1,3,7.563Z" transform="translate(0.8 1.541)" fill="#393185" stroke="#393185" stroke-width="1.5"/>
    <path id="Path_34871" data-name="Path 34871" d="M3,7.563a2.563,2.563,0,1,1,2.563,2.563A2.563,2.563,0,0,1,3,7.563Z" transform="translate(14.103 10)" fill="#393185" stroke="#393185" stroke-width="1.5"/>
    <path id="Path_34870" data-name="Path 34870" d="M6.363,11.667Zm0,0v5.556A2.232,2.232,0,0,0,8.6,19.444H9.726m2.242,0L9.726,21.667V19.444m2.242,0H9.726m2.242,0L9.726,17.222v2.222" fill="none" stroke="#393185" stroke-linecap="round" stroke-linejoin="round" stroke-width="2"/>
    <g id="Polygon_69" data-name="Polygon 69" transform="translate(13.918 8.655) rotate(-90)" fill="#393185">
      <path d="M1.5,0,3,2H0Z" stroke="none"/>
      <path d="M 1.5 0 L 3 2 L 0 2 L 1.5 0 Z" stroke="none" fill="#393185"/>
    </g>
    <g id="Polygon_70" data-name="Polygon 70" transform="translate(13.918 8.655) rotate(-90)" fill="#393185">
      <path d="M1.5,0,3,2H0Z" stroke="none"/>
      <path d="M 1.5 0 L 3 2 L 0 2 L 1.5 0 Z" stroke="none" fill="#393185"/>
    </g>
    <g id="Polygon_71" data-name="Polygon 71" transform="translate(11.918 17.655) rotate(90)" fill="#393185">
      <path d="M2,0,4,2H0Z" stroke="none"/>
      <path d="M 1.99999988079071 0 L 4 2 L -2.384185791015625e-07 2 L 1.99999988079071 0 Z" stroke="none" fill="#393185"/>
    </g>
  </g>
</svg>
