<svg xmlns="http://www.w3.org/2000/svg" width="37.015" height="38.381" viewBox="0 0 37.015 38.381">
    <path id="Path_65" data-name="Path 65" d="M19.879,2a5.486,5.486,0,0,0-5.457,5.457,5.367,5.367,0,0,0,.341,1.819H10.044a3.709,3.709,0,0,0-3.638,2.9L2.427,34a3.762,3.762,0,0,0,3.638,4.377H33.692A3.746,3.746,0,0,0,37.331,34l-4.15-21.829a3.709,3.709,0,0,0-3.638-2.9H24.995a5.367,5.367,0,0,0,.341-1.819A5.486,5.486,0,0,0,19.879,2Zm0,3.638A1.819,1.819,0,1,1,18.06,7.457,1.8,1.8,0,0,1,19.879,5.638Z" transform="translate(-1.374 -1)" fill="#ebecec" stroke="#000" stroke-width="2"/>
</svg>
