<svg id="_1547319821840" xmlns="http://www.w3.org/2000/svg" width="206.06" height="103.738" viewBox="0 0 206.06 103.738">
    <path id="Path_34806" data-name="Path 34806" d="M430.911,683.32l-.438-.35.32.449Zm-2.525-3.4h0l-.081-.349-.185.086.058.472Zm-.429-.436h0l-.279.174Zm.083-1.133h0l-.123.287.117.323.005-.61Zm-.217-.175h0l-.047-.261-.021.35Zm-34.207,41.36h0a7.824,7.824,0,0,1,1.264-.567c.479-.13,1.09-.479,2.092-.828a19.761,19.761,0,0,1,1.918-.523,1.7,1.7,0,0,1,1,.349,24.158,24.158,0,0,0,7.889,2.091,3.032,3.032,0,0,0,1.485,1.215,18.377,18.377,0,0,0,2.786.878l.175,2.266s-17.391-2.921-17.913-3.1-.48-.13-.48-.436a12.592,12.592,0,0,0-.217-1.351Zm96.278,18.479h0a40,40,0,0,0-3.355-2.746,7.994,7.994,0,0,1-1.271-.706c-.568-.371-1.563-1.081-1.563-1.081a7.3,7.3,0,0,1-1.478.365,3.5,3.5,0,0,1-1.659-.061,3.376,3.376,0,0,1-1.231-.6,5.21,5.21,0,0,1-.8-1.163,11.729,11.729,0,0,0-.848-.943,5.4,5.4,0,0,1-.842-.763,11.922,11.922,0,0,1-.814-1.068,6.062,6.062,0,0,1-1.876-.252,4.324,4.324,0,0,1-1.218-.837,3.755,3.755,0,0,1-3.008.871,11.29,11.29,0,0,1-2.571-.959s-.879.82-1.654,1.66c-.729.795-1.353,1.609-1.353,1.609l-.044,2.266,25.585,4.4ZM428.658,672.9h0a25.352,25.352,0,0,1-2.137-1.526c-1.088-.871-1.481-1.394-1.351-2.4s1.7-1.525,1.7-1.525.095-.537.152-.953c.113-.82.331-.5.43-.883a28.193,28.193,0,0,1,1.882-6.276,15.906,15.906,0,0,1,5.118-5.747,3.8,3.8,0,0,1,1.656-1.352,5.276,5.276,0,0,1,3.007-.3,3.022,3.022,0,0,0,1.4-.436c2.135-1.047,5.492.74,5.492.74s1.013-.63,3.6,1.047a4.005,4.005,0,0,1,1.807,2.135,12.523,12.523,0,0,1,4.795,7.583,33.672,33.672,0,0,1,.131,9.719,11.128,11.128,0,0,1,1.68,2.016,13.028,13.028,0,0,1,1.152,3.345c.61,2.135.7,2.745-1.176,3.051s-5.927.7-5.927.7a11.254,11.254,0,0,1-.829,2.658,35.376,35.376,0,0,0-1.393,3.748c-.088.262.784.872,1.133,1.177a9.594,9.594,0,0,0,1.438.785,5.8,5.8,0,0,1,1.35.784c.741.741.524.61,1,.7a6,6,0,0,1,1.683.916c.67.46,1.586,1.22,1.586,1.22a6.181,6.181,0,0,1,2.44.653,12.078,12.078,0,0,1,1.815.867,4.527,4.527,0,0,1,.67.747,9,9,0,0,1,2.355.74,5.491,5.491,0,0,0,1.612.7,6.8,6.8,0,0,1,2.534.936,5.236,5.236,0,0,1,.909,1.592,4.762,4.762,0,0,1,1.369.607,4.907,4.907,0,0,1,.768.744,4.384,4.384,0,0,1,1.264.915c.437.523,1.09,1.4,1.569,2.048a14.937,14.937,0,0,0,.958,1.309,2.614,2.614,0,0,1,.828.959c.218.523,1.134,1.046,1.875,2.005a11.784,11.784,0,0,1,1.276,1.782l.947,1.748s1.65,1.918,3.569,3.982c1.365,1.472,3.012,3.122,3.012,3.122a8.38,8.38,0,0,1,1.169.67,3.062,3.062,0,0,1,.793,1.029s.439.359.678.508c.453.28.864.471.979.757.174.435.436.262,1.262.654.358.168,1.046.526,1.456.7a12.775,12.775,0,0,1,1.858.782,26.965,26.965,0,0,1,5.491,4.184c.657.706,1.77,2,2.917,3.139.91.9,1.9,1.737,2.05,1.873a8.622,8.622,0,0,0,.829.7,5.35,5.35,0,0,1,.829.871,14.633,14.633,0,0,1,1.308,1.177c.3.436.567.348,1.045.654a1.716,1.716,0,0,1,.61.566s.8-.368,1.435-.7c.791-.415,1.221-.693,1.528-.865a4.365,4.365,0,0,1,2.267-.653,2.414,2.414,0,0,1,2.222,1.046c.654.654.829.871,1.178,1.177s.566.131,1.046.086a6.33,6.33,0,0,1,1.569,0,2.974,2.974,0,0,1,2.049.655,1.623,1.623,0,0,1,.479,1.873,5,5,0,0,1,.054,1,2.955,2.955,0,0,1-.272.963s.436.3.393,1.263a3.878,3.878,0,0,1-.432,1.839c-.151.243-.151.074-.4.516-.583,1.051-1.106,1.277-1.544,1.34a2.975,2.975,0,0,1-.722.01,1.028,1.028,0,0,1-.479,1.09,1.288,1.288,0,0,1-1.482-.174,13.962,13.962,0,0,1-3.024.94,13.244,13.244,0,0,1-4.429-.373,6.85,6.85,0,0,1-1.613-.436c-.522-.305-.567-.523-1.046-.959a4.593,4.593,0,0,0-1.917-.959c-.959-.306-1.394-.392-2.7-.828-.544-.182-1.367-.561-2.133-.839-1.073-.393-2.2-.714-3.75-1.122-2.659-.7-9.458-5.4-9.458-5.4s0-.007-25.585-4.4c0,0,.084,5.6.36,8.49.216,2.285.572,4.565.686,5.412l.261,1.918.6,3.948s-48.891-.114-51.55-.114a8,8,0,0,1-.055-2.467c.1-.7.259-1.092-.032-1.673a14.289,14.289,0,0,1-.926-3.179,56.482,56.482,0,0,1-.7-5.944c-.339-4.29-.46-12.711-.46-12.711l-18.829-3.356s0,.173-.524.13a5.818,5.818,0,0,0-.784-.088,1.374,1.374,0,0,1-1.09-.479,4.989,4.989,0,0,1,.087,2.834,1.583,1.583,0,0,1-1.569,1.177.6.6,0,0,1-.56.643,1.376,1.376,0,0,1-1.575-.86s-.7.7-1.569-.393c-.847-1.057-1.176-1.09-1.569-1.787a11.931,11.931,0,0,0-1.482-2.179,4.572,4.572,0,0,1-.583-1.188,11.109,11.109,0,0,0-.681-1.121,1.455,1.455,0,0,0-.741.044,4.919,4.919,0,0,1-2.179-.3,4.745,4.745,0,0,1-2.558-1.35,18.345,18.345,0,0,1-1.975-3.488,3,3,0,0,1-1.22-2.614,6.372,6.372,0,0,1,.2-1.133c.321-1.673,1.145-1.965,2.105-2.964a15.47,15.47,0,0,1,3.879-3.181,8.553,8.553,0,0,1,2.547-.648,17.173,17.173,0,0,1,3.338.038s.609-.087.74-.131c.812-.27,1.7-.524,1.7-.524a1.66,1.66,0,0,1,.943-.664,3.682,3.682,0,0,1,1.367.185,3.025,3.025,0,0,1,1.516-1,7.025,7.025,0,0,1,1.8,0,5.1,5.1,0,0,1,1.7-1.22,1.9,1.9,0,0,1,1.4-.044,1.494,1.494,0,0,1,.871-1.045,3.53,3.53,0,0,1,1.7-.131,12.518,12.518,0,0,1,1.047-1.09c.654-.61,1.046-.218,1.568-.523s.48-.436.7-.828.61-.088,1,0,.218.088.524-.3.479-.087.872-.218.349-.306.61-.611a.81.81,0,0,1,1.089-.262c.61.219.262.044.567-.218S408,696.3,408,696.3l.566-.567c.306-.306.785.087.785.087a4.341,4.341,0,0,1,2.135-1.874,14.127,14.127,0,0,1,2.354-.828c1.089-.437,1.612-.219,2.135.348s1.177,1.22,1.177,1.22a4.237,4.237,0,0,0,1.046-.522,2.514,2.514,0,0,1,1.525-.609c.7-.044,1.613-.131,1.917-.524s.044-.522,1.135-1.09a2.42,2.42,0,0,1,1.4-.152,2.545,2.545,0,0,1,.732.152s.175,0,.7-.7.916-.654,1.787-1.133a4.038,4.038,0,0,1,1.265-.522,6.013,6.013,0,0,1,1.047-2.035,5.1,5.1,0,0,1,1.35-.886,11.284,11.284,0,0,0,.174-1.918c-.044-.652-.142-.652-.142-.652l-.119-.246-.262-.079-.436-.283-.349-1.113-.523-.25-.609-.527-.262-.355-.126-.547-.31-.061-.088-.26.077-.29-.115-.173-.31.039-.169-.127-.018-.349.188-.09.15-.172-.143-.7-.038-.871-.094-.7-.2-.261-.068-.349-.173-.436-.43-.174.3-.206.262-.287.129-.466.219-.39,1.09-1.484Z" transform="translate(-324.907 -651.174)" fill="#2b2a29"/>
    <path id="gardening-pail-svgrepo-com" d="M77.084,15.094a1.861,1.861,0,0,0-.808.186A18.809,18.809,0,0,0,73.765,7.9a15.914,15.914,0,0,0-6.5-6.247A1.907,1.907,0,0,0,65.379,0H54.528a1.907,1.907,0,0,0-1.887,1.651,15.915,15.915,0,0,0-6.5,6.247,18.81,18.81,0,0,0-2.51,7.381,1.871,1.871,0,0,0-2.684,1.69v.851A1.872,1.872,0,0,0,43.969,19.3L48.822,42.61l.564,4.5a.587.587,0,0,0,.582.514h19.97a.587.587,0,0,0,.582-.514l.564-4.5L75.938,19.3a1.872,1.872,0,0,0,3.021-1.481v-.851A1.878,1.878,0,0,0,77.084,15.094ZM52.874,2.848a1.906,1.906,0,0,0,1.654.963h10.85a1.905,1.905,0,0,0,1.654-.963c4.541,2.38,7.939,8.06,8.163,13.674H44.711C44.935,10.908,48.333,5.228,52.874,2.848ZM43.525,17.82a.7.7,0,1,1-1.4,0v-.851a.7.7,0,1,1,1.4,0Zm34.26,0a.7.7,0,0,1-1.4,0v-.851a.7.7,0,1,1,1.4,0Z" transform="translate(-40.948 56.116)" fill="#484848"/>
    <path id="gardening-palette-svgrepo-com" d="M11.4,3.855,7.045.314a1.519,1.519,0,0,0-1.85,0L.843,3.855A2.552,2.552,0,0,0,0,5.627V14.38a1.252,1.252,0,0,0,1.251,1.251H4.058s.635-.114.635.449v3.544c0,.245-.3.227-.3.227H3.512c-.708,0-.707,1.192-.707,1.58,4.608,3.812,4.38,1.384,6.466,1.083,0-.388.158-2.663-.57-2.663h-.89s-.264,0-.264-.227V16.08c0-.5.587-.449.587-.449h2.855a1.252,1.252,0,0,0,1.251-1.251V5.628A2.552,2.552,0,0,0,11.4,3.855Z" transform="matrix(0.966, 0.259, -0.259, 0.966, 194.238, 62.351)" fill="#484848"/>
    <path id="Path_34975" data-name="Path 34975" d="M428.658,672.9h0c-.534-.382-1.047-.654-2.137-1.526s-1.481-1.394-1.351-2.4,1.7-1.525,1.7-1.525.095-.537.152-.953c.113-.82.331-.5.43-.883a28.193,28.193,0,0,1,1.882-6.276,15.906,15.906,0,0,1,5.118-5.747,3.8,3.8,0,0,1,1.656-1.352,5.276,5.276,0,0,1,3.007-.3,3.022,3.022,0,0,0,1.4-.436c2.135-1.047,5.492.74,5.492.74s1.013-.63,3.6,1.047a4.005,4.005,0,0,1,1.807,2.135,12.523,12.523,0,0,1,4.795,7.583,33.672,33.672,0,0,1,.131,9.719,11.128,11.128,0,0,1,1.68,2.016,13.028,13.028,0,0,1,1.152,3.345c.61,2.135.7,2.745-1.176,3.051s-26.9,2.961-29.332-8.24Z" transform="translate(-324.907 -651.174)" fill="#484848" opacity="0.57"/>
</svg>
