<svg id="_1547261440432" xmlns="http://www.w3.org/2000/svg" width="87.796" height="320.717" viewBox="0 0 87.796 320.717">
    <path id="Path_34078" data-name="Path 34078" d="M946.377,640.919a1.746,1.746,0,0,1,.483,1.21,1.111,1.111,0,0,1,1.113,1.258,4.338,4.338,0,0,1-.76,1.939c-.393.631-1.273,1.834-1.273,1.834l.242,3.29.678-.049s2.081-.532,2.467-.049a5.46,5.46,0,0,1,.58,2.322c.1.775-.289,1.114-.193,1.888a7.605,7.605,0,0,0,.774,2.951,5.643,5.643,0,0,1,1.4,2.177c.1.46.255,2.41.34,3.864.105,1.878.1,2.831.1,3.392a25.771,25.771,0,0,1-.677,5.757,24.26,24.26,0,0,1-1.016,3.048l-1.065.387-.047-2.709a21.929,21.929,0,0,1-1.452,3.1c-.242.1-1.355.435-1.259-.339s.34-2.032.629-3.58c.254-1.379-.1-2.467-.1-4.161s-.049-2.419-.775-2.564-1.161.049-1.4-.145-.387-.29-.387-.29-2.128.047-4.4.29c-1.358.145-3.695.563-5.362.876-1.124.214-1.943.381-1.943.381s-2.42,5.806-2.564,7.208a28.834,28.834,0,0,1-.726,3.242c-.146.823-.194,1.6-.339,2.564-.073.493,0,.744-.109,1.394-.1.623-.375,1.655-.375,1.655s.677,1.354,1.065,1.983a23.674,23.674,0,0,0,1.5,2.613,9.5,9.5,0,0,0,2.128,2.274c.969.724,2.565,3.58,3.822,4.837s2.42,2.564,3.29,3.629,2.226,3.822,3,4.547,1.742,1.306,2.032,2.322a17,17,0,0,1,.436,2.323,1.964,1.964,0,0,0,.822,1.5c.87.725,1.209,1.161,1.306,1.742a5.927,5.927,0,0,1,.1.871.725.725,0,0,1,.629.435,2.737,2.737,0,0,1,.194.967,2.4,2.4,0,0,1,1.741.677c.629.725,1.161,1.741,1.6,1.935s1.064-.387,1.548.1l.485.484.193.193a1.262,1.262,0,0,0,.581.435,4.538,4.538,0,0,1,.773.34,6.031,6.031,0,0,0-.509-1.539,8.112,8.112,0,0,1-.647-3.109,5.754,5.754,0,0,1,1.2-3.287A11.873,11.873,0,0,1,959.2,705.7a5.359,5.359,0,0,1,1.584-.816,3.585,3.585,0,0,1,1.561-.1,4.9,4.9,0,0,1,1.209-3.194,2.524,2.524,0,0,1,2.613-1.017,6.362,6.362,0,0,1,1.694-1.6,3.727,3.727,0,0,1,2.612-.871c.823.1,1.6.146,1.6.146a14.816,14.816,0,0,1,2.033-.146,3.992,3.992,0,0,1,2.032.532,16.761,16.761,0,0,1,2.468,1.355c.871.773,1.016,1.064,1.355,1.162a1.306,1.306,0,0,1,.823.725c.242.436.532.1.919.581s.242.822.388,1.209a9.342,9.342,0,0,1,.1,1.887,4.8,4.8,0,0,1,1.551,2.111,25.848,25.848,0,0,1,1.448,5.242,41.121,41.121,0,0,1,.448,5.084,13.382,13.382,0,0,1-1.415,6.963,20.611,20.611,0,0,1-3.1,4.209,15.608,15.608,0,0,1-2.7,2.226,31.022,31.022,0,0,1,.726,4.692,28.134,28.134,0,0,1-.775,4.645,12.16,12.16,0,0,1-.436,1.741s-.1.677-.531,2.371a33.386,33.386,0,0,1-1.211,4.692,22.44,22.44,0,0,1-1.644,3.919,17.1,17.1,0,0,0-1.742,2.516c-.146.436.193,1.209-.291,1.548a7.285,7.285,0,0,1-1.016.581l-1.693,2.37s.532.049,1.21-.677a17.988,17.988,0,0,0,1.209-1.451,14.387,14.387,0,0,1-1.548,2.273,3.834,3.834,0,0,1-1.452.87l-.339.677a8.226,8.226,0,0,0,2.274.194c1.064-.1.918-.58,1.79-.871a3.291,3.291,0,0,1,1.258-.242l-1.4.968a2.5,2.5,0,0,1-.727,1.209c-.629.63-1.644.919-1.4.919a3.516,3.516,0,0,0,2.612-.049,5.188,5.188,0,0,0,2.322-1.742,7.909,7.909,0,0,0,.773-1.258,4.775,4.775,0,0,1-2.047,3.325,5.232,5.232,0,0,1-2.5.941,7.53,7.53,0,0,1-3.825-.686,27.435,27.435,0,0,1-1.6,3.145A7.035,7.035,0,0,0,965,770c-.112.357-.305.728-.517,1.463-.245.856-.51,2.087-.693,2.5-.339.775-.773,1.887-.773,1.887a15,15,0,0,1-.163,4.251,7.262,7.262,0,0,1-1.482,2.91,20.633,20.633,0,0,1,.532,2.275c.048.581-.291.919-.049.869s1.5-.435,1.645,0,.774.727.774,1.017.1.968.1.968a8.837,8.837,0,0,1,1.686,2.827,23.869,23.869,0,0,1,1.023,4.623l.87.58-.049-.676.63.1,1.112,7.983s.338-.147.436.291a9.629,9.629,0,0,0,.338,1.063l1.307-.193.581,1.451,1.162-.242a11.416,11.416,0,0,1,1.887-2.467c.677-.437,1.258-.63,1.5.194s-.388,2.419-1.211,2.612-2.08.484-2.08.484l-.629.823.919,3.339-2.614,1.016a41.167,41.167,0,0,1,1.742,5.078,6.16,6.16,0,0,1-.385,3.387,7.922,7.922,0,0,1-1.114,1.934,12.752,12.752,0,0,1,.8,3.391,12.479,12.479,0,0,1-.269,3.723,27.7,27.7,0,0,0,.242,3.58,11.625,11.625,0,0,1,.242,3.58c-.193,1.017-.387,1.742-.387,1.742a4.78,4.78,0,0,1,.29,1.595,13.618,13.618,0,0,1-.1,1.6,32.91,32.91,0,0,1,.07,3.919,13.917,13.917,0,0,1-.458,2.758s.534,4.015.727,5.612a23.543,23.543,0,0,1,.024,5.679,14.7,14.7,0,0,1-1.476,4.433l-.387,5.417a5.747,5.747,0,0,1,1.017,1.357,6.033,6.033,0,0,1,.338,1.209s.773-.049,1.306,1.112a8.489,8.489,0,0,1,.967,2.758,1.517,1.517,0,0,1-.29.772,25.1,25.1,0,0,1,.126,3.142,12.85,12.85,0,0,1-.32,2.325,2.5,2.5,0,0,1,1.24.98,2.643,2.643,0,0,1,.019,1.634l-.146.919a1.336,1.336,0,0,1,.387.531,3.166,3.166,0,0,1,.049.533,6.768,6.768,0,0,1,1.4,1.839,16.541,16.541,0,0,1,.677,3.581,2.528,2.528,0,0,1,.1,1.159,6.4,6.4,0,0,1,.436,1.5c.193,1.017.387,2.031.387,2.031a5.627,5.627,0,0,1,.29,1.163,9.644,9.644,0,0,1,.1,1.209,6.194,6.194,0,0,1,.364,1.359,14.849,14.849,0,0,1,.121,1.739.776.776,0,0,1,.29.774,6.611,6.611,0,0,0,.048,1.258,5.945,5.945,0,0,1,.339.968,14.817,14.817,0,0,1,.435,1.838,10.745,10.745,0,0,1,.1,1.21s.725.92.387,1.694-.677,1.207-.822,1.693.048.871.581,1.838a9.1,9.1,0,0,1,1.4,2.611c.241,1.114-.195,1.306-.436,2.323s-.29,1.209-.29,1.209.387-.339.29.774-.579,1.112-.579,1.112a5.153,5.153,0,0,1,.144.97c0,.386.242,1.209,0,1.5a1.473,1.473,0,0,1-.339.339s-.242,2.612-.193,3.869.146,2.759.146,2.759.387.195.435,1.162.1,1.162-.146,1.548-.677,1.111-.677,1.111a5.353,5.353,0,0,1,1.482,2.661,6.849,6.849,0,0,1-.514,3.146,1.744,1.744,0,0,0,.184.682,16.332,16.332,0,0,1,1.651,3.288,10.06,10.06,0,0,1,.39,3.868,3.561,3.561,0,0,0-.048.968,24.191,24.191,0,0,1,.822,2.66,12.066,12.066,0,0,1,.194,2.515l-.242.582s.741,2.023-.485,3.1a5.893,5.893,0,0,1-3.314,1.458,47.311,47.311,0,0,1-6.8.477c-5.133.049-6.719-.171-6.891-3.05a2.134,2.134,0,0,1,.505-1.5,3.721,3.721,0,0,1-.243-1.838,25.433,25.433,0,0,1,.387-2.565,1.138,1.138,0,0,1-.193-1.258,2.429,2.429,0,0,0,.243-1.307s-.049-.773-.049-2.515-.1-3.1-.1-3.1a8.218,8.218,0,0,1,0-2.225,9.82,9.82,0,0,1,.726-1.548,2.5,2.5,0,0,1-.387-1.21v-1.163a5.9,5.9,0,0,1-.435-1.11,4.635,4.635,0,0,1-.048-.581s-2.081-.533-2.177-1.645,1.742-2.08,1.742-2.08a21.352,21.352,0,0,1-.484-2.225c-.194-1.209-.726-3.047-.726-3.047a2.137,2.137,0,0,1-.773-1.018c-.193-.629-.34-1.161-.34-1.161a2.292,2.292,0,0,1-1.058-1.282,4.1,4.1,0,0,1,.285-2.008s-2.419-.243-2.371-3.242.1-6.1.1-6.1-.822-1.983-1.257-2.854a8.324,8.324,0,0,1-1.161-3.677l-.532-5.613a3.922,3.922,0,0,1-2.22-1.943,6.566,6.566,0,0,1-.206-2.605c.027-.9.006-1.741.006-1.741s-3.241-.774-3.241-1.935.628-1.161.628-1.161a3.2,3.2,0,0,0,.29-1.5c-.144-.483-1.257-.533-1.741-.919s-1.209-.725-.822-1.742a7.792,7.792,0,0,0,.726-3c-.049-.968-.437-3.919-.437-3.919s-1.113-1.547-1.741-2.273-1.79-1.5-2.177-2.031a6.252,6.252,0,0,1-1.21-5.323c.726-2.708,1.838-4.112,1.693-5.418s-1.064-2.225-1.693-3.532a35.758,35.758,0,0,1-2.04-4.965,18.292,18.292,0,0,1-.718-3.694,31.648,31.648,0,0,0-.532-5.177c-.291-.919-.822-2.321-1.258-4.161s-.969-5.129-.969-5.129a10.675,10.675,0,0,1-.731-1.327c-.215-.454-.622-1.527-.622-1.527l-2.564.967a7.973,7.973,0,0,1-.228,3.846,10.63,10.63,0,0,1-2.53,3.556,57.526,57.526,0,0,1-1.936,6.144c-.773,1.692-1.645,3.968-2.032,5.177s-.387,3.628-.919,5.176S927.8,864,926.15,865.743s-3,3.434-3,3.434a7.923,7.923,0,0,0-.289,1.308c-.1.725-.29,1.645-.29,1.645s1.5,2.564,1.355,4.161a39.613,39.613,0,0,1-1.307,5.03,7.549,7.549,0,0,1-1.162,3.1,1.947,1.947,0,0,1-.966.629l-.291.482s1.257,1.066,1.208,1.936a15.1,15.1,0,0,1-.458,2.319,8.8,8.8,0,0,1-.46,1.309,11.712,11.712,0,0,1,1.248,3.136,15.21,15.21,0,0,1,.25,3.783,26.136,26.136,0,0,1,.775,4.158c.146,1.6.484,2.807.581,3.726s.144,1.306.144,1.306a17.306,17.306,0,0,1,.677,2.419,7.6,7.6,0,0,1,0,2.566,10.1,10.1,0,0,0-.339,2.95c.1.775.773,1.549.726,2.371a8.556,8.556,0,0,1-.29,1.646,2.2,2.2,0,0,1,.193,1.5,7.084,7.084,0,0,0,0,2.468,19.989,19.989,0,0,1,.195,3.869,11.711,11.711,0,0,1-.387,2.081s.048,1.112.1,1.305a6.261,6.261,0,0,1,1.086,2.439,9.283,9.283,0,0,1-.166,3.319,27.5,27.5,0,0,1,.819,4.007,12.5,12.5,0,0,1-.142,2.959,5.546,5.546,0,0,1-.242,1.6s-.1,3.243-.049,4.306-.29,1.888-2.032,2.468a19.141,19.141,0,0,1-5.466.727,10.985,10.985,0,0,1-2.081-.147s.581,2.032-2.42,2.711a47.256,47.256,0,0,1-11.224.436c-2.371-.243-3.484-.583-3.581-1.791a3.46,3.46,0,0,1-.028-1.373,1.324,1.324,0,0,1,.511-.516,5.369,5.369,0,0,1,.678-3.821,8.641,8.641,0,0,1,3.727-2.855,14.409,14.409,0,0,0,1.547-.967,2.719,2.719,0,0,1,.678-1.547,13.124,13.124,0,0,0,1.84-3.049,8.143,8.143,0,0,1,1.6-2.564c.483-.581,1.935-2.033,1.935-2.033s-.532-.1-.532-.532.485-.679.485-.679-.1.049-.2-.676a4.833,4.833,0,0,1-.048-1.112s-.387-.1-.289-.341a.5.5,0,0,1,.338-.289,7.238,7.238,0,0,0-.242-.822,1.392,1.392,0,0,1,0-.823l-.146-.677s-3.581.387-3.87-.049.1-.676.919-.676a13.441,13.441,0,0,1,2.129.192,1.911,1.911,0,0,0,.967-.047s-.338-.967-.532-1.742a14.851,14.851,0,0,1-.29-1.549,31.072,31.072,0,0,1-2.033-2.418c-.724-1.017-.919-1.308-.919-2.177a27.445,27.445,0,0,0-.387-3.048,7.394,7.394,0,0,1-1.548-4.644c.049-2.807.144-4.644.144-4.644a21.38,21.38,0,0,0-.823-3.1,13.072,13.072,0,0,1-1.015-2.759c-.145-.967-1.065-5.273-1.356-6.532a12.772,12.772,0,0,1-.289-2.515,11.343,11.343,0,0,0-.534-3.338,4.633,4.633,0,0,0-1.4-1.984c-.63-.483-.967-.58-.92-1.257s.144-2.613.144-2.613a4.73,4.73,0,0,1-.135-2.61c.257-1.231,1.2-1.213,1.2-1.213l.436-.58a13.292,13.292,0,0,0,0-2.275c-.1-1.549-.195-2.854-.195-2.854a4.026,4.026,0,0,1-.241-1.355,3.542,3.542,0,0,1,.29-1.838,34.856,34.856,0,0,0,.05-4.79,14.965,14.965,0,0,1-.24-5.073,80.759,80.759,0,0,1,1.691-8.377c.628-2.662,1.355-5.9,2.273-10.885s1.4-8.855,1.791-9.966a7.647,7.647,0,0,1,.677-1.549,2.845,2.845,0,0,1,.1-1.742,14.853,14.853,0,0,1,.724-1.982,10,10,0,0,1-1.6-.049,3.749,3.749,0,0,1-1.161-.531,3.084,3.084,0,0,1-2.322.724,6.413,6.413,0,0,1-1.839-.677,8.984,8.984,0,0,1-1.064-.775s-.823,0-1.355-1.451-.484-2.176.291-4.063a27.262,27.262,0,0,0,1.548-4.645c.242-1.208,1.016-3.678,1.257-4.984s.92-3.628,1.017-4.6.049-2.032.92-1.984,3.241.193,3.241.193l.435-2.082s-.242.147-.146-.338.146-.726.146-.726a1.169,1.169,0,0,1,.58-1.354,3.018,3.018,0,0,1,1.1-.449,2.334,2.334,0,0,1,1.123.11s0-1.016.92-1.063a9.469,9.469,0,0,1,1.791.1,1.12,1.12,0,0,0,.144-.24,1.955,1.955,0,0,0,.195-.63,6,6,0,0,0,.144-.677,6.258,6.258,0,0,1,.147-.92,13.835,13.835,0,0,1,.434-1.451c.1-.339.1-.58.244-1.112s.339-.871.387-1.163.144-.483.192-.725a2.944,2.944,0,0,0,.193-.773c.1-.679.195-.92.195-1.113a3.634,3.634,0,0,1,.243-.823.646.646,0,0,1,.338-.387,2.225,2.225,0,0,1,.629-1.983c.87-.726,2.563-.146,2.563-.146a1.18,1.18,0,0,0,.485-.193,1.3,1.3,0,0,1,.58-.193,3.668,3.668,0,0,1,.1-1.56,1.471,1.471,0,0,1,.815-.714,2.649,2.649,0,0,1-.047-1.113,1.685,1.685,0,0,1,.338-.919s-.1-1.163-.071-2.135c.027-.87.077-1.5.167-2.414a5.294,5.294,0,0,1,.58-2.419,16.4,16.4,0,0,1,.013-2.563c.091-1.209.387-2.815.472-3.822.193-2.273.627-5.758.87-8.9.148-1.92.544-4.944.989-7.766a46.683,46.683,0,0,1,1.1-5.089,17.807,17.807,0,0,1,1.868-4.6c.741-1.237,1.172-1.9,1.649-2.619a9,9,0,0,0,.736-1.412s-2.71-6.048-3.725-7.838c-.566-1-3-5.243-4.817-9.246a70.655,70.655,0,0,1-2.779-7.445c-.517-1.525-1.571-4.868-2.471-8.177-.7-2.573-1.307-5.262-1.5-6.193-.434-2.129-1.693-5.564-1.112-7.3a48.544,48.544,0,0,0,1.5-6.193c.387-2.129,1.209-4.789,1.355-6.241a21.717,21.717,0,0,1,.483-2.613,3.615,3.615,0,0,1,.436-1.307,1.611,1.611,0,0,1-.483-1.354,25.73,25.73,0,0,1,.725-2.806,7.228,7.228,0,0,0,.29-1.113,24.332,24.332,0,0,1-2.806.484c-1.246.145-3.145,1.4-4.016,1.065a3.613,3.613,0,0,1-2.226-3.049c-.338-1.935.1-1.935.1-1.935a1.935,1.935,0,0,1,0-1.451c.338-.63.774-.532.774-.532s.144-.823,1.307-.388a4.1,4.1,0,0,1,1.646,1.017s1.082-.122,1.983-.243c1.064-.145,1.064-.435,1.064-.435a2.333,2.333,0,0,1,.58-1.839,2.75,2.75,0,0,1,1.743-.581,1.521,1.521,0,0,1,.87-1.452,1.577,1.577,0,0,1,1.405,0,1.261,1.261,0,0,1,1.11-1.161,2.514,2.514,0,0,1,1.984.484,4.3,4.3,0,0,1,2.08-1.258,1.458,1.458,0,0,1,1.5.774s2.08-5.08,2.515-6.338.823-3.047,1.6-3.967a10.66,10.66,0,0,1,1.934-2.178,7.931,7.931,0,0,1,2.081-1.257,5.989,5.989,0,0,1,1.887-.532h.775a6.694,6.694,0,0,1,1.079-.786c.4-.234.807-.553,1.339-.81.708-.345.915-.4,1.253-.348a2.853,2.853,0,0,1,.925.348,6.885,6.885,0,0,1,1.693-1.209,5.842,5.842,0,0,0,1.209-.611l.517-.647s0-.9.034-1.223.29-.192.29.225a5.793,5.793,0,0,0,.127,1,.907.907,0,0,1,1.017.049Z" transform="translate(-897.833 -639.468)" fill="#2b2a29"/>
    <path id="Path_34079" data-name="Path 34079" d="M915.212,652.464a1.8,1.8,0,0,0,.387-1.354,5.175,5.175,0,0,0-.485-2.032A15.886,15.886,0,0,0,914,647s-.823-2.419-.436-2.71a6.1,6.1,0,0,1,1.113-.58l-.049-2.952s-1.548,1.935-2.177,2.806-.774,2.758-1.549,3.628a27.793,27.793,0,0,1-4.014,4.355,11.381,11.381,0,0,0-2.758,2.467c-.532.726-.532.919-.532.919s4.16-.581,5.708-.774a30.11,30.11,0,0,0,3.822-.871,9.119,9.119,0,0,1,1.211-.436C914.776,652.755,914.97,652.755,915.212,652.464Z" transform="translate(-866.814 -632.534)" fill="#9d9e9e"/>
    <path id="Path_34080" data-name="Path 34080" d="M911.263,659.153s-.241-.483-1.063-.338-1.721.384-.775.58A2.433,2.433,0,0,0,911.263,659.153Z" transform="translate(-837.656 -535.546)" fill="#2b2a29"/>
    <path id="Path_34081" data-name="Path 34081" d="M910.018,687.943l-.1-2.613a1.525,1.525,0,0,0-1.452,1.355C908.324,687.991,910.018,687.943,910.018,687.943Z" transform="translate(-840.665 -392.775)" fill="#2b2a29"/>
    <path id="Path_34082" data-name="Path 34082" d="M909.842,667.168a3.259,3.259,0,0,1,.775-1.258c.58-.58.871-.967.919-.337a1.164,1.164,0,0,1-.581,1.257c-.387.146-1.113.338-1.113.338Z" transform="translate(-833.236 -500.79)" fill="#2b2a29"/>
    <path id="Path_34083" data-name="Path 34083" d="M909.365,665.614c.193.435-.1.967-.242.629a3.688,3.688,0,0,1-.146-1.065S909.171,665.179,909.365,665.614Z" transform="translate(-837.888 -501.169)" fill="#2b2a29"/>
    <path id="Path_34976" data-name="Path 34976" d="M917.006,669.707a24.332,24.332,0,0,1-2.806.484c-1.246.145-3.145,1.4-4.016,1.065a3.613,3.613,0,0,1-2.226-3.049c-.338-1.935.1-1.935.1-1.935a1.935,1.935,0,0,1,0-1.451c.338-.63.774-.532.774-.532s.144-.823,1.307-.388a4.1,4.1,0,0,1,1.646,1.017s1.082-.122,1.983-.243c1.064-.145,1.064-.435,1.064-.435Z" transform="translate(-897.833 -639.468)" fill="#484848"/>
    <path id="Path_34977" data-name="Path 34977" d="M946.43,659.156c.046-1.177-1.384-5.066-1.863-6.482-.61-.284-.306-1.581-.306-1.581l1.922-.644.678-.049s2.081-.532,2.467-.049a5.46,5.46,0,0,1,.58,2.322c.1.775-.289,1.114-.193,1.888a7.605,7.605,0,0,0,.774,2.951,5.643,5.643,0,0,1,1.4,2.177c.1.46.255,2.41.34,3.864.105,1.878.1,2.831.1,3.392a25.771,25.771,0,0,1-.677,5.757,24.26,24.26,0,0,1-1.016,3.048l-1.065.387-.047-2.709a21.929,21.929,0,0,1-1.452,3.1c-.242.1-1.355.435-1.259-.339s.34-2.032.629-3.58c.254-1.379-.1-2.467-.1-4.161s-.049-2.419-.775-2.564-1.161.049-1.4-.145-.387-.29-.387-.29-2.128.047-4.4.29c-1.358.145-3.695.563-5.362.876-1.124.214-1.926.411-1.926.411l1.556-5.362S944.557,659.636,946.43,659.156Z" transform="translate(-897.833 -639.468)" fill="#484848"/>
</svg>
