<svg id="_1512714088752" xmlns="http://www.w3.org/2000/svg" width="143.616" height="198.854" viewBox="0 0 143.616 198.854">
    <path id="Path_33929" data-name="Path 33929" d="M735.876,654.373l.18-.39-.563.467a1.1,1.1,0,0,0,.241.841c.32.359,2.764,2.277,2.764,2.277Zm-50.763-11.15s-1.044,3.766-1.531,4.88-1.854,4.012-1.854,4.012a13.965,13.965,0,0,1,3.107.348,28.842,28.842,0,0,0,3.342.627l3.471.266a11.177,11.177,0,0,0-1.761-2.264c-.627-.418-1.161-.116-1.552-1.09a7.976,7.976,0,0,1-.2-1.712,9.651,9.651,0,0,1-2.1-1.719,11.673,11.673,0,0,1-.922-3.348Zm39.7-2.9-.115,1.022c-.054.6-.189,1.147-1.063,1.147s-1.037-.656-1.2-1.529a5.445,5.445,0,0,1-.04-1.039c-.321-.323-.925-.946-1.085-1.142a.87.87,0,0,1-.214-.474,11.724,11.724,0,0,0-1.207-1.287l-.184.993a1.926,1.926,0,0,1-1.769.369,15.038,15.038,0,0,1-2.515-.777s-.219.735-.71.9a4.4,4.4,0,0,1-1.638-.108l-2.156-.845s-.654-.382-.654-1.856a3.954,3.954,0,0,0-2.4-.492l-1.093.929v.873l3.113,2.265.382.983a6.691,6.691,0,0,1,1.091,1.473,4.936,4.936,0,0,1,.164,1.256,17.4,17.4,0,0,1,2.811.655,27.21,27.21,0,0,1,3.6,3.083,9.061,9.061,0,0,0,2.047,2.129c.818.491,3.384,1.282,3.6,2.046a5.929,5.929,0,0,1,.164,1.692l.9.055s1.419-1.583,2.347-1.747,2.948-.492,2.948-.492,2.483-.41,4.011-.545c.2-.018.426-.027.66-.031l-9.8-9.505ZM621.163,652.936Zm111.493,14.5a34.939,34.939,0,0,1-.289,4.593c-.344,1.12-2.5,4.308-5.515,7.667s-25.761,19.13-30.414,21.369a39.361,39.361,0,0,1-9.889,3.015s8.2,10.837,10.553,17.812-2.451,12.816-3.3,13.476-6.031,3.957-10.743,4.8-9.234-1.224-9.9-1.507-9.988-5.464-9.988-5.464-8.011-1.51-8.765-1.792-11.215-3.958-12.251-4.334-5.747-2.733-6.878-3.206a13.587,13.587,0,0,1-3.2-2.166,8.233,8.233,0,0,1-1.413-2.733l-1.791-1.414-1.354-3.286a2.27,2.27,0,0,1-.792-.094c-.256.041-.56.091-.881.148-.024.374-.29.379-.893.178-.319.07-.625.146-.887.228-.158.048-.325.111-.495.182-.113.308-.361.288-.549.259-.26.133-.515.276-.748.414-.029.28-.215.394-.552.345-.133.086-.248.162-.334.221a.54.54,0,0,1-.193.238c-.008.663-.062,5-.25,5.746a2.529,2.529,0,0,1-.707,1.238s-1.715.858-2.421,1.16a14.772,14.772,0,0,1-4.821.859c-1.262-.152-5.627-3.609-6.031-4.619-.224-.559-.765-1.852-1.227-3.183l-.107-2.325-.617-.419-.017-.2a13.085,13.085,0,0,1,.432-3.866l.273-.106.463-.25.143-2.118a13.535,13.535,0,0,1,.947-1.716l.492-.739.663-.246.389-1.22a33.288,33.288,0,0,1,2.33-2.809l1.059-.252s3.583-3.862,4.316-4.971.454-1.514.454-1.514l-.454-1.362s-.028-.5.983-2.071l.634-.044.115-1.05.142-.192c.765-1.038,1.69-2.174,2.524-3.164l.46-.013.373-.962c.858-.993,1.479-1.679,1.479-1.679l-1.585-4.854a13.715,13.715,0,0,1-3.52-.509c-.715-.409-.868-1.888-.969-2.5a32.175,32.175,0,0,1-.868-4.194c.051-.816,3.01-7.919,3.01-7.919s.154-7,.357-7.562a13.52,13.52,0,0,1,1.518-3.813,17.024,17.024,0,0,1-.038-6.513,57.683,57.683,0,0,1,2.357-5.419c.306-.612,1.024-9.735,1.155-10.29a11.317,11.317,0,0,1,1.855-3.456l.05-3.531.357-8.887s-1.53-3.021-1.836-3.991a18.4,18.4,0,0,1,.05-4.246l1.837-6.031a22.414,22.414,0,0,1-.052-4.235,40.459,40.459,0,0,1,3.736-6.542l6.336-8.949a4.381,4.381,0,0,1,.459-1.479,6.326,6.326,0,0,1,3.276-2.358c2.445-.562,11.031.306,11.031.306l.724-.407,3.47-.154a.874.874,0,0,0,.356-.612,23.648,23.648,0,0,1,.408-2.4c.153-.765,3.262-3.311,4.5-3.948a3.8,3.8,0,0,1,3.193-.273l4.04,1.938.382-2.975a6.129,6.129,0,0,1,.982-2.62c.791-1.009,2.375-2.7,2.375-2.7l1.961-4.06q-.6-.675-.324-1.207l.916-1.712a7.361,7.361,0,0,1-2.128-.257,2.1,2.1,0,0,1-1.341-1.507,2.723,2.723,0,0,1,.534-2.008.813.813,0,0,1,.983-.055l1.855-1.911a1.613,1.613,0,0,1,.982-.382,50.658,50.658,0,0,1,5.377-5.267,12.988,12.988,0,0,1,10.086-3.185c4.285.492,9.262,2.748,13.546,8.288s3.746,11.716,3.52,14.3c-.292,3.326-3.957,11.516-3.957,11.516s2.428,5.431,2.428,6.194a2.4,2.4,0,0,1-1.718,1.829,27.277,27.277,0,0,1-8.324-1.391l-1.279,1.524s-.429.773-.884,1.656a7.3,7.3,0,0,1-.8,1.129,27.155,27.155,0,0,0-.61,2.757,1.5,1.5,0,0,1-1.528,1.009,2.3,2.3,0,0,1-.709-.164l.109.982a51.788,51.788,0,0,0,3.221,4.095,30.415,30.415,0,0,1,2.865,2.264c.218.383-.055,1.2-.6,1.038a3.506,3.506,0,0,1-1.146-.766l-1.664.056-.819.218s2.047,3.574,2.319,4.175.364,2.189.546,2.784a54.97,54.97,0,0,1,2.074,11.461s.273,1.994.328,2.565-.109,2.538-.109,2.538a14.133,14.133,0,0,1,2.974.328c.6.272.6,1.2.6,1.2l-.273.764,4.094.546s3.083-.273,3.847-.382,8.952-.108,9.77.055a5.274,5.274,0,0,1,2.457,1.664,14.867,14.867,0,0,1,.546,1.474,54.9,54.9,0,0,1,2.7,5.484c.146.9.375,3.146.485,4.249l.221.2a1.254,1.254,0,0,1,.472.98,1.673,1.673,0,0,1-.353.851l-.154.187,10.93,10.6a22.869,22.869,0,0,0,2.7.094,5.093,5.093,0,0,0,1.987-1.259s.967-1.1,1.588-.863a2.078,2.078,0,0,1,1.061,1.69,4.272,4.272,0,0,1-2.67,3.325,11.156,11.156,0,0,1-1.418.14l1.729,1.614c.224-.271.556-.686.873-.368.48.6.56.68.56.68a.475.475,0,0,1,.551-.239c.359.12.759.839.759.839l-.24.55,1.281,1.52.92.321.32.679-.4.281,1.121,1.4a.875.875,0,0,1,.12.761,3.36,3.36,0,0,1-.48.72l.879.99a.715.715,0,0,1-.32.6c.4.359-.12.92-.12.92a1.383,1.383,0,0,1,1-.039c.481.2.56,1.24.52,1.56a6.832,6.832,0,0,1,.04,1.483,1.527,1.527,0,0,1-1.036,1.178c-.659.188-6.973-.142-6.973-.142a22.446,22.446,0,0,1-3.158,0c-.895-.142-3.439-.848-3.439-.848l-1.293-.033Z" transform="translate(-604.987 -541.516)" fill="#484848" fill-rule="evenodd"/>
    <path id="Path_33930" data-name="Path 33930" d="M629.915,570.75a7.171,7.171,0,0,0-2.673,2.093,7.909,7.909,0,0,0-.927,4,4.745,4.745,0,0,1-.58,2.614c-.521,1.332-.222,4.839-.222,4.839s-1.83-1.3-1.7-5.778c.1-3.358,1.054-5.737,2.039-6.722.228-.229.5-.492.793-.762l-4.211,1.457s-2.035,3.192-2.44,3.657-4.99,5.626-4.99,5.626-.751,0-.81-.406c-.048-.34-.342-3.423-.435-4.4a38.406,38.406,0,0,0-4.2,4.518c-.231.58-.47,3.192-.818,3.888s-1.854,2.492-1.854,3.823,1.391,4.062,1.738,4.93a41.659,41.659,0,0,0,3.252,4.41,2.359,2.359,0,0,1-1.333-.346,34.806,34.806,0,0,1-4.526-5.627c-.694-1.273-1.216-4.756-.753-5.973s1.274-2.961,1.274-2.961,3.368-6.032,3.773-6.321,1.679-1.216,2.2-1.563,4-4.7,4-4.7a7.961,7.961,0,0,1,.638-2.954c.58-.984,3.244-4.467,3.244-4.467l2.729-3.657,1.217,2.441.984,2.143s-1.687,2-3.247,3.825c.93.063,6.15.063,6.15.063l.546.851,1.135,1.465Zm-8.639,8.761a1.756,1.756,0,0,1,.059,1.68,26.206,26.206,0,0,1-4.179,4.235,1.19,1.19,0,0,1-1.447-.115l-.761-1.4a28.349,28.349,0,0,0,2.614-1.274,21.577,21.577,0,0,0,3.714-3.128Z" transform="translate(-604.269 -416.077)" fill="#2b2a29"/>
    <path id="Path_33931" data-name="Path 33931" d="M625.15,556.734h0l-.058.071,10.93,10.6.049,0,5.812,5.684.264.7c.043.072-.171.317-.264.285l-.708-.19-16.6-16.105.171-.779.4-.277Zm-2.979.671c-.2-.2-.479-.488-.7-.725l-.006-.006-.017-.018-.012-.014,0,0-.013-.015,0,0-.031-.033h0l-.016-.016h0l-.06-.065,0,0-.012-.012,0,0-.01-.011,0,0-.014-.016-.008-.009,0-.006-.007-.007-.006-.007,0-.006-.006-.007-.005-.005-.007-.007,0-.005-.007-.008,0,0-.007-.008,0,0-.007-.009,0,0-.007-.009v0l-.007-.008h0l-.015-.018a.87.87,0,0,1-.214-.474h0v0h0l0,0,0,0h0l0,0h0l0-.005h0l0-.006h0l-.005-.006h0l-.006-.007h0l-.006-.007h0l-.007-.009h0l-.008-.009h0l-.009-.01h0l-.008-.01h0l-.01-.011-.01-.012h0l-.01-.012h0l-.01-.013h0l-.011-.014h0l-.012-.014h0l-.012-.014h0l-.012-.015h0l-.014-.016h0l-.014-.017h0l-.014-.017h0l-.015-.017v0l-.016-.017v0l-.016-.017,0,0-.016-.019,0,0-.016-.019,0,0-.036-.041,0,0-.018-.02,0,0-.019-.021,0,0-.019-.021,0,0-.019-.021,0,0-.019-.021,0,0-.021-.021,0,0-.021-.021,0,0-.021-.022,0,0-.021-.022,0,0-.1-.1,0-.005-.023-.023,0,0-.023-.023,0-.005-.023-.024-.058-.059-.005-.006-.024-.024-.006-.006-.024-.024-.006-.006-.024-.024-.006-.007-.025-.024-.007-.007-.024-.024-.007-.007-.025-.025-.007-.007-.026-.024-.008-.008-.024-.025-.008-.007-.027-.025-.007-.008-.026-.024-.008-.008-.027-.025-.009-.007-.026-.025-.036-.033-.009-.009.1-.65a7.408,7.408,0,0,0,1.4.211,2.253,2.253,0,0,0,1.142-.465s-.211,1.244-.211,1.564.042,2.14.042,2.14l-.012.055Z" transform="translate(-504.817 -459.046)" fill="#2b2a29"/>
    <path id="Path_33932" data-name="Path 33932" d="M617.012,556.157a12.381,12.381,0,0,1,2.8,1.341c1.1.79,9.108,14.937,9.108,14.937a32.092,32.092,0,0,0,2.165,4.419c1.959,2.737,7.846,5.479,7.846,5.479l.231.126a26.39,26.39,0,0,0,7.984,1.281,2.4,2.4,0,0,0,1.718-1.828c0-.764-2.427-6.195-2.427-6.195s3.665-8.189,3.957-11.516c.226-2.584.765-8.761-3.52-14.3s-9.261-7.8-13.546-8.287a12.99,12.99,0,0,0-10.086,3.184,50.693,50.693,0,0,0-5.377,5.267,1.607,1.607,0,0,0-.982.382l-1.855,1.91a.811.811,0,0,0-.983.055,2.724,2.724,0,0,0-.534,2.008,2.1,2.1,0,0,0,1.341,1.507,7.361,7.361,0,0,0,2.128.257l0,.006.042-.035Z" transform="translate(-547.242 -541.522)" fill="#2b2a29" fill-rule="evenodd"/>
    <path id="Path_33933" data-name="Path 33933" d="M619.23,557.368a5.394,5.394,0,0,1,.792.991,8.735,8.735,0,0,1,1.837,2.17l7.718,12.8a10.514,10.514,0,0,0,3.024,3.982,34.078,34.078,0,0,0,9.786,5.036,10.675,10.675,0,0,0,5.5.338,2.312,2.312,0,0,0,.241-.379l-.1-.155c-.619.413-2.838.537-5.524-.216a33.737,33.737,0,0,1-9.628-4.953,10.371,10.371,0,0,1-2.912-3.84l-7.737-12.833a8.582,8.582,0,0,0-2.966-3l-.031.06Zm26.782,18.583-.163-.369.043-.1-.1-.04a1.362,1.362,0,0,1-1.7.9,63.269,63.269,0,0,1-11.908-5.546,1.053,1.053,0,0,0,.318-.227l1.559-1.877s.043-.08.085-.176c.178-.417.29-1.014-.176-1.316-1.009-.652-2.672-1.307-3.417-2.213l-.115-.143-.115-.131c-.631-.646-1.39.124-1.741.644-.249.368-.461.776-.616.983a1.5,1.5,0,0,0-.267.638c-.045-.1-1.378-2.261-2.895-4.554a32.741,32.741,0,0,0-4.036-5.357c-1.588-1.205-4.439-1.875-6.356-2.515-.489-.163-.457-1.08-.4-1.483a2.42,2.42,0,0,1,.582-.719l-.137-.151-.024.026a1.325,1.325,0,0,0-.229-.094,2.56,2.56,0,0,0-.6.816,3.832,3.832,0,0,0-.035.854,1.227,1.227,0,0,0,.71,1.157c1.842.616,4.719,1.3,6.233,2.451,1.46,1.107,6.538,9.3,6.764,9.667a5.778,5.778,0,0,0,2.086,2.513c.668.418,1.327.823,1.982,1.211a64.709,64.709,0,0,0,12.616,5.949,1.727,1.727,0,0,0,2.051-.8Zm-10.959-34.042a17.326,17.326,0,0,0-1.81-.365l-.038.154c3.55.854,12.312,6.283,10.63,20.011-.641,4.131-3.3,5.62-5.957,5.491a9.048,9.048,0,0,1-5.335-2.229,11.407,11.407,0,0,0,4.883,1.781c1.943.124,6.081-1.078,6.362-5.139a18.687,18.687,0,0,0-9.671-17.861c-2.9-1.7-6.748-1.4-9.164-.676a16.376,16.376,0,0,0-1.484.963l.052.087c1.723-1.023,6.835-2.088,10.378,0a18.261,18.261,0,0,1,9.461,17.463c-.255,3.7-4.048,4.859-5.908,4.74a12.083,12.083,0,0,1-6.753-3.358,24.8,24.8,0,0,1-2.717-3.913,15.53,15.53,0,0,0-2.83-3.669,37.01,37.01,0,0,0-7.409-4.12,1.207,1.207,0,0,1-.187-.063c-.633-.279-.427-.8-.03-1.289l-.137-.111-.112.127a2.211,2.211,0,0,0-.314.047c-.432.748-.268,1.458.645,1.7a36.546,36.546,0,0,1,7.281,4.047c1.485,1.187,2.968,4.019,4.108,5.724a14.825,14.825,0,0,0,1.31,1.742,10.208,10.208,0,0,0,7.551,4.443c2.876.14,5.726-1.511,6.4-5.859,1.481-12.1-5.016-17.929-9.207-19.86ZM628.2,567.8a1.325,1.325,0,0,1,.111-1.2c.23-.308,1.129-2.177,1.708-1.584l.206.246c.83,1.007,2.42,1.594,3.514,2.3.288.188.035.76-.033.892l-1.458,1.761a.614.614,0,0,1-.7.207q-.97-.576-1.961-1.2a4.689,4.689,0,0,1-1.408-1.413l.026-.012Z" transform="translate(-546.659 -541.383)" fill="#2b2a29"/>
    <path id="Path_33934" data-name="Path 33934" d="M646.111,546.036q.378,1.124,9.006,9.555l1.748,3.76a15.979,15.979,0,0,0,2.621,3.495c1.49,1.4,8.219,14.074,8.917,15.473s2.446,5.506,2.446,5.506l3.236.524-.175-8.395,1.747-2.271.523-3.236,2.363-2.795,3.319.524,1.115-.557c.107.187.291.509.51.895a46.806,46.806,0,0,1,1.088,7.09c0,2.364-.617,8.219-.617,8.219l-2.1,6.73-2.1-.35s-7.169-2.362-8.393-2.188-4.019,2.188-4.019,2.188h-3.935l-9.791-6.38s-1.049-5.772-2.8-7.87c2.1-1.921,2.1-4.982,1.921-6.729s-2.97-5.507-2.97-5.507a11.47,11.47,0,0,0-.175-5.508c-.873-2.445-8.743-10.747-8.743-10.747s-7.3-.642-8.635-.277-6.031,4.938-6.88,6.212-4.757,9.1-5.606,11.19-3.179,7.39-3.179,7.39l-.208.357.751-2.467a22.414,22.414,0,0,1-.052-4.235,40.44,40.44,0,0,1,3.736-6.542l6.336-8.949a4.381,4.381,0,0,1,.459-1.479,6.328,6.328,0,0,1,3.276-2.358c2.445-.562,11.031.306,11.031.306l.724-.407,3.47-.154.019-.014ZM616.989,584l.159.1s2.358,4.458,3.206,5.589,13.948,16.3,13.948,16.3,1.6,1.507,2.827,2.45,3.392.472,4.523,1.037,6.6,1.7,8.482,2.262,13.1.283,13.758.376,7.162-2.45,7.821-2.45,4.618.282,4.618.282a8.37,8.37,0,0,1-.619,2,4.911,4.911,0,0,0-.408.774c-.021-.13-.031-.207-.031-.207h0s-1.044,3.766-1.531,4.88c-.4.915-1.394,3.034-1.736,3.761l-.01,0s-2.167,3.487-2.734,4.335a2.344,2.344,0,0,1-1.6.942,35.653,35.653,0,0,1-1.131,4.806c-.471,1.037-3.675,3.674-3.675,3.674s1.6,2.922.284,4.147-10.461,4.146-10.461,4.146-11.685,3.109-15.359,4.522-16.021,1.6-18.376,1.6c-1.258,0-4.424-.242-7.1-.467l-.047-.143a13.72,13.72,0,0,1-3.52-.51c-.715-.409-.868-1.888-.969-2.5a32.209,32.209,0,0,1-.868-4.194c.051-.816,3.01-7.919,3.01-7.919s.154-7,.357-7.562a13.522,13.522,0,0,1,1.518-3.814,17.023,17.023,0,0,1-.038-6.513,57.8,57.8,0,0,1,2.357-5.419c.306-.612,1.024-9.735,1.155-10.29a11.31,11.31,0,0,1,1.855-3.456l.05-3.532.357-8.887-.07-.139Zm-5.667,38.236Z" transform="translate(-595.146 -510.817)" fill="#2b2a29" fill-rule="evenodd"/>
    <path id="Path_33935" data-name="Path 33935" d="M614.877,559.055a48.16,48.16,0,0,1-7.13-.053l.011-.729.286-7.129,1.183.1c.745,1.358,1.7,3.057,2.183,3.695C611.668,555.285,613.063,556.932,614.877,559.055Z" transform="translate(-586.205 -476.066)" fill="#8d8d8d" fill-rule="evenodd"/>
    <path id="Path_33936" data-name="Path 33936" d="M611.765,546.2a2,2,0,0,1,.622.359,78.734,78.734,0,0,1,6.346,6.583c2.752,3.3,6.346,7.368,6.423,8.233s.236,2.281.236,2.281,1.18,3.828,1.259,4.694-.708,6.922-.629,7.762c.067.723-.506,6.807-.667,8.486l-1.834-1.2s-1.049-5.773-2.795-7.87c2.1-1.921,2.1-4.982,1.921-6.729a10.2,10.2,0,0,0-1.56-3.423c-.027-1.813-.073-4.953-.073-5.814,0-1.233-3-5.755-3-5.755-2.694-3.313-5.127-6.584-7.16-7.708.383.034.665.062.814.076Z" transform="translate(-565.044 -510.385)" fill="#8d8d8d" fill-rule="evenodd"/>
    <path id="Path_33937" data-name="Path 33937" d="M617.843,549.15a12.361,12.361,0,0,0,.836,3.329c.681,1.459.775,6.226,1.652,7a2.857,2.857,0,0,1,.5,1.194c-.175,2.158-.39,4.2-.39,4.2l-2.089,6.709-.4-.045-.828-.138c-.008-.58-.087-6.507.1-9,.166-2.232-1.074-11-1.451-13.578Z" transform="translate(-531.632 -491.864)" fill="#8d8d8d" fill-rule="evenodd"/>
    <path id="Path_33938" data-name="Path 33938" d="M607.207,570.8l9.672,1.037s3.359.064,4.619.064a11.283,11.283,0,0,1,3.361.935s18.468.883,21.12,1.414a29.27,29.27,0,0,0,9.013-.308c.238-.351,2.008-2.187,2.53-2.725l.145-.149a11.673,11.673,0,0,0,4.713-.352c1.511-.647,1.079-1.078,2.04-3.981.741-2.24,1.559-8.787,1.894-11.658a21.416,21.416,0,0,1,2.849-.89c.091,0,.245.005.442.015a40.928,40.928,0,0,1-1.409,4.559,24.676,24.676,0,0,1-.433,4.64,35.428,35.428,0,0,1-3.775,7.314c-.648.756-3.766.756-3.766.756l-.055.217c1.412.55,3.363,2.269,4.666.476a.131.131,0,0,1,.063-.055,23.857,23.857,0,0,1-.917,3.658,11.974,11.974,0,0,1-2.292,2.479,9.971,9.971,0,0,0-2.427-1.58c.233.659.771,1.177,1.178,2.13.061.141.12.269.179.383-.194.165-.313.262-.313.262s1.434,2.614.472,3.934c-1.1-1.542-2.821-3.975-3.456-4.9l-.081-.14a13.324,13.324,0,0,1-3.991,1.947c-1.789.352-6.493.666-6.493.666a5.779,5.779,0,0,1-3.271,1.476s-16.149-.905-17.564-1.082-4.949-.529-8.858-1.238-6.23-.353-8.174-1.061c-.592-.215-1.333-.463-2.079-.7l.088-.21s.131-5.98.312-7.329Z" transform="translate(-592.594 -455.339)" fill="#8d8d8d"/>
    <path id="Path_33939" data-name="Path 33939" d="M633.154,568.225l-.355.4,1.063,1.782-.753.354-11.349-13.882.177-.384-.1.082,0-.015.808-.708,2.25,2.65c.05-.314.543-.765.788-.642s3.737,4.25,3.737,4.25.573,0,.7.247a1.331,1.331,0,0,1,.021.7l.861,1,1.1-.8a.594.594,0,0,0,.205-.429c0-.267-.738-1.066-.738-1.066l.1-.39.016.006-.021.014,1.121,1.4a.874.874,0,0,1,.12.76,3.179,3.179,0,0,1-.449.682l-.03,0-1.085,1.074,1.455,1.639a.4.4,0,0,1,0,.307.739.739,0,0,1-.222.294l.569.67Z" transform="translate(-490.871 -444.03)" fill="#2b2a29"/>
    <path id="Path_33940" data-name="Path 33940" d="M614.77,564.054a4.561,4.561,0,0,0,1.555.588l.251.764h-.012v0a.916.916,0,0,1-.225,0,4.958,4.958,0,0,1-1.615-.518l.092.221a.868.868,0,0,1,.076.351h0c-.02.289-.181.357-.53.282-.477-.146-1.332-.355-2.013-.516l.126.212a.893.893,0,0,1,.137.6v.025a.417.417,0,0,1-.143.193l0,0a.479.479,0,0,1-.148.057.807.807,0,0,1-.241-.007.487.487,0,0,1-.089-.038l-.354-.1c-.431-.118-.9-.26-1.359-.374.272.2.549.4.825.6a.445.445,0,0,1,.215.368.369.369,0,0,1-.115.227l-.005,0h0a.4.4,0,0,1-.142.068h-.011a.771.771,0,0,1-.271,0h0l-.362-.037a.381.381,0,0,1-.438.522,11.845,11.845,0,0,1-1.261-.393,2.716,2.716,0,0,1-1.1-.649,1.728,1.728,0,0,1-.931-.577.375.375,0,1,1,.6-.447l.108.109.069.041a6.6,6.6,0,0,0,1.7.457l.355.059c-.228-.179-.791-.573-.791-.893,0-.737,1.975-.167,2.8.085-.145-.191-.3-.372-.385-.47-.3-.34-.082-.718.363-.619,0,0,1.356.3,2.371.565l-.077-.157c-.177-.351-.348-.667-.348-.667-.237-.44.2-.791.578-.464a5.629,5.629,0,0,0,.757.522Z" transform="translate(-594.033 -392.659)" fill="#2b2a29"/>
    <path id="Path_33941" data-name="Path 33941" d="M613.272,564.013a.86.86,0,1,1,.83.634A.752.752,0,0,1,613.272,564.013Zm-6.725,1.878a.86.86,0,1,1,.83.634A.752.752,0,0,1,606.547,565.891Zm1.965-.655a.86.86,0,1,1,.83.633A.752.752,0,0,1,608.513,565.236Zm2.422-.547a.861.861,0,1,1,.83.633A.752.752,0,0,1,610.935,564.688Z" transform="translate(-594.369 -392.829)" fill="#2b2a29"/>
    <path id="Path_33942" data-name="Path 33942" d="M615.138,543.079c-.226-.1-.869.419-.483.677s2.813,1.787,3.039,2.077a1.134,1.134,0,0,0,.856.5c.33,0,.735-.078.413-.594a30.065,30.065,0,0,0-3.825-2.655Z" transform="translate(-540.031 -531.019)" fill="#2b2a29" fill-rule="evenodd"/>
</svg>
