<svg xmlns="http://www.w3.org/2000/svg" width="28.5" height="36.238" viewBox="0 0 28.5 36.238">
    <path id="Path_34885" data-name="Path 34885" d="M131.259,46.192l-1.037-1.063a4.866,4.866,0,0,1-1.162-2.856v-5.4a10.117,10.117,0,0,0-7.33-9.713c-.1-2.278-1.162-3.73-2.77-3.73s-2.672,1.452-2.77,3.73a10.118,10.118,0,0,0-7.33,9.713v6.347a.949.949,0,1,0,1.9,0V36.871a8.2,8.2,0,1,1,16.4,0v5.4a6.787,6.787,0,0,0,1.7,4.181l1.037,1.063a4.866,4.866,0,0,1,1.162,2.856v.436a1.1,1.1,0,0,1-1.1,1.1h-22a1.1,1.1,0,0,1-1.1-1.1v-.436a4.981,4.981,0,0,1,.921-2.569h10.132a.949.949,0,1,0,0-1.9H107.342a.949.949,0,0,0-.679.286,6.787,6.787,0,0,0-1.7,4.181v.436a3,3,0,0,0,3,3h4.765a6.307,6.307,0,0,0,12.47,0h4.765a3,3,0,0,0,3-3v-.436A6.788,6.788,0,0,0,131.259,46.192ZM118.124,26.807c.1-.81.385-1.481.837-1.481s.735.671.837,1.481c-.276-.023-.555-.035-.837-.035S118.4,26.784,118.124,26.807Zm.837,30.461a4.416,4.416,0,0,1-4.305-3.459h8.61A4.415,4.415,0,0,1,118.961,57.267Z" transform="translate(-104.711 -23.178)" fill="#393185" stroke="#393185" stroke-width="0.5"/>
</svg>
