<svg xmlns="http://www.w3.org/2000/svg" width="32" height="32.549" viewBox="0 0 32 32.549">
    <path id="noun-compare-4636548" d="M124.562,31.133a1.143,1.143,0,0,1,0,1.616l-2.886,2.9h2.342c1.239,0,2.238,0,3.047.066a5.86,5.86,0,0,1,2.242.557,5.715,5.715,0,0,1,2.5,2.5,5.858,5.858,0,0,1,.557,2.241c.066.809.066,1.808.066,3.047V51.76a5.714,5.714,0,1,1-2.286,0V44.1c0-1.3,0-2.2-.058-2.909a3.65,3.65,0,0,0-.315-1.39,3.426,3.426,0,0,0-1.5-1.5,3.65,3.65,0,0,0-1.39-.315c-.705-.058-1.61-.058-2.909-.058h-2.293l2.886,2.9a1.143,1.143,0,1,1-1.619,1.614l-3.224-3.235a3.427,3.427,0,0,1-.992-2.235,1.152,1.152,0,0,1,0-.365,3.428,3.428,0,0,1,.992-2.235l3.224-3.235a1.143,1.143,0,0,1,1.616,0Zm6.723,22.8a3.429,3.429,0,1,0,3.431,3.429,3.429,3.429,0,0,0-3.431-3.429ZM114.143,36.788a3.428,3.428,0,0,1-3.426,3.429h0a3.429,3.429,0,1,1,3.429-3.429Zm2.286,0a5.716,5.716,0,0,1-4.571,5.6v7.657c0,1.3,0,2.2.058,2.909a3.65,3.65,0,0,0,.315,1.39,3.426,3.426,0,0,0,1.5,1.5,3.65,3.65,0,0,0,1.39.315c.705.057,1.61.058,2.909.058h2.293l-2.886-2.9a1.143,1.143,0,0,1,1.619-1.614l3.224,3.235a3.427,3.427,0,0,1,.992,2.235,1.152,1.152,0,0,1,0,.365,3.428,3.428,0,0,1-.992,2.235l-3.224,3.235a1.143,1.143,0,0,1-1.619-1.613l2.886-2.9H117.98c-1.239,0-2.238,0-3.047-.066a5.858,5.858,0,0,1-2.241-.557,5.714,5.714,0,0,1-2.5-2.5,5.86,5.86,0,0,1-.557-2.242c-.066-.809-.066-1.808-.066-3.047V42.388a5.715,5.715,0,1,1,6.857-5.6Z" transform="translate(-105 -30.8)" fill="#393185" fill-rule="evenodd"/>
</svg>
