<svg xmlns="http://www.w3.org/2000/svg" width="32" height="32" viewBox="0 0 32 32">
    <path id="Path_35147" data-name="Path 35147" d="M5.872,10.128a5.855,5.855,0,0,1,4.68,2.337l9.916-5.053a5.865,5.865,0,1,1,.846,1.814l-9.84,5.014a5.892,5.892,0,0,1,0,3.52l9.84,5.014a5.95,5.95,0,1,1-.846,1.814l-9.916-5.053a5.869,5.869,0,1,1-4.68-9.406Zm20.257-.385a3.872,3.872,0,1,0-3.872-3.872A3.876,3.876,0,0,0,26.128,9.743Zm0,20.257a3.872,3.872,0,1,0-3.872-3.872A3.876,3.876,0,0,0,26.128,30ZM5.872,19.872A3.872,3.872,0,1,0,2,16,3.876,3.876,0,0,0,5.872,19.872Z" transform="translate(0)" fill="#393185"/>
</svg>
