<svg xmlns="http://www.w3.org/2000/svg" width="410.359" height="67" viewBox="0 0 410.359 67">
    <g id="BG_XD_Export" data-name="BG XD Export" transform="translate(1.253 -440.183)">
        <rect id="Rectangle_253" data-name="Rectangle 253" width="409.253" height="65.464" transform="translate(-0.699 440.183)" fill="#ebecec"/>
        <g id="Path_33626" data-name="Path 33626" transform="translate(-0.699 -1.278)" fill="#898989" stroke-miterlimit="22.926">
            <path d="M 409.1030578613281 506.3433837890625 L 0.1500021666288376 506.3433837890625 L 0.1500021666288376 484.2571411132812 L 14.74580192565918 484.2571411132812 L 14.89580249786377 484.2571411132812 L 14.89580249786377 484.1071472167969 L 14.89580249786377 478.7516479492188 L 17.51100158691406 478.7516479492188 L 17.66100311279297 478.7516479492188 L 17.66100311279297 478.6016540527344 L 17.66100311279297 470.2525634765625 L 30.55835151672363 466.8390502929688 L 30.55835151672363 477.9248962402344 L 30.55835151672363 478.0748901367188 L 30.70835304260254 478.0748901367188 L 33.32005310058594 478.0748901367188 L 33.32005310058594 484.5745849609375 L 33.32005310058594 484.7245788574219 L 33.47005081176758 484.7245788574219 L 43.24810028076172 484.7245788574219 L 43.39810180664062 484.7245788574219 L 43.39810180664062 484.5745849609375 L 43.39810180664062 476.9014282226562 L 46.00980377197266 476.9014282226562 L 46.1598014831543 476.9014282226562 L 46.1598014831543 476.7514343261719 L 46.1598014831543 474.5531005859375 L 49.77985382080078 474.5531005859375 L 49.92985153198242 474.5531005859375 L 49.92985153198242 474.403076171875 L 49.92985153198242 465.7106323242188 L 59.76045227050781 465.7106323242188 L 59.76045227050781 474.403076171875 L 59.76045227050781 474.5531005859375 L 59.91045379638672 474.5531005859375 L 63.2306022644043 474.5531005859375 L 63.2306022644043 476.7514343261719 L 63.2306022644043 476.9014282226562 L 63.3806037902832 476.9014282226562 L 65.989501953125 476.9014282226562 L 65.989501953125 480.8524475097656 L 65.989501953125 481.00244140625 L 66.13950347900391 481.00244140625 L 68.58395385742188 481.00244140625 L 68.73395538330078 481.00244140625 L 68.73395538330078 480.8524475097656 L 68.73395538330078 473.0680847167969 L 72.16260528564453 473.0680847167969 L 72.31259918212891 473.0680847167969 L 72.31259918212891 472.9180908203125 L 72.31259918212891 459.5950927734375 L 85.69205474853516 459.5144653320312 L 85.69205474853516 475.6250915527344 L 85.69205474853516 488.7384948730469 L 85.69205474853516 488.8884887695312 L 85.84204864501953 488.8884887695312 L 93.40444946289062 488.8884887695312 L 93.55445098876953 488.8884887695312 L 93.55445098876953 488.7384948730469 L 93.55445098876953 469.5064697265625 L 114.5289611816406 471.3723449707031 L 114.8830490112305 480.6142883300781 L 114.8886032104492 480.758544921875 L 115.0329513549805 480.758544921875 L 120.1816558837891 480.758544921875 L 120.3316497802734 480.758544921875 L 120.3316497802734 480.6085510253906 L 120.3316497802734 463.1315307617188 L 120.3316497802734 463.0032043457031 L 120.2048492431641 462.9833374023438 C 119.9779052734375 462.9477844238281 119.8818054199219 462.8558959960938 119.8818054199219 462.8252868652344 C 119.8818054199219 462.7720336914062 120.0647506713867 462.65087890625 120.3660507202148 462.65087890625 L 124.0313034057617 462.65087890625 L 124.1813049316406 462.65087890625 L 124.1813049316406 462.5008850097656 L 124.1813049316406 459.2536010742188 L 124.1813049316406 459.1035766601562 L 124.0313034057617 459.1035766601562 L 123.8170013427734 459.1035766601562 C 123.6221084594727 459.1035766601562 123.5050888061523 459.0370483398438 123.4814300537109 459.0042114257812 C 123.5050582885742 458.9713745117188 123.6219940185547 458.9048461914062 123.8170013427734 458.9048461914062 L 127.0528030395508 458.9048461914062 L 127.2028045654297 458.9048461914062 L 127.2028045654297 458.7548522949219 L 127.2028045654297 455.4083251953125 C 127.2258529663086 455.3912963867188 127.2917861938477 455.3619384765625 127.3968505859375 455.3619384765625 L 131.3732452392578 455.3619384765625 L 131.495849609375 455.3619384765625 L 131.6458587646484 455.3619384765625 L 135.6233978271484 455.3619384765625 C 135.7284240722656 455.3619384765625 135.7945404052734 455.3914489746094 135.8177490234375 455.4085388183594 L 135.8177490234375 458.7548522949219 L 135.8177490234375 458.9048461914062 L 135.9677581787109 458.9048461914062 L 139.2032470703125 458.9048461914062 C 139.3995666503906 458.9048461914062 139.5172424316406 458.9713745117188 139.5410461425781 459.0042419433594 C 139.5172119140625 459.0370788574219 139.3994598388672 459.1035766601562 139.2032470703125 459.1035766601562 L 138.9881591796875 459.1035766601562 L 138.8381500244141 459.1035766601562 L 138.8381500244141 459.2536010742188 L 138.8381500244141 462.5008850097656 L 138.8381500244141 462.65087890625 L 138.9881591796875 462.65087890625 L 142.6533508300781 462.65087890625 C 142.9544982910156 462.65087890625 143.1373596191406 462.7720336914062 143.1373596191406 462.8252868652344 C 143.1373596191406 462.8699951171875 142.9822540283203 462.9849548339844 142.6947021484375 462.99560546875 L 142.5502471923828 463.0009460449219 L 142.5502471923828 463.1454772949219 L 142.5502471923828 468.9405822753906 L 142.5502471923828 469.090576171875 L 142.7002563476562 469.090576171875 L 143.6623992919922 469.090576171875 L 144.6985015869141 469.090576171875 L 145.633056640625 469.090576171875 L 149.7756958007812 469.090576171875 L 149.9257049560547 469.090576171875 L 149.9257049560547 468.9405822753906 L 149.9257049560547 464.3059997558594 L 165.9627075195312 464.3059997558594 L 165.9627075195312 470.6324768066406 L 165.9627075195312 470.7825012207031 L 166.1127014160156 470.7825012207031 L 167.5930480957031 470.7825012207031 L 168.5127563476562 470.7825012207031 L 169.7919006347656 470.7825012207031 L 169.9419097900391 470.7825012207031 L 169.9419097900391 470.6324768066406 L 169.9419097900391 462.0498962402344 L 191.6016540527344 462.0498962402344 L 191.6016540527344 474.96240234375 L 191.6016540527344 475.1123962402344 L 191.7516479492188 475.1123962402344 L 193.2621002197266 475.1123962402344 L 193.4071044921875 475.1123962402344 L 193.4120025634766 474.9674987792969 L 193.9609069824219 458.8172302246094 L 193.9609985351562 458.814697265625 L 193.9609985351562 458.8121337890625 C 193.9609985351562 458.0870361328125 194.4808044433594 457.3766479492188 195.4246520996094 456.8118896484375 C 196.3845977783203 456.2374877929688 197.7158508300781 455.8509521484375 199.1730499267578 455.7234497070312 L 199.3099975585938 455.71142578125 L 199.3099975585938 455.5740051269531 L 199.3099975585938 453.4424438476562 L 202.3538970947266 453.4424438476562 L 202.50390625 453.4424438476562 L 202.50390625 453.2924499511719 L 202.50390625 450.8011474609375 L 205.5012512207031 450.8011474609375 L 205.6512451171875 450.8011474609375 L 205.6512451171875 450.6511535644531 L 205.6512451171875 448.4526977539062 L 205.7837982177734 448.4526977539062 L 205.7837982177734 450.6511535644531 L 205.7837982177734 450.8011474609375 L 205.9338073730469 450.8011474609375 L 208.9342041015625 450.8011474609375 L 208.9342041015625 453.2924499511719 L 208.9342041015625 453.4424438476562 L 209.0841979980469 453.4424438476562 L 212.1251525878906 453.4424438476562 L 212.1251525878906 455.5740051269531 L 212.1251525878906 455.71142578125 L 212.2621002197266 455.7234497070312 C 213.720458984375 455.8508911132812 215.0523071289062 456.2374267578125 216.01220703125 456.8118896484375 C 216.9556579589844 457.3764953613281 217.4752502441406 458.0868530273438 217.4752502441406 458.8121337890625 L 217.4752502441406 469.0778503417969 L 217.4752502441406 469.2278442382812 L 217.6252593994141 469.2278442382812 L 218.3106536865234 469.2278442382812 L 218.4606475830078 469.2278442382812 L 218.4606475830078 469.0778503417969 L 218.4606475830078 466.8165893554688 C 218.4606475830078 466.2565002441406 218.904296875 465.7216491699219 219.7099456787109 465.3105773925781 C 220.5477447509766 464.8831481933594 221.6651000976562 464.6477355957031 222.8562469482422 464.6477355957031 L 230.2174530029297 464.6477355957031 C 231.407958984375 464.6477355957031 232.52490234375 464.8831481933594 233.362548828125 465.3105773925781 C 234.1680450439453 465.7216796875 234.6117095947266 466.2565307617188 234.6117095947266 466.8165893554688 L 234.6117095947266 469.0778503417969 L 234.6117095947266 469.2278442382812 L 234.7617034912109 469.2278442382812 L 241.6862945556641 469.2278442382812 L 241.6862945556641 475.7811279296875 L 241.6862945556641 475.93115234375 L 241.8363037109375 475.93115234375 L 243.650146484375 475.93115234375 L 243.8001556396484 475.93115234375 L 243.8001556396484 475.7811279296875 L 243.8001556396484 472.3610534667969 C 244.2476043701172 470.5911865234375 244.9108734130859 470.5507507324219 246.3583984375 470.4626770019531 C 246.5921020507812 470.448486328125 246.8337554931641 470.4337768554688 247.0993957519531 470.4104919433594 L 247.2362976074219 470.3984375 L 247.2362976074219 470.2610473632812 L 247.2362976074219 461.9178771972656 L 249.86474609375 461.9178771972656 L 249.9414520263672 461.9178771972656 L 249.9863586425781 461.8556823730469 L 251.2554473876953 460.0980529785156 L 258.2901916503906 460.0980529785156 L 259.9380493164062 461.8700256347656 L 259.9825439453125 461.9178771972656 L 260.0479125976562 461.9178771972656 L 262.8683471679688 461.9178771972656 L 262.8683471679688 465.5651550292969 L 262.8683471679688 465.7151489257812 L 263.0183410644531 465.7151489257812 L 264.1650085449219 465.7151489257812 L 264.3150024414062 465.7151489257812 L 264.3150024414062 465.5651550292969 L 264.3150024414062 455.1932983398438 L 265.7745056152344 455.1932983398438 L 265.9244995117188 455.1932983398438 L 265.9244995117188 455.0433044433594 L 265.9244995117188 452.8997802734375 L 269.3403930664062 452.8997802734375 L 269.4903869628906 452.8997802734375 L 269.4903869628906 452.7497863769531 L 269.4903869628906 450.8377990722656 C 269.4903869628906 450.3069458007812 270.4071655273438 449.2256469726562 271.4709167480469 449.2256469726562 L 281.7098999023438 449.2256469726562 C 282.77294921875 449.2256469726562 283.6890563964844 450.3069458007812 283.6890563964844 450.8377990722656 L 283.6890563964844 452.7497863769531 L 283.6890563964844 452.8997802734375 L 283.8390502929688 452.8997802734375 L 287.2551879882812 452.8997802734375 L 287.2551879882812 455.0433044433594 L 287.2551879882812 455.1932983398438 L 287.4052124023438 455.1932983398438 L 288.8624877929688 455.1932983398438 L 288.8624877929688 458.8213806152344 L 288.8624877929688 458.9714050292969 L 289.0125122070312 458.9714050292969 L 292.2780151367188 458.9714050292969 L 292.2780151367188 462.1207885742188 L 292.2780151367188 462.2707824707031 L 292.4280090332031 462.2707824707031 L 294.4985656738281 462.2707824707031 L 294.6485595703125 462.2707824707031 L 294.6485595703125 462.1207885742188 L 294.6485595703125 460.21484375 L 297.2304077148438 460.21484375 L 297.3804016113281 460.21484375 L 297.3804016113281 460.0648498535156 L 297.3804016113281 457.517578125 L 309.2746887207031 457.517578125 L 309.2746887207031 460.0648498535156 L 309.2746887207031 460.21484375 L 309.4247131347656 460.21484375 L 310.683837890625 460.21484375 L 310.683837890625 462.1207885742188 L 310.683837890625 462.2707824707031 L 310.8338623046875 462.2707824707031 L 311.7023620605469 462.2707824707031 L 311.7023620605469 467.4846496582031 L 311.7023620605469 467.6346435546875 L 311.8523559570312 467.6346435546875 L 312.6588439941406 467.6346435546875 L 312.808837890625 467.6346435546875 L 312.808837890625 467.4846496582031 L 312.808837890625 462.2707824707031 L 313.5936584472656 462.2707824707031 L 313.74365234375 462.2707824707031 L 313.74365234375 462.1207885742188 L 313.74365234375 458.9714050292969 L 325.3302612304688 458.9714050292969 L 325.4802551269531 458.9714050292969 L 325.4802551269531 458.8213806152344 L 325.4802551269531 458.2424926757812 L 328.4005126953125 458.2424926757812 L 328.4005126953125 458.8213806152344 L 328.4005126953125 458.9714050292969 L 328.5505065917969 458.9714050292969 L 333.2892456054688 458.9714050292969 L 333.2892456054688 473.0833435058594 L 333.2892456054688 473.2333374023438 L 333.4392395019531 473.2333374023438 L 340.0527038574219 473.2333374023438 L 340.2026977539062 473.2333374023438 L 340.2026977539062 473.0833435058594 L 340.2026977539062 452.5382385253906 L 342.3547668457031 452.5382385253906 L 342.5047607421875 452.5382385253906 L 342.5047607421875 452.3882446289062 L 342.5047607421875 451.6001281738281 L 344.3081665039062 451.6001281738281 L 344.4581604003906 451.6001281738281 L 344.4581604003906 451.4501342773438 L 344.4581604003906 451.0711059570312 L 352.4786071777344 451.0711059570312 L 352.6286010742188 451.0711059570312 L 352.6286010742188 450.9210815429688 L 352.6286010742188 450.4259948730469 L 355.3171081542969 450.4259948730469 L 355.3171081542969 450.9210815429688 L 355.3171081542969 451.0711059570312 L 355.4671020507812 451.0711059570312 L 361.33544921875 451.0711059570312 L 361.4854431152344 451.0711059570312 L 361.4854431152344 450.9210815429688 L 361.4854431152344 450.4259948730469 L 364.9247131347656 450.4259948730469 L 364.9247131347656 450.9210815429688 L 364.9247131347656 451.0711059570312 L 365.07470703125 451.0711059570312 L 366.4761657714844 451.0711059570312 L 366.4761657714844 451.4501342773438 L 366.4761657714844 451.6001281738281 L 366.6261596679688 451.6001281738281 L 367.3970642089844 451.6001281738281 L 367.3970642089844 452.3882446289062 L 367.3970642089844 452.5382385253906 L 367.5470581054688 452.5382385253906 L 368.6611022949219 452.5382385253906 L 368.6611022949219 465.7718811035156 L 368.6611022949219 465.9219055175781 L 368.8110961914062 465.9219055175781 L 388.29541015625 465.9219055175781 L 388.29541015625 478.9592895507812 L 388.29541015625 479.1092834472656 L 388.4454040527344 479.1092834472656 L 390.4656982421875 479.1092834472656 L 390.6156921386719 479.1092834472656 L 390.6156921386719 478.9592895507812 L 390.6156921386719 470.5070495605469 L 409.1030578613281 470.5070495605469 L 409.1030578613281 506.3433837890625 Z" stroke="none"/>
            <path d="M 408.9530334472656 506.1934204101562 L 408.9530334472656 470.6570434570312 L 390.7657165527344 470.6570434570312 L 390.7657165527344 479.2593078613281 L 388.1453857421875 479.2593078613281 L 388.1453857421875 466.0719299316406 L 368.5111389160156 466.0719299316406 L 368.5111389160156 452.6882629394531 L 367.2470703125 452.6882629394531 L 367.2470703125 451.7501525878906 L 366.326171875 451.7501525878906 L 366.326171875 451.2210998535156 L 364.7747192382812 451.2210998535156 L 364.7747192382812 450.5759887695312 L 361.6354370117188 450.5759887695312 L 361.6354370117188 451.2210998535156 L 355.1670837402344 451.2210998535156 L 355.1670837402344 450.5759887695312 L 352.7785949707031 450.5759887695312 L 352.7785949707031 451.2210998535156 L 344.6081848144531 451.2210998535156 L 344.6081848144531 451.7501525878906 L 342.6547546386719 451.7501525878906 L 342.6547546386719 452.6882629394531 L 340.3527221679688 452.6882629394531 L 340.3527221679688 473.3833618164062 L 333.1392822265625 473.3833618164062 L 333.1392822265625 459.1213989257812 L 328.25048828125 459.1213989257812 L 328.25048828125 458.3925170898438 L 325.6302795410156 458.3925170898438 L 325.6302795410156 459.1213989257812 L 313.8936462402344 459.1213989257812 L 313.8936462402344 462.4207763671875 L 312.9588623046875 462.4207763671875 L 312.9588623046875 467.78466796875 L 311.5523376464844 467.78466796875 L 311.5523376464844 462.4207763671875 L 310.5338745117188 462.4207763671875 L 310.5338745117188 460.3648376464844 L 309.1246948242188 460.3648376464844 L 309.1246948242188 457.6676330566406 L 297.5303955078125 457.6676330566406 L 297.5303955078125 460.3648376464844 L 294.7985534667969 460.3648376464844 L 294.7985534667969 462.4207763671875 L 292.1280212402344 462.4207763671875 L 292.1280212402344 459.1213989257812 L 288.7124938964844 459.1213989257812 L 288.7124938964844 455.3432922363281 L 287.105224609375 455.3432922363281 L 287.105224609375 453.0497741699219 L 283.5390625 453.0497741699219 L 283.5390625 450.8377685546875 C 283.5390625 450.4256286621094 282.7279663085938 449.3756713867188 281.7099304199219 449.3756713867188 L 271.4709167480469 449.3756713867188 C 270.4521179199219 449.3756713867188 269.6404418945312 450.4256286621094 269.6404418945312 450.8377685546875 L 269.6404418945312 453.0497741699219 L 266.0744934082031 453.0497741699219 L 266.0744934082031 455.3432922363281 L 264.4649658203125 455.3432922363281 L 264.4649658203125 465.8651428222656 L 262.7183837890625 465.8651428222656 L 262.7183837890625 462.0679321289062 L 259.917236328125 462.0679321289062 L 258.224853515625 460.248046875 L 251.3321685791016 460.248046875 L 250.0181274414062 462.0679321289062 L 247.3862915039062 462.0679321289062 L 247.3862915039062 470.535888671875 L 247.1125030517578 470.5598754882812 C 246.8448638916016 470.5834045410156 246.6022338867188 470.59814453125 246.3675994873047 470.6123962402344 C 245.6631774902344 470.6552429199219 245.1542358398438 470.6861877441406 244.7841339111328 470.9080505371094 C 244.4107818603516 471.1318054199219 244.1529235839844 471.5864562988281 243.9501342773438 472.3797912597656 L 243.9501342773438 476.0811462402344 L 241.5362854003906 476.0811462402344 L 241.5362854003906 469.3778381347656 L 234.4617004394531 469.3778381347656 L 234.4617004394531 466.8165588378906 C 234.4617004394531 465.7222595214844 232.5180816650391 464.7977294921875 230.2174377441406 464.7977294921875 L 222.8562316894531 464.7977294921875 C 220.5549163818359 464.7977294921875 218.6106567382812 465.7222595214844 218.6106567382812 466.8165588378906 L 218.6106567382812 469.3778381347656 L 217.3252410888672 469.3778381347656 L 217.3252410888672 458.8121337890625 C 217.3252410888672 457.389404296875 215.1429138183594 456.1257629394531 212.2490234375 455.8728332519531 L 211.9751281738281 455.8489379882812 L 211.9751281738281 453.5924072265625 L 208.7842407226562 453.5924072265625 L 208.7842407226562 450.9511413574219 L 202.6539154052734 450.9511413574219 L 202.6539154052734 453.5924072265625 L 199.4600219726562 453.5924072265625 L 199.4600219726562 455.848876953125 L 199.1861877441406 455.8728332519531 C 196.2928161621094 456.1259765625 194.1109771728516 457.3896179199219 194.1109771728516 458.8121337890625 L 194.1108093261719 458.8223571777344 L 193.5521240234375 475.2623596191406 L 191.45166015625 475.2623596191406 L 191.45166015625 462.1998901367188 L 170.0919189453125 462.1998901367188 L 170.0919189453125 470.9324645996094 L 165.8127136230469 470.9324645996094 L 165.8127136230469 464.4559936523438 L 150.0757141113281 464.4559936523438 L 150.0757141113281 469.2405700683594 L 142.4002380371094 469.2405700683594 L 142.4002380371094 462.8564147949219 L 142.6891326904297 462.8457336425781 C 142.7531585693359 462.8433532714844 142.8084564208984 462.8348999023438 142.8542938232422 462.8237915039062 C 142.8003845214844 462.810546875 142.7330627441406 462.8008728027344 142.6533355712891 462.8008728027344 L 138.6881256103516 462.8008728027344 L 138.6881256103516 459.0548400878906 L 135.6677093505859 459.0548400878906 L 135.6677093505859 455.5145874023438 C 135.6546936035156 455.5129699707031 135.6398773193359 455.5119323730469 135.6233978271484 455.5119323730469 L 127.3968658447266 455.5119323730469 C 127.3804779052734 455.5119323730469 127.3657531738281 455.512939453125 127.3528137207031 455.5145263671875 L 127.3528137207031 459.0548400878906 L 124.3313369750977 459.0548400878906 L 124.3313369750977 462.8008728027344 L 120.3660202026367 462.8008728027344 C 120.2877349853516 462.8008728027344 120.2213287353516 462.810302734375 120.1678085327148 462.8233337402344 C 120.1863403320312 462.8277893066406 120.2064361572266 462.8318176269531 120.2280731201172 462.835205078125 L 120.4816513061523 462.8749389648438 L 120.4816513061523 480.9085083007812 L 114.7442321777344 480.9085083007812 L 114.3841400146484 471.5100708007812 L 93.70444488525391 469.6704711914062 L 93.70444488525391 489.0385131835938 L 85.54202270507812 489.0385131835938 L 85.54202270507812 459.6653747558594 L 72.46260070800781 459.7442321777344 L 72.46260070800781 473.2180786132812 L 68.88397216796875 473.2180786132812 L 68.88397216796875 481.1524047851562 L 65.83950042724609 481.1524047851562 L 65.83950042724609 477.0514221191406 L 63.08060073852539 477.0514221191406 L 63.08060073852539 474.7030944824219 L 59.61044311523438 474.7030944824219 L 59.61044311523438 465.8606262207031 L 50.07986450195312 465.8606262207031 L 50.07986450195312 474.7030944824219 L 46.309814453125 474.7030944824219 L 46.309814453125 477.0514221191406 L 43.54807662963867 477.0514221191406 L 43.54807662963867 484.8745727539062 L 33.17007446289062 484.8745727539062 L 33.17007446289062 478.2248840332031 L 30.40839195251465 478.2248840332031 L 30.40839195251465 467.0339050292969 L 17.8110237121582 470.3680114746094 L 17.8110237121582 478.9016723632812 L 15.04581260681152 478.9016723632812 L 15.04581260681152 484.4071044921875 L 0.300023227930069 484.4071044921875 L 0.300023227930069 506.1934204101562 L 408.9530334472656 506.1934204101562 M 409.2532348632812 506.493408203125 L 2.322548243682832e-05 506.493408203125 L 2.322548243682832e-05 484.1070861816406 L 14.74581241607666 484.1070861816406 L 14.74581241607666 478.6016845703125 L 17.51102256774902 478.6016845703125 L 17.51102256774902 470.1370849609375 L 30.7083911895752 466.6441955566406 L 30.7083911895752 477.9248962402344 L 33.47007751464844 477.9248962402344 L 33.47007751464844 484.5745544433594 L 43.24807739257812 484.5745544433594 L 43.24807739257812 476.7514038085938 L 46.00981140136719 476.7514038085938 L 46.00981140136719 474.4031066894531 L 49.77986526489258 474.4031066894531 L 49.77986526489258 465.5606079101562 L 59.91044616699219 465.5606079101562 L 59.91044616699219 474.4031066894531 L 63.3806037902832 474.4031066894531 L 63.3806037902832 476.7514038085938 L 66.13949584960938 476.7514038085938 L 66.13949584960938 480.8524169921875 L 68.58396911621094 480.8524169921875 L 68.58396911621094 472.9180908203125 L 72.16260528564453 472.9180908203125 L 72.16260528564453 459.446044921875 L 85.84202575683594 459.3635559082031 L 85.84202575683594 488.738525390625 L 93.40444183349609 488.738525390625 L 93.40444183349609 469.3425598144531 L 114.6738128662109 471.234619140625 L 115.0329742431641 480.6085205078125 L 120.1816558837891 480.6085205078125 L 120.1816558837891 463.1315612792969 C 119.9226531982422 463.0909729003906 119.7318115234375 462.9695739746094 119.7318115234375 462.8253173828125 C 119.7318115234375 462.6468200683594 120.0186538696289 462.5008850097656 120.3660202026367 462.5008850097656 L 124.0313415527344 462.5008850097656 L 124.0313415527344 459.2536315917969 L 123.817024230957 459.2536315917969 C 123.5493927001953 459.2536315917969 123.328971862793 459.1420288085938 123.328971862793 459.0042419433594 C 123.328971862793 458.8663635253906 123.5493927001953 458.7548217773438 123.817024230957 458.7548217773438 L 127.0528106689453 458.7548217773438 L 127.0528106689453 455.387451171875 C 127.0528106689453 455.2910461425781 127.2062835693359 455.2119445800781 127.3968658447266 455.2119445800781 L 131.373291015625 455.2119445800781 L 131.373291015625 451.3244018554688 L 131.6458587646484 451.3244018554688 L 131.6458587646484 455.2119445800781 L 135.6233978271484 455.2119445800781 C 135.8131256103516 455.2119445800781 135.9677124023438 455.2910461425781 135.9677124023438 455.387451171875 L 135.9677124023438 458.7548217773438 L 139.2032318115234 458.7548217773438 C 139.4730682373047 458.7548217773438 139.6935424804688 458.8663635253906 139.6935424804688 459.0042419433594 C 139.6935424804688 459.1420288085938 139.4730682373047 459.2536315917969 139.2032318115234 459.2536315917969 L 138.9881286621094 459.2536315917969 L 138.9881286621094 462.5008850097656 L 142.6533355712891 462.5008850097656 C 143.0038604736328 462.5008850097656 143.2873382568359 462.6468200683594 143.2873382568359 462.8253173828125 C 143.2873382568359 462.993896484375 143.0261840820312 463.1334533691406 142.7002410888672 463.1455078125 L 142.7002410888672 468.9405822753906 L 149.7757110595703 468.9405822753906 L 149.7757110595703 464.1559753417969 L 166.1127014160156 464.1559753417969 L 166.1127014160156 470.6324768066406 L 169.7919158935547 470.6324768066406 L 169.7919158935547 461.8998718261719 L 191.7516479492188 461.8998718261719 L 191.7516479492188 474.9623413085938 L 193.2621307373047 474.9623413085938 L 193.8109741210938 458.8121337890625 C 193.8109741210938 457.1869506835938 196.1256561279297 455.8394470214844 199.1600189208984 455.573974609375 L 199.1600189208984 453.2924194335938 L 202.3539123535156 453.2924194335938 L 202.3539123535156 450.6511535644531 L 205.5012817382812 450.6511535644531 L 205.5012817382812 448.3026733398438 L 205.9338073730469 448.3026733398438 L 205.9338073730469 450.6511535644531 L 209.084228515625 450.6511535644531 L 209.084228515625 453.2924194335938 L 212.2751312255859 453.2924194335938 L 212.2751312255859 455.573974609375 C 215.3125457763672 455.8394470214844 217.6252288818359 457.1869506835938 217.6252288818359 458.8121337890625 L 217.6252288818359 469.0778198242188 L 218.3106536865234 469.0778198242188 L 218.3106536865234 466.8165588378906 C 218.3106536865234 465.5361328125 220.3450775146484 464.4977111816406 222.8562316894531 464.4977111816406 L 230.2174377441406 464.4977111816406 C 232.7271881103516 464.4977111816406 234.7617034912109 465.5361328125 234.7617034912109 466.8165588378906 L 234.7617034912109 469.0778198242188 L 241.8362884521484 469.0778198242188 L 241.8362884521484 475.7811584472656 L 243.6501312255859 475.7811584472656 L 243.6501312255859 472.342529296875 C 244.1983947753906 470.1524047851562 245.1348724365234 470.4323425292969 247.0862884521484 470.2610473632812 L 247.0862884521484 461.7679443359375 L 249.8647003173828 461.7679443359375 L 251.1787567138672 459.9480285644531 L 258.3555603027344 459.9480285644531 L 260.0479125976562 461.7679443359375 L 263.0184020996094 461.7679443359375 L 263.0184020996094 465.5651550292969 L 264.1649780273438 465.5651550292969 L 264.1649780273438 455.0433044433594 L 265.7745056152344 455.0433044433594 L 265.7745056152344 452.7497863769531 L 269.3404541015625 452.7497863769531 L 269.3404541015625 450.8377685546875 C 269.3404541015625 450.2383422851562 270.294189453125 449.07568359375 271.4709167480469 449.07568359375 L 281.7099304199219 449.07568359375 C 282.8847045898438 449.07568359375 283.8390808105469 450.2383422851562 283.8390808105469 450.8377685546875 L 283.8390808105469 452.7497863769531 L 287.4052429199219 452.7497863769531 L 287.4052429199219 455.0433044433594 L 289.0124816894531 455.0433044433594 L 289.0124816894531 458.8214111328125 L 292.4280090332031 458.8214111328125 L 292.4280090332031 462.1207885742188 L 294.49853515625 462.1207885742188 L 294.49853515625 460.0648193359375 L 297.2303771972656 460.0648193359375 L 297.2303771972656 457.3676147460938 L 309.4247131347656 457.3676147460938 L 309.4247131347656 460.0648193359375 L 310.8338623046875 460.0648193359375 L 310.8338623046875 462.1207885742188 L 311.8523254394531 462.1207885742188 L 311.8523254394531 467.4846801757812 L 312.6588745117188 467.4846801757812 L 312.6588745117188 462.1207885742188 L 313.5936584472656 462.1207885742188 L 313.5936584472656 458.8214111328125 L 325.3302917480469 458.8214111328125 L 325.3302917480469 458.092529296875 L 328.5505065917969 458.092529296875 L 328.5505065917969 458.8214111328125 L 333.4393005371094 458.8214111328125 L 333.4393005371094 473.0833435058594 L 340.0527038574219 473.0833435058594 L 340.0527038574219 452.3882446289062 L 342.3547668457031 452.3882446289062 L 342.3547668457031 451.4501342773438 L 344.3081665039062 451.4501342773438 L 344.3081665039062 450.9210815429688 L 352.4786071777344 450.9210815429688 L 352.4786071777344 450.2760009765625 L 355.4670715332031 450.2760009765625 L 355.4670715332031 450.9210815429688 L 361.33544921875 450.9210815429688 L 361.33544921875 450.2760009765625 L 365.07470703125 450.2760009765625 L 365.07470703125 450.9210815429688 L 366.6261901855469 450.9210815429688 L 366.6261901855469 451.4501342773438 L 367.5470886230469 451.4501342773438 L 367.5470886230469 452.3882446289062 L 368.8111267089844 452.3882446289062 L 368.8111267089844 465.7719421386719 L 388.4454040527344 465.7719421386719 L 388.4454040527344 478.9592895507812 L 390.4656982421875 478.9592895507812 L 390.4656982421875 470.3570556640625 L 409.2530212402344 470.3570556640625 L 409.2532348632812 506.493408203125 Z" stroke="none" fill="#000"/>
        </g>
        <path id="Path_33627" data-name="Path 33627" d="M403.078,499.056v-1.492H401.9V493.9c0-.287-.427-.523-.949-.523h-1V482.717c0-.288-.424-1.128-.949-1.128h-.5l-1.554-2.9-1.822,2.9H394.1c-.522,0-.949.84-.949,1.128v8.845h-7.138c-.05,0-.1,0-.145.008v-4.69h-9.2v6.141H372.6V475.415H371.24a4.191,4.191,0,0,0-7.121,0h-2.062v20.841h-7.829v5.659h-2.278l-.011-18.643h-9.133l-.025,21.622h-3.542l.042-11.769h-6.947V480.533l-15.56,3.071v9.41H314.4L314.32,481.1l-12.551-1.375v9.888h-3.181l.073-10.817h-2.135v-2.6h-.815v-2.6h-1.557v-3.06h-1.747L290.334,467l-1.928,3.528h-1.892v3.06h-1.28v2.6h-1.779v3.939h-1.423v3.6H275.21V472.171h-.738v-.537h-1.582v-1.366h-6.64v1.366h-1.264v.537h-1.582V486.25l-8.853.013v5.926l-2.675.018v-10.6l-4.637-2.93-4.427,2.93-.008,11.543h-5.7v-3.368c.206-.052.35-.167.35-.3,0-.181-.27-.33-.6-.33h-5.847a.931.931,0,0,0-.36.069v-4.209c.142-.023.248-.092.248-.178,0-.1-.153-.189-.342-.189h-1.492c.293-1.67-2.856-1.22-2.856-1.22a6.268,6.268,0,0,1-1.616,1.22H221.64a3.782,3.782,0,0,0-1.645-.871,4.8,4.8,0,0,0-3.484.871h-2.445c0,.155.02,9.23.02,9.23h-1.349l.079-18.189L210,474.47c.289-.17.458-.371.458-.586,0-.609-1.332-1.1-2.977-1.1s-2.978.494-2.978,1.1a.589.589,0,0,0,.238.433l-2.6,1.055V489.6l-12.252-.043v5.456l-8.564.012.074-22.216h-1.475v-2.207h-1.476V469.58h-4.1v1.027h-2v2.207h-1.9V478.5h-7.911v-2.827h.071c.314,0,.573-.142.573-.316s-.258-.316-.573-.316H160.9v-.479h-3v.479h-1.067l-.01-3.176-4.14.889v2.287h-.83v-.479h-8.971v.479h-.83v-.937l-1.616.937h-2.119c-.315,0-.573.142-.573.316,0,.153.2.281.462.31V497.02h-2.529v-9.063c.21,0,.38-.1.38-.216s-.178-.217-.4-.217h-1.08v-2.731H132.32v1.52h-2.141v-8.025h-4.045v3.9h-1.4v4.425h-.909v-1.823h-1.858v2.731h-1.106c-.217,0-.4.1-.4.217,0,.1.132.184.3.208v5.291h-6.623v-4.1h.051c.282,0,.514-.43.514-.586s-.231-.586-.514-.586h-1.119c.008-.039.013-4.317.013-4.358a2.121,2.121,0,0,0-1.957-1.683h-1.8a.434.434,0,0,0,.082-.239c0-.384-.569-.7-1.265-.7h-3.77c-.7,0-1.265.314-1.265.7a.43.43,0,0,0,.082.239H100.09a2.121,2.121,0,0,0-1.957,1.683c0,.04.005,4.318.013,4.358H96.394c-.283,0-.514.43-.514.586s.231.586.514.586h.147v4.925l-3.241,1.5v1.7l-5.27-.964v1.3H83.419l-.048-3.839H70.654V488.15l-4.77-3.368-4.519,3.368v13.8H46.083v-5.509H44.818v-.871H43.659v-1.451h-.843v-1.8h-.527v-1.525c.167,0,.3-.08.3-.173s-.142-.174-.316-.174H30.1c-.174,0-.316.079-.316.174,0,.067.071.124.173.153v3.345H28.9v1.451H27.744v.871H26.164v9.268H21.32v-2.169H18.553v-3.321c.143-.026.249-.1.249-.184,0-.108-.16-.2-.356-.2H14.283a.607.607,0,0,0-.078.009v-5.268c.146-.034.249-.114.249-.207,0-.124-.184-.225-.408-.225H12.862V489.68c.115-.031.2-.094.2-.169,0-.1-.154-.189-.342-.189H3.25c-.188,0-.342.085-.342.189s.121.165.278.182v4.451H1.92c-.225,0-.409.1-.409.225,0,.093.1.173.252.207v5.651H-1v7.263H408.857v-8.442l-5.778.008Z" transform="translate(0 -0.821)" fill="#9d9e9e" stroke="#000" stroke-miterlimit="22.926" stroke-width="0.5"/>
        <path id="Path_34541" data-name="Path 34541" d="M-1,0H408.254V1.968H-1Z" transform="translate(0.3 505.215)" fill="#9d9e9e"/>
    </g>
</svg>
