<svg xmlns="http://www.w3.org/2000/svg" width="25.049" height="25.007" viewBox="0 0 25.049 25.007">
    <g id="Group_1912" data-name="Group 1912" transform="translate(1.024 1)">
        <path id="Path_34481" data-name="Path 34481" d="M23.781,11.956,13.046,1.221a.767.767,0,0,0-1.089,0L1.223,11.956a.772.772,0,0,0,.544,1.311h2.3v9.968A.767.767,0,0,0,4.834,24h6.134a.767.767,0,0,0,.767-.767v-4.6h1.534v4.6a.767.767,0,0,0,.767.767h6.134a.767.767,0,0,0,.767-.767V13.267h2.3a.772.772,0,0,0,.544-1.311Z" transform="translate(-1.002 -0.994)" fill="#c9c9c9" stroke="#000" stroke-width="2"/>
        <path id="Intersection_6" data-name="Intersection 6" d="M3.14,18.982a.631.631,0,0,1-.628-.634V10.1H.627a.627.627,0,0,1-.578-.394.637.637,0,0,1,.132-.69L8.977.143A.622.622,0,0,1,9.19,0V14.543h-.4v3.8a.631.631,0,0,1-.627.634Z" transform="translate(1.986 2.011)" fill="red"/>
        <path id="Rectangle_650" data-name="Rectangle 650" d="M1.986,0h0A1.986,1.986,0,0,1,3.971,1.986V7.943a0,0,0,0,1,0,0H0a0,0,0,0,1,0,0V1.986A1.986,1.986,0,0,1,1.986,0Z" transform="translate(9.23 14.455)" fill="#393185"/>
    </g>
</svg>
