<svg xmlns="http://www.w3.org/2000/svg" width="22" height="27.25" viewBox="0 0 22 27.25">
    <g id="Group_1952" data-name="Group 1952" transform="translate(0.5 0.5)">
        <path id="paper-blank-svgrepo-com" d="M14.5,4.019c-2,0-4.689.22-6.569.4A1.6,1.6,0,0,0,6.482,5.9c-.187,2.425-.45,6.356-.45,9.227s.263,6.8.45,9.227a1.6,1.6,0,0,0,1.449,1.477c1.88.182,4.567.4,6.569.4s4.689-.22,6.569-.4a1.6,1.6,0,0,0,1.449-1.477c.187-2.425.45-6.356.45-9.227,0-.926-.027-1.964-.071-3.029H18.566V10.077H22.8a6.453,6.453,0,0,0-5.925-5.982v4.3a1.688,1.688,0,0,0,1.694,1.683V12.1a3.715,3.715,0,0,1-3.727-3.7V4.021Zm1.387-1.992C15.407,2.01,14.94,2,14.5,2c-2.109,0-4.881.229-6.766.411A3.628,3.628,0,0,0,4.456,5.744C4.269,8.17,4,12.169,4,15.125s.269,6.955.456,9.381a3.628,3.628,0,0,0,3.278,3.332c1.885.183,4.657.411,6.766.411s4.881-.229,6.766-.411a3.628,3.628,0,0,0,3.278-3.332c.187-2.426.456-6.425.456-9.381,0-1.244-.048-2.67-.116-4.082,0,0,0-.009,0-.013-.015-.3-.031-.607-.047-.907a8.479,8.479,0,0,0-8-8.054c-.316-.017-.631-.031-.941-.042" transform="translate(-4 -2)" stroke="#c9c9c9" stroke-width="1" fill-rule="evenodd"/>
        <path id="paper-blank-svgrepo-com-2" data-name="paper-blank-svgrepo-com" d="M13.273,3.923a52.973,52.973,0,0,0-5.459.4A1.586,1.586,0,0,0,6.381,5.782c-.185,2.4-.445,6.287-.445,9.127s.26,6.728.445,9.127A1.586,1.586,0,0,0,7.814,25.5c1.859.18,5.459.4,5.459.4S13.382,3.923,13.273,3.923Z" transform="translate(-3.28 -1.818)" fill="#6a6a6a" fill-rule="evenodd"/>
    </g>
</svg>
