<svg id="Group_1941" data-name="Group 1941" xmlns="http://www.w3.org/2000/svg" width="24" height="24" viewBox="0 0 24 24">
    <g id="internet-world-svgrepo-com_1_" data-name="internet-world-svgrepo-com (1)" transform="translate(1.612 2.305)">
        <g id="Group_1916" data-name="Group 1916" transform="translate(7.06 0)">
            <g id="Group_1915" data-name="Group 1915">
                <path id="Path_34913" data-name="Path 34913" d="M151.466,3.75h2.618V.52C153.014.69,152.06,1.941,151.466,3.75Z" transform="translate(-151.466 -0.52)" fill="red"/>
            </g>
        </g>
        <g id="Group_1918" data-name="Group 1918" transform="translate(5.959 5.022)">
            <g id="Group_1917" data-name="Group 1917">
                <path id="Path_34914" data-name="Path 34914" d="M131.278,123.16a16.057,16.057,0,0,0-.55,3.981h3.718V123.16Z" transform="translate(-130.728 -123.16)" fill="red"/>
            </g>
        </g>
        <g id="Group_1922" data-name="Group 1922" transform="translate(0.102 10.567)">
            <g id="Group_1921" data-name="Group 1921">
                <path id="Path_34916" data-name="Path 34916" d="M3.756,253.959H0a8.024,8.024,0,0,0,1.073,3.758H4.238A16.009,16.009,0,0,1,3.756,253.959Z" transform="translate(0 -253.959)" fill="red"/>
            </g>
        </g>
        <g id="Group_1926" data-name="Group 1926" transform="translate(0 5.023)">
            <g id="Group_1925" data-name="Group 1925">
                <path id="Path_34918" data-name="Path 34918" d="M1.1,123.16h0A8.22,8.22,0,0,0,0,127.01H3.848a16.4,16.4,0,0,1,.494-3.85Z" transform="translate(0 -123.16)" fill="red"/>
            </g>
        </g>
        <g id="Group_1930" data-name="Group 1930" transform="translate(5.96 10.564)">
            <g id="Group_1929" data-name="Group 1929">
                <path id="Path_34920" data-name="Path 34920" d="M130.728,253.959a16.056,16.056,0,0,0,.55,3.981h3.168v-3.981Z" transform="translate(-130.728 -253.959)" fill="red"/>
            </g>
        </g>
        <g id="Group_1932" data-name="Group 1932" transform="translate(2.486 16.162)">
            <g id="Group_1931" data-name="Group 1931">
                <path id="Path_34921" data-name="Path 34921" d="M45.307,384.766H42.98a6.39,6.39,0,0,0,3.816,3A6.855,6.855,0,0,1,45.307,384.766Z" transform="translate(-42.98 -384.766)" fill="red"/>
            </g>
        </g>
        <g id="Group_1936" data-name="Group 1936" transform="translate(2.31 0.144)">
            <g id="Group_1935" data-name="Group 1935">
                <path id="Path_34923" data-name="Path 34923" d="M42.975,8.947h2.483a6.946,6.946,0,0,1,1.589-3.086A6.782,6.782,0,0,0,42.975,8.947Z" transform="translate(-42.975 -5.861)" fill="red"/>
            </g>
        </g>
        <g id="Group_1940" data-name="Group 1940" transform="translate(6.913 16.162)">
            <g id="Group_1939" data-name="Group 1939">
                <path id="Path_34925" data-name="Path 34925" d="M151.469,384.766c.626,1.91,1.634,3.23,2.763,3.409v-3.409Z" transform="translate(-151.469 -384.766)" fill="red"/>
            </g>
        </g>
    </g>
    <g id="world-grid-svgrepo-com">
        <path id="Path_34928" data-name="Path 34928" d="M23,11A12,12,0,1,0,35,23,12,12,0,0,0,23,11Zm.49,22.918a.421.421,0,0,0-.078,0V29.255h3.816c-.857,2.542-2.209,4.32-3.737,4.663Zm-4.82-4.663h3.722v4.658h-.01C20.864,33.555,19.522,31.782,18.67,29.255Zm-6.588-5.745H16.7a21.677,21.677,0,0,0,.6,4.727H13.4A10.878,10.878,0,0,1,12.082,23.509Zm15.144-6.764H23.411V12.078a.421.421,0,0,1,.078,0C25.018,12.425,26.37,14.2,27.227,16.745Zm.3,1.019a20.474,20.474,0,0,1,.647,4.727H23.407V17.764Zm-5.148-5.677h.01v4.658H18.67C19.522,14.218,20.864,12.445,22.383,12.087Zm.01,5.677v4.727H17.72a20.436,20.436,0,0,1,.647-4.727ZM16.7,22.491H12.082A10.859,10.859,0,0,1,13.4,17.764H17.3A21.677,21.677,0,0,0,16.7,22.491Zm1.019,1.019h4.673v4.727H18.367a20.474,20.474,0,0,1-.647-4.727Zm5.691,4.727V23.509h4.771a20.436,20.436,0,0,1-.647,4.727ZM29.2,23.509h4.722A10.859,10.859,0,0,1,32.6,28.236h-4A21.676,21.676,0,0,0,29.2,23.509Zm0-1.019a21.676,21.676,0,0,0-.6-4.727h4a10.878,10.878,0,0,1,1.322,4.727Zm2.767-5.745H28.314a10.894,10.894,0,0,0-2.3-4.251A10.946,10.946,0,0,1,31.963,16.745ZM19.841,12.533a11.053,11.053,0,0,0-2.258,4.212H14.037A10.982,10.982,0,0,1,19.841,12.533Zm-5.8,16.722h3.546a11.053,11.053,0,0,0,2.258,4.212A10.982,10.982,0,0,1,14.037,29.255Zm11.98,4.251a10.917,10.917,0,0,0,2.3-4.256h3.649A10.905,10.905,0,0,1,26.017,33.506Z" transform="translate(-11 -11)"/>
    </g>
</svg>
