<svg id="Group_1942" data-name="Group 1942" xmlns="http://www.w3.org/2000/svg" width="30.684" height="19.427" viewBox="0 0 30.684 19.427">
    <g id="education-svgrepo-com" transform="translate(8.354 2.694)">
        <path id="Path_34929" data-name="Path 34929" d="M8.331,15.391S4.217,14.13,2.379,13.517a.971.971,0,0,1-.292-.175.165.165,0,0,1,0-.292,1.132,1.132,0,0,1,.321-.175c1.984-.584,5.923-1.78,5.923-1.78Z" transform="translate(-2 -11.095)" fill="red"/>
        <path id="Path_34930" data-name="Path 34930" d="M11.782,26.677c-.4-.058-.482.117-.482.263V28.7a.672.672,0,0,0,.361.584c.08.058.2.117.281.175a39.021,39.021,0,0,0,4.576.948V28.227Z" transform="translate(-10.775 -15.844)" fill="red"/>
        <path id="Path_34931" data-name="Path 34931" d="M45.077,24.557c-.188.063-.25.125-.25.376v4.256a1.16,1.16,0,0,1-.125.438c-.313.751-.626,1.5-.876,2.253a1.829,1.829,0,0,0,.376,1.94,2.159,2.159,0,0,0,.563.5,1.606,1.606,0,0,0,.751.313,1.508,1.508,0,0,0,1.127-.438,2.891,2.891,0,0,0,.438-.438,2.049,2.049,0,0,0,.313-1.69,9.917,9.917,0,0,0-.939-2.378.753.753,0,0,1-.125-.5V24.557c0-.313-.25-.25-.376-.188Z" transform="translate(-25.36 -18.253)" fill="red"/>
    </g>
    <g id="education-svgrepo-com-2" data-name="education-svgrepo-com">
        <g id="Path_34929-2" data-name="Path 34929" transform="translate(-2 -10.925)" fill="none">
            <path d="M17.19,20.8a5.776,5.776,0,0,1-2.234-.5c-4.021-1.314-8.106-2.629-12.127-3.943a2.133,2.133,0,0,1-.638-.376.351.351,0,0,1,0-.626,2.492,2.492,0,0,1,.7-.376c4.34-1.252,8.616-2.5,12.956-3.818a4.909,4.909,0,0,1,3,0l12.829,3.755a4.324,4.324,0,0,1,.766.376.367.367,0,0,1,0,.688,2.012,2.012,0,0,1-.638.313c-4.276,1.377-8.552,2.816-12.893,4.193A4.016,4.016,0,0,1,17.19,20.8Z" stroke="none"/>
            <path d="M 16.98979377746582 19.80582046508789 C 17.02997398376465 19.80582046508789 17.06999397277832 19.8042106628418 17.10874366760254 19.80105018615723 L 17.14942359924316 19.79771995544434 L 17.19023513793945 19.79771995544434 C 17.77853393554688 19.79771995544434 18.12493515014648 19.73763084411621 18.51397514343262 19.56808090209961 L 18.56159400939941 19.54732131958008 L 18.61110496520996 19.53162002563477 C 21.08745384216309 18.74600982666016 23.58192443847656 17.92720031738281 25.99425506591797 17.13536071777344 C 27.49896430969238 16.64144515991211 29.04643821716309 16.13348770141602 30.58248329162598 15.63594627380371 L 18.55668449401855 12.11581039428711 C 17.73679542541504 11.86457443237305 16.91855812072754 11.86245632171631 16.16059494018555 12.11021041870117 L 16.13974380493164 12.11677074432373 C 12.52346134185791 13.21187210083008 8.653694152832031 14.35381126403809 4.023397922515869 15.69200134277344 C 5.749155521392822 16.25485038757324 7.499092102050781 16.82232856750488 9.19957447052002 17.37376976013184 C 11.19326400756836 18.02029037475586 13.25483417510986 18.68881988525391 15.26705455780029 19.3465404510498 C 15.40983486175537 19.3931999206543 15.54810428619385 19.44108009338379 15.68182468414307 19.48739051818848 C 16.17526435852051 19.65825080871582 16.60142517089844 19.80582046508789 16.98979377746582 19.80582046508789 M 16.98979377746582 20.80581855773926 C 16.30049133300781 20.80581855773926 15.65499687194824 20.52540397644043 14.956374168396 20.29705047607422 C 10.93543434143066 18.9827709197998 6.850664615631104 17.66849136352539 2.829714298248291 16.35422134399414 C 2.574424505233765 16.22904968261719 2.382944345474243 16.16646957397461 2.191474437713623 15.97871017456055 C 1.936174392700195 15.79096031188965 1.936174392700195 15.54061031341553 2.191474437713623 15.35286045074463 C 2.382944345474243 15.22769069671631 2.638244390487671 15.03994083404541 2.893544435501099 14.97735023498535 C 7.233614444732666 13.72566032409668 11.50985431671143 12.47397041320801 15.84991455078125 11.15969085693359 C 16.80728530883789 10.84676933288574 17.8284740447998 10.84676933288574 18.84966468811035 11.15969085693359 C 23.12590408325195 12.41139030456543 27.40215492248535 13.6630802154541 31.67839431762695 14.91477012634277 C 31.93369483947754 15.03994083404541 32.18899536132812 15.10251998901367 32.44429397583008 15.29028034210205 C 32.7634162902832 15.47803020477295 32.7634162902832 15.79095077514648 32.44429397583008 15.97871017456055 C 32.25281524658203 16.10387992858887 32.06134414672852 16.22904968261719 31.80604362487793 16.29162979125977 C 27.52979469299316 17.66849136352539 23.25356483459473 19.10794067382812 18.91349411010742 20.48480033874512 C 18.33907508850098 20.73513984680176 17.8284740447998 20.79771995544434 17.19023513793945 20.79771995544434 C 17.12296485900879 20.8032169342041 17.0561637878418 20.80581855773926 16.98979377746582 20.80581855773926 Z" stroke="none" fill="#000"/>
        </g>
        <g id="Path_34930-2" data-name="Path 34930" transform="translate(-5.48 -16.547)" fill="none">
            <path d="M12.076,26.985c-.646-.125-.776.25-.776.563V32.3a1.555,1.555,0,0,0,.582,1.252c.129.125.323.25.452.376a11.36,11.36,0,0,0,3.49,1.439,19.811,19.811,0,0,0,7.432.438,17.478,17.478,0,0,0,4.718-1.252,5.516,5.516,0,0,0,1.745-1.127,1.126,1.126,0,0,0,.388-1.064c.065-1.5.065-3.067.065-4.631,0-.876-.646-.751-.9-.688-2.262.751-4.653,1.439-6.915,2.19a5.152,5.152,0,0,1-3.361,0Z" stroke="none"/>
            <path d="M 12.30000305175781 28.11011123657227 L 12.30000305175781 32.30492401123047 C 12.30000305175781 32.51045227050781 12.31181335449219 32.58115386962891 12.57731437683105 32.83826446533203 C 12.60230445861816 32.86246490478516 12.67048263549805 32.915283203125 12.72026443481445 32.95385360717773 C 12.79224967956543 33.00962829589844 12.87141990661621 33.07096099853516 12.95041465759277 33.14062881469727 C 13.74683380126953 33.65755462646484 14.76862716674805 34.07069396972656 16.07076263427734 34.40253448486328 C 17.58111381530762 34.78743362426758 19.07628440856934 34.97454071044922 20.64173316955566 34.97454071044922 C 21.45403289794922 34.97454071044922 22.29208374023438 34.921630859375 23.13259315490723 34.81727600097656 L 23.14037322998047 34.81633377075195 C 24.61630058288574 34.64482116699219 26.1445198059082 34.24036407470703 27.56168746948242 33.64631652832031 C 28.12722206115723 33.37243270874023 28.65921974182129 33.11209106445312 28.97641372680664 32.76103210449219 L 29.02273368835449 32.71308135986328 C 29.10467338562012 32.63373565673828 29.12105751037598 32.59609985351562 29.12110710144043 32.59623718261719 C 29.12125396728516 32.59550476074219 29.12555313110352 32.57229614257812 29.11686325073242 32.51342391967773 L 29.10300445556641 32.41943359375 L 29.10708236694336 32.32452392578125 C 29.16529846191406 30.97147750854492 29.17031097412109 29.53546524047852 29.17074203491211 28.13202667236328 C 28.15740966796875 28.46316146850586 27.11555480957031 28.78546524047852 26.10406494140625 29.09837341308594 C 24.9650936126709 29.45072174072266 23.78734397888184 29.8150634765625 22.6661434173584 30.18733215332031 L 22.65822410583496 30.18992233276367 C 21.97991371154785 30.40888214111328 21.30307388305664 30.51990509033203 20.64653396606445 30.51990509033203 C 19.98634719848633 30.51990509033203 19.32258415222168 30.40781402587891 18.67353248596191 30.18673706054688 L 12.30000305175781 28.11011123657227 M 11.84063529968262 26.96052932739258 C 11.91008758544922 26.96053314208984 11.98810386657715 26.96830368041992 12.07551383972168 26.98523330688477 L 18.99049377441406 29.23827362060547 C 20.08913803100586 29.61378860473633 21.18777656555176 29.61378860473633 22.35103416442871 29.23827362060547 C 24.61294364929199 28.48726272583008 27.00410461425781 27.79882431030273 29.26601409912109 27.04781341552734 C 29.52452087402344 26.98523330688477 30.17078399658203 26.86006164550781 30.17078399658203 27.73624420166016 C 30.17078399658203 29.30085372924805 30.17078399658203 30.86547470092773 30.10616302490234 32.36750411987305 C 30.17078399658203 32.80560302734375 30.04153442382812 33.11852264404297 29.71840286254883 33.43144226074219 C 29.26602363586426 33.93212127685547 28.61975479125977 34.24504089355469 27.97350311279297 34.55797576904297 C 26.48710250854492 35.18381500244141 24.8714542388916 35.62190246582031 23.25580406188965 35.80965423583984 C 20.73538589477539 36.12258148193359 18.27960205078125 35.99741363525391 15.82381439208984 35.37156295776367 C 14.59592437744141 35.05864334106445 13.36803436279297 34.62055206298828 12.33401298522949 33.93212127685547 C 12.20476341247559 33.80695343017578 12.01088333129883 33.68178558349609 11.88163375854492 33.55661392211914 C 11.49388313293457 33.18111419677734 11.30000305175781 32.86819458007812 11.30000305175781 32.30492401123047 C 11.30000305175781 30.74030303955078 11.30000305175781 29.17569351196289 11.30000305175781 27.54849243164062 C 11.30000305175781 27.27789688110352 11.3965892791748 26.96049499511719 11.84063529968262 26.96052932739258 Z" stroke="none" fill="#000"/>
        </g>
        <g id="Path_34931-2" data-name="Path 34931" transform="translate(-17.006 -15.559)" fill="none">
            <path d="M45.077,24.557c-.188.063-.25.125-.25.376v4.256a1.16,1.16,0,0,1-.125.438c-.313.751-.626,1.5-.876,2.253a1.829,1.829,0,0,0,.376,1.94,2.159,2.159,0,0,0,.563.5,1.606,1.606,0,0,0,.751.313,1.508,1.508,0,0,0,1.127-.438,2.891,2.891,0,0,0,.438-.438,2.049,2.049,0,0,0,.313-1.69,9.917,9.917,0,0,0-.939-2.378.753.753,0,0,1-.125-.5V24.557c0-.313-.25-.25-.376-.188Z" stroke="none"/>
            <path d="M 45.56148147583008 30.16228675842285 C 45.27027893066406 30.86178016662598 44.99665069580078 31.5274486541748 44.77385330200195 32.19582748413086 L 44.76496124267578 32.22135925292969 C 44.64185333251953 32.55989837646484 44.69657135009766 32.90141677856445 44.90778350830078 33.11262512207031 L 44.97779083251953 33.18263626098633 L 45.02753067016602 33.25724411010742 C 45.04042816162109 33.27202606201172 45.1151008605957 33.35267639160156 45.31861114501953 33.48833465576172 L 45.40103149414062 33.54327392578125 L 45.43308258056641 33.5753288269043 C 45.48712539672852 33.59622955322266 45.5904426574707 33.62213897705078 45.66438674926758 33.64027786254883 C 45.69998550415039 33.63079452514648 45.78931045532227 33.59247207641602 45.98233795166016 33.44160079956055 C 46.03119659423828 33.39556884765625 46.07863616943359 33.3546142578125 46.12174224853516 33.31739807128906 C 46.16558074951172 33.27955627441406 46.23183059692383 33.22235870361328 46.24748229980469 33.20247650146484 L 46.27957153320312 33.15712738037109 C 46.50154113769531 32.86117553710938 46.46051025390625 32.48323822021484 46.41630172729492 32.28428649902344 L 46.41469192504883 32.27688598632812 C 46.26050567626953 31.55733489990234 45.94515228271484 30.90887641906738 45.60547637939453 30.2287483215332 C 45.58994293212891 30.2067699432373 45.57532119750977 30.18463516235352 45.56148147583008 30.16228675842285 M 46.14337158203125 24.31835174560547 C 46.24088287353516 24.31835556030273 46.32855224609375 24.37203598022461 46.32855224609375 24.55719757080078 C 46.32855224609375 26.1218147277832 46.32855224609375 27.62384605407715 46.32855224609375 29.18846702575684 C 46.32855224609375 29.31363677978516 46.32855224609375 29.5639762878418 46.45372009277344 29.68913650512695 C 46.82923126220703 30.44015693664551 47.20474243164062 31.19117736816406 47.39249038696289 32.06735610961914 C 47.51766204833984 32.630615234375 47.45507049560547 33.25646591186523 47.07956314086914 33.75713729858398 C 46.95440292358398 33.94489669799805 46.76663208007812 34.070068359375 46.64147186279297 34.19523620605469 C 46.32855224609375 34.44557952880859 45.95303726196289 34.69590377807617 45.51495361328125 34.63332748413086 C 45.26461029052734 34.57073593139648 44.95168304443359 34.50815582275391 44.76394271850586 34.32040405273438 C 44.576171875 34.19523620605469 44.32583999633789 34.00747680664062 44.2006721496582 33.81972503662109 C 43.70000076293945 33.31904602050781 43.57482147216797 32.56802749633789 43.82517242431641 31.87959671020508 C 44.07551193237305 31.12858581542969 44.38843154907227 30.37758636474609 44.70135116577148 29.62655639648438 C 44.76394271850586 29.50139617919922 44.82651138305664 29.31363677978516 44.82651138305664 29.18846702575684 C 44.82651138305664 27.74901580810547 44.82651138305664 26.37215805053711 44.82651138305664 24.93270492553711 C 44.82651138305664 24.68237686157227 44.88910293579102 24.61978530883789 45.07686233520508 24.55720520019531 L 45.95303344726562 24.36944580078125 C 46.0041389465332 24.34389877319336 46.07609558105469 24.3183479309082 46.14337158203125 24.31835174560547 Z" stroke="none" fill="red"/>
        </g>
    </g>
</svg>
