<svg xmlns="http://www.w3.org/2000/svg" width="54.255" height="30.541" viewBox="0 0 54.255 30.541">
    <g id="_0" transform="translate(-231.883 -345.476)">
        <path id="Path_34980" data-name="Path 34980" d="M277.156,353.753a18.985,18.985,0,0,0-8.737,5.87,2.625,2.625,0,0,0-.152,2.947,26.65,26.65,0,0,0,6.018,7.147,2.252,2.252,0,0,0,1.583.344,15.782,15.782,0,0,0,8.545-3.662,2.263,2.263,0,0,0,.515-1.633,17.88,17.88,0,0,0-5.206-10.517,2.55,2.55,0,0,0-2.565-.495h0Z" fill="#ffed00" stroke="#393185" stroke-linejoin="bevel" stroke-miterlimit="22.926" stroke-width="1.44" fill-rule="evenodd"/>
        <path id="Path_34981" data-name="Path 34981" d="M242.229,372.839a26.157,26.157,0,0,0,1.847-3.861,21.188,21.188,0,0,0,1.145-4.008l-2.586-.868a27.426,27.426,0,0,1-1.459,3.731,22.8,22.8,0,0,1-1.736,3.122,6.114,6.114,0,0,0,1.275,1.053,7.859,7.859,0,0,0,1.514.831h0Zm4.248-4.673a7.868,7.868,0,0,0,2.919-.517c.055-.942.074-2.05.074-3.27,0-1.976-.074-4.267-.24-6.724l-2.992.166c.129,2.457.222,4.987.222,7.185,0,1.127-.037,2.18-.092,3.066l.111.092h0Zm9.365-3.491A15.244,15.244,0,0,1,253,364.4l-.166.111a18.742,18.742,0,0,1-1.514,3.473,32.552,32.552,0,0,1-1.939,2.974,6.7,6.7,0,0,0,1.164.979,7.732,7.732,0,0,0,1.626.9,21.156,21.156,0,0,0,1.311-2.494c.332-.72.7-1.552,1-2.383a10.323,10.323,0,0,0,1.367.148c.711,0,.715-3.436,0-3.436h0Zm3.768-2.882-2.563.648a9.345,9.345,0,0,1,.217,2.068,7.656,7.656,0,0,1-1.792.166c-.715,0-.712,3.436,0,3.436a12.382,12.382,0,0,0,3.713-.536,6.613,6.613,0,0,0,.757-3.362,8.233,8.233,0,0,0-.333-2.42h0Zm1.681,6.373a7.868,7.868,0,0,0,2.919-.517c.056-.942.074-2.05.074-3.27,0-1.976-.074-4.267-.24-6.724l-2.992.166c.129,2.457.222,4.987.222,7.185,0,1.127-.037,2.18-.092,3.066l.111.092h0Z" fill="#2b2a29" stroke="#2b2a29" stroke-miterlimit="22.926" stroke-width="0.034"/>
        <path id="Path_34982" data-name="Path 34982" d="M239.74,357.676c-.293,0-.649-.021-.984-.042-.126-1.927-1.131-4.043-3.058-4.043-1.781,0-3.729,2.493-3.729,4.587,0,1.655,1.424,2.618,2.912,2.954a26.752,26.752,0,0,1-2.975,3.5,10.418,10.418,0,0,0,3.163,2.137,18.088,18.088,0,0,0,3.037-5.32,10.335,10.335,0,0,0,1.634.126c.44,0,.566-.691.566-1.948,0-1.194-.1-1.948-.566-1.948h0Zm-5.614-.293c0-.44.482-.67,1.026-.607a2.809,2.809,0,0,1,1.76,1.005,7.971,7.971,0,0,1-1.718-.042c-.649-.084-.984-.21-1.068-.356Zm10.306-2.974-3.372.775a20.743,20.743,0,0,1,.712,2.3,8.672,8.672,0,0,1-2.032.189c-.461,0-.566.754-.566,1.948,0,1.257.126,1.948.566,1.948a14.045,14.045,0,0,0,4.21-.607,7.5,7.5,0,0,0,.859-3.812,9.344,9.344,0,0,0-.377-2.744h0Z" fill="#2b2a29" stroke="#2b2a29" stroke-miterlimit="22.926" stroke-width="0.034"/>
        <path id="Path_34983" data-name="Path 34983" d="M256.956,369.579a3.974,3.974,0,0,0-2.11,1.526.469.469,0,0,0-.008.444,5.908,5.908,0,0,0,1.447,1.764.526.526,0,0,0,.37.08,3.872,3.872,0,0,0,2.011-.847.562.562,0,0,0,.115-.377,4.231,4.231,0,0,0-1.224-2.474.6.6,0,0,0-.6-.116h0Z" fill="#ffed00" stroke="#393185" stroke-linejoin="bevel" stroke-miterlimit="22.926" stroke-width="0.3" fill-rule="evenodd"/>
        <path id="Path_34984" data-name="Path 34984" d="M239.748,375.479a1.262,1.262,0,0,0,.56.519c.362-.193.782-.431,1.242-.7.745-.43,1.6-.945,2.505-1.516l-.437-.612c-.91.563-1.853,1.134-2.682,1.612-.425.245-.826.466-1.168.648l-.021.044h0Z" fill="#2b2a29" stroke="#2b2a29" stroke-miterlimit="22.926" stroke-width="0.034"/>
        <g id="_1939670943616">
            <path id="Path_34986" data-name="Path 34986" d="M275.877,352.266a.937.937,0,0,1-1.008-.307,4.7,4.7,0,0,1-.5-.761q-.328-.564-.468-.836a3.782,3.782,0,0,1-.221-.59,1.323,1.323,0,0,1-.031-.936.858.858,0,0,1,.546-.38,1.146,1.146,0,0,1,.5.01.6.6,0,0,1,.39.358,4.747,4.747,0,0,0,.233.828,4.338,4.338,0,0,0,.417.6,2.669,2.669,0,0,1,.491.865,1.366,1.366,0,0,1,.057.8.556.556,0,0,1-.4.348h0Z" fill="#e31e24" stroke="#2b2a29" stroke-miterlimit="22.926" stroke-width="0.039"/>
            <path id="Path_34987" data-name="Path 34987" d="M286.093,354.5c-.166.4-.773.408-1.288.394a5.333,5.333,0,0,1-1.459-.238,2.149,2.149,0,0,1-.889-.433.573.573,0,0,1,.123-.928.621.621,0,0,1,.44-.064c.875.241,1.994.126,2.711.681.183.142.451.371.362.588Z" fill="#e31e24" stroke="#2b2a29" stroke-miterlimit="22.926" stroke-width="0.039"/>
            <path id="Path_34988" data-name="Path 34988" d="M281.365,349.981l-.48.261a2.164,2.164,0,0,0-.732.6c-.175.238-.31.691-.547.883a.67.67,0,0,1-1.065-.274,1.157,1.157,0,0,1,.277-1.333,4.454,4.454,0,0,1,1.351-1.084,1.716,1.716,0,0,1,.77-.227.606.606,0,0,1,.546.387c.12.234.107.667-.12.79Z" fill="#e31e24" stroke="#2b2a29" stroke-miterlimit="22.926" stroke-width="0.039"/>
        </g>
        <path id="Path_34990" data-name="Path 34990" d="M253.1,357.871a5.726,5.726,0,0,0-2.634,1.77.792.792,0,0,0-.046.889,8.039,8.039,0,0,0,1.814,2.155.678.678,0,0,0,.477.1,4.759,4.759,0,0,0,2.576-1.1.681.681,0,0,0,.155-.492,5.392,5.392,0,0,0-1.57-3.171.769.769,0,0,0-.774-.149h0Z" fill="#393185" stroke="#ffed00" stroke-linejoin="bevel" stroke-miterlimit="22.926" stroke-width="0.3" fill-rule="evenodd"/>
        <path id="Path_34991" data-name="Path 34991" d="M238.438,345.7a8.09,8.09,0,0,0-3.725,2.5,1.119,1.119,0,0,0-.065,1.256,11.366,11.366,0,0,0,2.566,3.047.96.96,0,0,0,.675.146,6.729,6.729,0,0,0,3.643-1.561.965.965,0,0,0,.219-.7,7.621,7.621,0,0,0-2.219-4.484,1.087,1.087,0,0,0-1.094-.211h0Z" fill="#e31e24" stroke="#393185" stroke-linejoin="bevel" stroke-miterlimit="22.926" stroke-width="0.3" fill-rule="evenodd"/>
    </g>
</svg>
