<svg xmlns="http://www.w3.org/2000/svg" width="20.888" height="25.948" viewBox="0 0 20.888 25.948">
    <g id="Group_3525" data-name="Group 3525" transform="translate(-206.936 -329.901)">
        <g id="Group_1911" data-name="Group 1911" transform="translate(206.499 328.193)">
            <g id="_1939670943616" transform="translate(7.099 1.756)">
                <path id="Path_34533" data-name="Path 34533" d="M235.63,239.7a1.169,1.169,0,0,1-1.258-.383,5.844,5.844,0,0,1-.63-.95q-.41-.7-.584-1.043a4.676,4.676,0,0,1-.276-.736,1.651,1.651,0,0,1-.039-1.168,1.071,1.071,0,0,1,.681-.475,1.432,1.432,0,0,1,.629.013.745.745,0,0,1,.486.447,5.917,5.917,0,0,0,.291,1.033,5.421,5.421,0,0,0,.52.749,3.33,3.33,0,0,1,.612,1.08,1.7,1.7,0,0,1,.072,1,.694.694,0,0,1-.5.435h0Z" transform="translate(-232.755 -234.912)" fill="#e31e24" stroke="#2b2a29" stroke-miterlimit="22.926" stroke-width="0.095"/>
                <path id="Path_34534" data-name="Path 34534" d="M258.836,248.227c-.207.5-.965.509-1.607.492a6.654,6.654,0,0,1-1.821-.3,2.679,2.679,0,0,1-1.11-.54.715.715,0,0,1,.153-1.158.777.777,0,0,1,.55-.08c1.091.3,2.489.157,3.384.849.229.177.564.463.452.734Z" transform="translate(-244.678 -241.415)" fill="#e31e24" stroke="#2b2a29" stroke-miterlimit="22.926" stroke-width="0.095"/>
                <path id="Path_34535" data-name="Path 34535" d="M248.315,237.289l-.6.326a2.7,2.7,0,0,0-.914.744c-.218.3-.388.862-.682,1.1a.836.836,0,0,1-1.33-.341,1.444,1.444,0,0,1,.346-1.664,5.56,5.56,0,0,1,1.687-1.352,2.145,2.145,0,0,1,.961-.283.757.757,0,0,1,.681.483c.15.292.133.833-.149.986Z" transform="translate(-239.348 -235.357)" fill="#e31e24" stroke="#2b2a29" stroke-miterlimit="22.926" stroke-width="0.095"/>
            </g>
            <path id="Path_35378" data-name="Path 35378" d="M278.62,353.777a21.981,21.981,0,0,0-10.117,6.8,3.039,3.039,0,0,0-.176,3.412,30.858,30.858,0,0,0,6.968,8.275,2.608,2.608,0,0,0,1.833.4,18.274,18.274,0,0,0,9.894-4.24,2.62,2.62,0,0,0,.6-1.89,20.7,20.7,0,0,0-6.028-12.178,2.952,2.952,0,0,0-2.97-.573h0Z" transform="translate(-266.887 -345.536)" fill="none" stroke="#393185" stroke-linejoin="bevel" stroke-miterlimit="22.926" stroke-width="1" stroke-dasharray="2.8 1" fill-rule="evenodd"/>
            <path id="Path_35379" data-name="Path 35379" d="M276.883,353.749a18.424,18.424,0,0,0-8.48,5.7,2.548,2.548,0,0,0-.148,2.86,25.864,25.864,0,0,0,5.841,6.936,2.186,2.186,0,0,0,1.536.333,15.316,15.316,0,0,0,8.293-3.554,2.2,2.2,0,0,0,.5-1.584,17.353,17.353,0,0,0-5.053-10.207,2.474,2.474,0,0,0-2.49-.48h0Z" transform="translate(-265.269 -343.972)" fill="#ffed00" fill-rule="evenodd"/>
        </g>
    </g>
</svg>
