<svg xmlns="http://www.w3.org/2000/svg" width="21.484" height="19.511" viewBox="0 0 21.484 19.511">
    <g id="Group_2919" data-name="Group 2919" transform="translate(-89.453 -98.737)">
        <g id="Group_2919-2" data-name="Group 2919" transform="translate(89.955 99.237)">
            <path id="Path_35115" data-name="Path 35115" d="M102.7,99.265a24.267,24.267,0,0,0-4.78,1.01,22.987,22.987,0,0,0-6.96,3.609A2.744,2.744,0,0,0,90,105.523a2.7,2.7,0,0,0,.2,1.589,28.861,28.861,0,0,0,5.667,8.943,10.4,10.4,0,0,0,2.513,1.675c3.806.2,7.33-1.158,10.668-2.907a2.383,2.383,0,0,0,.912-1.5,1.078,1.078,0,0,0,.025-.2,19.525,19.525,0,0,0-4.262-12.75,3.393,3.393,0,0,0-1.934-1.084,3.2,3.2,0,0,0-1.084-.012h0Z" transform="translate(-89.955 -99.237)" fill="#ebecec" stroke="#e31e24" stroke-linejoin="bevel" stroke-miterlimit="22.926" stroke-width="1" fill-rule="evenodd"/>
        </g>
        <path id="Path_35278" data-name="Path 35278" d="M102.79,101.123a1.611,1.611,0,0,1,2.057-.16,1.7,1.7,0,0,1,.308,2.119,1.9,1.9,0,0,0,.32.6v-.012a2.447,2.447,0,0,0-.394-3.24,2.153,2.153,0,0,0-2.993.53c-.136.2-.136.345.049.48s.493-.136.628-.32Z" transform="translate(2.791 0.188)" fill="#e31e24" stroke="#fff" stroke-width="0.2"/>
        <path id="Path_35279" data-name="Path 35279" d="M103.956,104.4a1.611,1.611,0,0,1,2.057-.16,1.549,1.549,0,0,1,.382,1.872,7.278,7.278,0,0,0,.234.85l.012-.012a2.443,2.443,0,0,0-.382-3.228,2.137,2.137,0,0,0-2.981.53c-.135.2-.135.345.049.48s.493-.136.628-.32Z" transform="translate(3.067 0.95)" fill="#e31e24" stroke="#fff" stroke-width="0.2"/>
        <path id="Path_35280" data-name="Path 35280" d="M104.688,107.9a1.508,1.508,0,0,1,1.971-.209c.025.025.049.037.074.062a1.55,1.55,0,0,1,.2,1.651c.025.136.049.838.049,1.022.678-.973.973-2.525,0-3.2a2.137,2.137,0,0,0-2.981.53c-.136.2-.136.345.049.48s.493-.136.628-.32Z" transform="translate(3.234 1.762)" fill="#e31e24" stroke="#fff" stroke-width="0.2"/>
    </g>
</svg>
