<svg xmlns="http://www.w3.org/2000/svg" width="1351.997" height="192.237" viewBox="0 0 1351.997 192.237">
    <g id="Path_33626" data-name="Path 33626" transform="translate(0 -448.303)" fill="#898989" stroke-miterlimit="22.926">
        <path d="M 1351.49658203125 640.0400390625 L 0.5000351667404175 640.0400390625 L 0.5000351667404175 567.0853881835938 L 48.7138671875 567.0853881835938 L 49.2138671875 567.0853881835938 L 49.2138671875 566.5853881835938 L 49.2138671875 548.8975830078125 L 57.84886932373047 548.8975830078125 L 58.34886932373047 548.8975830078125 L 58.34886932373047 548.3975830078125 L 58.34886932373047 520.8192749023438 L 100.9473648071289 509.544921875 L 100.9473648071289 546.161865234375 L 100.9473648071289 546.661865234375 L 101.4473648071289 546.661865234375 L 110.0707015991211 546.661865234375 L 110.0707015991211 568.1295776367188 L 110.0707015991211 568.6295776367188 L 110.5707015991211 568.6295776367188 L 142.8731994628906 568.6295776367188 L 143.3731994628906 568.6295776367188 L 143.3731994628906 568.1295776367188 L 143.3731994628906 542.7852172851562 L 151.9965362548828 542.7852172851562 L 152.4965362548828 542.7852172851562 L 152.4965362548828 542.2852172851562 L 152.4965362548828 535.0274047851562 L 164.4513702392578 535.0274047851562 L 164.9513702392578 535.0274047851562 L 164.9513702392578 534.5274047851562 L 164.9513702392578 505.8160400390625 L 197.4183654785156 505.8160400390625 L 197.4183654785156 534.5274047851562 L 197.4183654785156 535.0274047851562 L 197.9183654785156 535.0274047851562 L 208.8823699951172 535.0274047851562 L 208.8823699951172 542.2852172851562 L 208.8823699951172 542.7852172851562 L 209.3823699951172 542.7852172851562 L 217.9965362548828 542.7852172851562 L 217.9965362548828 555.8330688476562 L 217.9965362548828 556.3330688476562 L 218.4965362548828 556.3330688476562 L 226.5720367431641 556.3330688476562 L 227.0720367431641 556.3330688476562 L 227.0720367431641 555.8330688476562 L 227.0720367431641 530.12158203125 L 238.3943634033203 530.12158203125 L 238.8943634033203 530.12158203125 L 238.8943634033203 529.62158203125 L 238.8943634033203 485.612548828125 L 283.0853576660156 485.3464050292969 L 283.0853576660156 538.5643920898438 L 283.0853576660156 581.8853759765625 L 283.0853576660156 582.3853759765625 L 283.5853576660156 582.3853759765625 L 308.5682067871094 582.3853759765625 L 309.0682067871094 582.3853759765625 L 309.0682067871094 581.8853759765625 L 309.0682067871094 518.35595703125 L 378.3502197265625 524.5192260742188 L 379.5198669433594 555.046875 L 379.5383605957031 555.5277099609375 L 380.01953125 555.5277099609375 L 397.0285339355469 555.5277099609375 L 397.5285339355469 555.5277099609375 L 397.5285339355469 555.0277099609375 L 397.5285339355469 497.2912292480469 L 397.5285339355469 496.8635559082031 L 397.1060485839844 496.7972106933594 C 396.3695373535156 496.6815490722656 396.0425415039062 496.375732421875 396.0425415039062 496.279052734375 C 396.0425415039062 496.1322326660156 396.5910339355469 495.7077331542969 397.6376953125 495.7077331542969 L 409.7463684082031 495.7077331542969 L 410.2463684082031 495.7077331542969 L 410.2463684082031 495.2077331542969 L 410.2463684082031 484.4798889160156 L 410.2463684082031 483.9798889160156 L 409.7463684082031 483.9798889160156 L 409.0382080078125 483.9798889160156 C 408.40283203125 483.9798889160156 408.0172729492188 483.7643432617188 407.9352722167969 483.6561889648438 C 408.0171813964844 483.5478820800781 408.4024658203125 483.3323974609375 409.0382080078125 483.3323974609375 L 419.72802734375 483.3323974609375 L 420.22802734375 483.3323974609375 L 420.22802734375 482.8323974609375 L 420.22802734375 471.7789611816406 C 420.3049926757812 471.7232666015625 420.5216064453125 471.6282348632812 420.8645324707031 471.6282348632812 L 434.0008544921875 471.6282348632812 L 434.4015502929688 471.6282348632812 L 434.9015502929688 471.6282348632812 L 448.0415344238281 471.6282348632812 C 448.3843688964844 471.6282348632812 448.6015625 471.7237548828125 448.6790466308594 471.7797241210938 L 448.6790466308594 482.8323974609375 L 448.6790466308594 483.3323974609375 L 449.1790466308594 483.3323974609375 L 459.8678588867188 483.3323974609375 C 460.5076293945312 483.3323974609375 460.8953247070312 483.5478210449219 460.9779663085938 483.6561889648438 C 460.895263671875 483.7645263671875 460.5072937011719 483.9798889160156 459.8678588867188 483.9798889160156 L 459.1571960449219 483.9798889160156 L 458.6571960449219 483.9798889160156 L 458.6571960449219 484.4798889160156 L 458.6571960449219 495.2077331542969 L 458.6571960449219 495.7077331542969 L 459.1571960449219 495.7077331542969 L 471.2655334472656 495.7077331542969 C 472.3117065429688 495.7077331542969 472.85986328125 496.1322326660156 472.85986328125 496.279052734375 C 472.85986328125 496.4087219238281 472.3585205078125 496.8020629882812 471.4017028808594 496.8377075195312 L 470.9203796386719 496.855712890625 L 470.9203796386719 497.3373718261719 L 470.9203796386719 516.4817504882812 L 470.9203796386719 516.9817504882812 L 471.4203796386719 516.9817504882812 L 474.598876953125 516.9817504882812 L 478.0216979980469 516.9817504882812 L 481.1090393066406 516.9817504882812 L 494.7947082519531 516.9817504882812 L 495.2947082519531 516.9817504882812 L 495.2947082519531 516.4817504882812 L 495.2947082519531 501.1755676269531 L 548.2651977539062 501.1755676269531 L 548.2651977539062 522.071044921875 L 548.2651977539062 522.571044921875 L 548.7651977539062 522.571044921875 L 553.655517578125 522.571044921875 L 556.69384765625 522.571044921875 L 560.9195556640625 522.571044921875 L 561.4195556640625 522.571044921875 L 561.4195556640625 522.071044921875 L 561.4195556640625 493.7222290039062 L 632.9652099609375 493.7222290039062 L 632.9652099609375 536.3748779296875 L 632.9652099609375 536.8748779296875 L 633.4652099609375 536.8748779296875 L 638.4550170898438 536.8748779296875 L 638.9383544921875 536.8748779296875 L 638.9547119140625 536.3919067382812 L 640.7680053710938 483.0387268066406 L 640.7683715820312 483.0302124023438 L 640.7683715820312 483.021728515625 C 640.7683715820312 480.6277160644531 642.48486328125 478.2823791503906 645.6013793945312 476.4175415039062 C 648.772216796875 474.5202331542969 653.1693725585938 473.2433776855469 657.9828491210938 472.8222351074219 L 658.439208984375 472.7822265625 L 658.439208984375 472.3240661621094 L 658.439208984375 465.2868957519531 L 668.4905395507812 465.2868957519531 L 668.9905395507812 465.2868957519531 L 668.9905395507812 464.7868957519531 L 668.9905395507812 456.5610656738281 L 678.8880615234375 456.5610656738281 L 679.3880615234375 456.5610656738281 L 679.3880615234375 456.0610656738281 L 679.3880615234375 448.802734375 L 679.8170166015625 448.802734375 L 679.8170166015625 456.0610656738281 L 679.8170166015625 456.5610656738281 L 680.3170166015625 456.5610656738281 L 690.2245483398438 456.5610656738281 L 690.2245483398438 464.7868957519531 L 690.2245483398438 465.2868957519531 L 690.7245483398438 465.2868957519531 L 700.7660522460938 465.2868957519531 L 700.7660522460938 472.3240661621094 L 700.7660522460938 472.7822265625 L 701.2225341796875 472.8222351074219 C 706.0398559570312 473.2433776855469 710.4388427734375 474.5202331542969 713.609375 476.4175415039062 C 715.1573486328125 477.3438720703125 716.3610229492188 478.382568359375 717.1871948242188 479.5048828125 C 718.0186767578125 480.6345520019531 718.4403686523438 481.8179016113281 718.4403686523438 483.021728515625 L 718.4403686523438 516.93505859375 L 718.4403686523438 517.43505859375 L 718.9403686523438 517.43505859375 L 721.2047119140625 517.43505859375 L 721.7047119140625 517.43505859375 L 721.7047119140625 516.93505859375 L 721.7047119140625 509.4650573730469 C 721.7047119140625 507.6163940429688 723.1695556640625 505.8508911132812 725.829345703125 504.493896484375 C 728.5963745117188 503.0822143554688 732.2870483398438 502.3047180175781 736.2213745117188 502.3047180175781 L 760.5398559570312 502.3047180175781 C 764.4720458984375 502.3047180175781 768.1611938476562 503.0822143554688 770.9276733398438 504.493896484375 C 773.5872192382812 505.8510437011719 775.0518798828125 507.6165466308594 775.0518798828125 509.4650573730469 L 775.0518798828125 516.93505859375 L 775.0518798828125 517.43505859375 L 775.5518798828125 517.43505859375 L 798.42333984375 517.43505859375 L 798.42333984375 539.0802001953125 L 798.42333984375 539.5802001953125 L 798.92333984375 539.5802001953125 L 804.91552734375 539.5802001953125 L 805.41552734375 539.5802001953125 L 805.41552734375 539.0802001953125 L 805.41552734375 527.7821044921875 C 806.8928833007812 521.9381103515625 809.0831298828125 521.8052368164062 813.8633422851562 521.5142211914062 C 814.6351928710938 521.4672241210938 815.4332275390625 521.418701171875 816.3107299804688 521.341552734375 L 816.7670288085938 521.3015747070312 L 816.7670288085938 520.8435668945312 L 816.7670288085938 493.2862243652344 L 825.4458618164062 493.2862243652344 L 825.7015380859375 493.2862243652344 L 825.8511962890625 493.0788879394531 L 830.04248046875 487.2740478515625 L 853.2780151367188 487.2740478515625 L 858.720703125 493.126708984375 L 858.8690185546875 493.2862243652344 L 859.0868530273438 493.2862243652344 L 868.3998413085938 493.2862243652344 L 868.3998413085938 505.3307189941406 L 868.3998413085938 505.8307189941406 L 868.8998413085938 505.8307189941406 L 872.6878662109375 505.8307189941406 L 873.1878662109375 505.8307189941406 L 873.1878662109375 505.3307189941406 L 873.1878662109375 471.0708923339844 L 878.0050048828125 471.0708923339844 L 878.5050048828125 471.0708923339844 L 878.5050048828125 470.5708923339844 L 878.5050048828125 463.4942321777344 L 889.7852172851562 463.4942321777344 L 890.2852172851562 463.4942321777344 L 890.2852172851562 462.9942321777344 L 890.2852172851562 456.677734375 C 890.2852172851562 455.8043823242188 891.0687255859375 454.4513854980469 892.1905517578125 453.3873901367188 C 892.9903564453125 452.6288757324219 894.6558837890625 451.3565673828125 896.8233642578125 451.3565673828125 L 930.648681640625 451.3565673828125 C 932.8126831054688 451.3565673828125 934.4771728515625 452.6288757324219 935.27685546875 453.3873901367188 C 936.398681640625 454.4517211914062 937.182373046875 455.8047180175781 937.182373046875 456.677734375 L 937.182373046875 462.9942321777344 L 937.182373046875 463.4942321777344 L 937.682373046875 463.4942321777344 L 948.9635620117188 463.4942321777344 L 948.9635620117188 470.5708923339844 L 948.9635620117188 471.0708923339844 L 949.4635620117188 471.0708923339844 L 954.2733764648438 471.0708923339844 L 954.2733764648438 483.0520629882812 L 954.2733764648438 483.5520629882812 L 954.7733764648438 483.5520629882812 L 965.5567016601562 483.5520629882812 L 965.5567016601562 493.9518737792969 L 965.5567016601562 494.4518737792969 L 966.0567016601562 494.4518737792969 L 972.8968505859375 494.4518737792969 L 973.3968505859375 494.4518737792969 L 973.3968505859375 493.9518737792969 L 973.3968505859375 487.6598815917969 L 981.9216918945312 487.6598815917969 L 982.4216918945312 487.6598815917969 L 982.4216918945312 487.1598815917969 L 982.4216918945312 478.7495422363281 L 1021.706359863281 478.7495422363281 L 1021.706359863281 487.1598815917969 L 1021.706359863281 487.6598815917969 L 1022.206359863281 487.6598815917969 L 1026.361694335938 487.6598815917969 L 1026.361694335938 493.9518737792969 L 1026.361694335938 494.4518737792969 L 1026.861694335938 494.4518737792969 L 1029.7265625 494.4518737792969 L 1029.7265625 511.671875 L 1029.7265625 512.171875 L 1030.2265625 512.171875 L 1032.890747070312 512.171875 L 1033.390747070312 512.171875 L 1033.390747070312 511.671875 L 1033.390747070312 494.4518737792969 L 1035.978881835938 494.4518737792969 L 1036.478881835938 494.4518737792969 L 1036.478881835938 493.9518737792969 L 1036.478881835938 483.5520629882812 L 1074.751586914062 483.5520629882812 L 1075.251586914062 483.5520629882812 L 1075.251586914062 483.0520629882812 L 1075.251586914062 481.1442260742188 L 1084.889892578125 481.1442260742188 L 1084.889892578125 483.0520629882812 L 1084.889892578125 483.5520629882812 L 1085.389892578125 483.5520629882812 L 1101.040405273438 483.5520629882812 L 1101.040405273438 530.1675415039062 L 1101.040405273438 530.6675415039062 L 1101.540405273438 530.6675415039062 L 1123.388427734375 530.6675415039062 L 1123.888427734375 530.6675415039062 L 1123.888427734375 530.1675415039062 L 1123.888427734375 462.2997131347656 L 1130.993408203125 462.2997131347656 L 1131.493408203125 462.2997131347656 L 1131.493408203125 461.7997131347656 L 1131.493408203125 459.2007141113281 L 1137.446411132812 459.2007141113281 L 1137.946411132812 459.2007141113281 L 1137.946411132812 458.7007141113281 L 1137.946411132812 457.4530639648438 L 1164.43798828125 457.4530639648438 L 1164.93798828125 457.4530639648438 L 1164.93798828125 456.9530639648438 L 1164.93798828125 455.3217163085938 L 1173.810913085938 455.3217163085938 L 1173.810913085938 456.9530639648438 L 1173.810913085938 457.4530639648438 L 1174.310913085938 457.4530639648438 L 1193.697387695312 457.4530639648438 L 1194.197387695312 457.4530639648438 L 1194.197387695312 456.9530639648438 L 1194.197387695312 455.3217163085938 L 1205.550170898438 455.3217163085938 L 1205.550170898438 456.9530639648438 L 1205.550170898438 457.4530639648438 L 1206.050170898438 457.4530639648438 L 1210.675659179688 457.4530639648438 L 1210.675659179688 458.7007141113281 L 1210.675659179688 459.2007141113281 L 1211.175659179688 459.2007141113281 L 1213.717895507812 459.2007141113281 L 1213.717895507812 461.7997131347656 L 1213.717895507812 462.2997131347656 L 1214.217895507812 462.2997131347656 L 1217.893676757812 462.2997131347656 L 1217.893676757812 506.0137329101562 L 1217.893676757812 506.5137329101562 L 1218.393676757812 506.5137329101562 L 1282.757080078125 506.5137329101562 L 1282.757080078125 549.5792236328125 L 1282.757080078125 550.0792236328125 L 1283.257080078125 550.0792236328125 L 1289.93115234375 550.0792236328125 L 1290.43115234375 550.0792236328125 L 1290.43115234375 549.5792236328125 L 1290.43115234375 521.6610717773438 L 1351.49658203125 521.6610717773438 L 1351.49658203125 640.0400390625 Z" stroke="none"/>
        <path d="M 1350.99658203125 639.5401000976562 L 1350.99658203125 522.1610107421875 L 1290.931274414062 522.1610107421875 L 1290.931274414062 550.5792236328125 L 1282.256958007812 550.5792236328125 L 1282.256958007812 507.0137634277344 L 1217.393676757812 507.0137634277344 L 1217.393676757812 462.7997436523438 L 1213.2177734375 462.7997436523438 L 1213.2177734375 459.7006530761719 L 1210.175659179688 459.7006530761719 L 1210.175659179688 457.9530334472656 L 1205.050170898438 457.9530334472656 L 1205.050170898438 455.8215637207031 L 1194.697387695312 455.8215637207031 L 1194.697387695312 457.9530334472656 L 1173.310913085938 457.9530334472656 L 1173.310913085938 455.8215637207031 L 1165.43798828125 455.8215637207031 L 1165.43798828125 457.9530334472656 L 1138.446411132812 457.9530334472656 L 1138.446411132812 459.7006530761719 L 1131.993286132812 459.7006530761719 L 1131.993286132812 462.7997436523438 L 1124.388305664062 462.7997436523438 L 1124.388305664062 531.1675415039062 L 1100.540405273438 531.1675415039062 L 1100.540405273438 484.0521240234375 L 1084.389770507812 484.0521240234375 L 1084.389770507812 481.644287109375 L 1075.751586914062 481.644287109375 L 1075.751586914062 484.0521240234375 L 1036.978881835938 484.0521240234375 L 1036.978881835938 494.9519348144531 L 1033.890747070312 494.9519348144531 L 1033.890747070312 512.6719360351562 L 1029.2265625 512.6719360351562 L 1029.2265625 494.9519348144531 L 1025.861572265625 494.9519348144531 L 1025.861572265625 488.1599426269531 L 1021.206359863281 488.1599426269531 L 1021.206359863281 479.2495727539062 L 982.9218139648438 479.2495727539062 L 982.9218139648438 488.1599426269531 L 973.8969116210938 488.1599426269531 L 973.8969116210938 494.9519348144531 L 965.0567016601562 494.9519348144531 L 965.0567016601562 484.0521240234375 L 953.7734375 484.0521240234375 L 953.7734375 471.5708312988281 L 948.463623046875 471.5708312988281 L 948.463623046875 463.9942932128906 L 936.682373046875 463.9942932128906 L 936.682373046875 456.6777648925781 C 936.682373046875 456.0477600097656 936.0814208984375 454.8397521972656 934.9327392578125 453.7501220703125 C 934.187255859375 453.0428466796875 932.6392822265625 451.8564758300781 930.6487426757812 451.8564758300781 L 896.8234252929688 451.8564758300781 C 894.8292846679688 451.8564758300781 893.280517578125 453.0430297851562 892.5347290039062 453.7503051757812 C 891.3861694335938 454.8393859863281 890.7852783203125 456.0473937988281 890.7852783203125 456.6777648925781 L 890.7852783203125 463.9942932128906 L 879.0050659179688 463.9942932128906 L 879.0050659179688 471.5708312988281 L 873.6878051757812 471.5708312988281 L 873.6878051757812 506.3306579589844 L 867.8997802734375 506.3306579589844 L 867.8997802734375 493.7862854003906 L 858.6510620117188 493.7862854003906 L 853.0601806640625 487.7741088867188 L 830.29833984375 487.7741088867188 L 825.9574584960938 493.7862854003906 L 817.26708984375 493.7862854003906 L 817.26708984375 521.7595825195312 L 816.3545532226562 521.8397216796875 C 815.4703369140625 521.9173583984375 814.668701171875 521.9661254882812 813.8936157226562 522.0133666992188 C 811.5678100585938 522.1548461914062 809.8872680664062 522.2572021484375 808.6663818359375 522.989013671875 C 807.4353637695312 523.7268676757812 806.584716796875 525.2267456054688 805.9154663085938 527.844482421875 L 805.9154663085938 540.0801391601562 L 797.9234619140625 540.0801391601562 L 797.9234619140625 517.9349975585938 L 774.552001953125 517.9349975585938 L 774.552001953125 509.4650268554688 C 774.552001953125 508.6702880859375 774.2325439453125 507.8817443847656 773.6023559570312 507.12158203125 C 772.9430541992188 506.3261108398438 771.9396362304688 505.5713806152344 770.7005615234375 504.939208984375 C 768.0030517578125 503.5626525878906 764.39453125 502.8046569824219 760.539794921875 502.8046569824219 L 736.221435546875 502.8046569824219 C 732.3645629882812 502.8046569824219 728.7545166015625 503.5626525878906 726.0565185546875 504.939208984375 C 724.8172607421875 505.5715637207031 723.8137817382812 506.3261108398438 723.1543579101562 507.12158203125 C 722.524169921875 507.8817443847656 722.2047119140625 508.6701049804688 722.2047119140625 509.4650268554688 L 722.2047119140625 517.9349975585938 L 717.9403686523438 517.9349975585938 L 717.9403686523438 483.0217590332031 C 717.9403686523438 478.3264770507812 710.7345581054688 474.15576171875 701.1788940429688 473.3202819824219 L 700.2659912109375 473.240478515625 L 700.2659912109375 465.7868347167969 L 689.7245483398438 465.7868347167969 L 689.7245483398438 457.06103515625 L 669.4905395507812 457.06103515625 L 669.4905395507812 465.7868347167969 L 658.9392700195312 465.7868347167969 L 658.9392700195312 473.240478515625 L 658.0265502929688 473.3202819824219 C 648.4727172851562 474.1564636230469 641.2683715820312 478.3272094726562 641.2683715820312 483.0217590332031 L 641.267822265625 483.0557556152344 L 639.421630859375 537.375 L 632.465087890625 537.375 L 632.465087890625 494.2221069335938 L 561.9196166992188 494.2221069335938 L 561.9196166992188 523.071044921875 L 547.7650756835938 523.071044921875 L 547.7650756835938 501.6755676269531 L 495.7947082519531 501.6755676269531 L 495.7947082519531 517.4817504882812 L 470.4203491210938 517.4817504882812 L 470.4203491210938 496.3739318847656 L 471.3830871582031 496.3381042480469 C 471.5770874023438 496.3308715820312 471.7467041015625 496.3066101074219 471.89013671875 496.2742919921875 C 471.7191467285156 496.2351989746094 471.5099792480469 496.2075805664062 471.2654418945312 496.2075805664062 L 458.1572570800781 496.2075805664062 L 458.1572570800781 483.8323059082031 L 448.1790771484375 483.8323059082031 L 448.1790771484375 472.1360778808594 C 448.1383056640625 472.1313171386719 448.0923156738281 472.1282958984375 448.0414428710938 472.1282958984375 L 420.8645324707031 472.1282958984375 C 420.8140869140625 472.1282958984375 420.7684631347656 472.1312255859375 420.7279968261719 472.1358947753906 L 420.7279968261719 483.8323059082031 L 410.7463684082031 483.8323059082031 L 410.7463684082031 496.2075805664062 L 397.6378173828125 496.2075805664062 C 397.3978881835938 496.2075805664062 397.1918334960938 496.2344665527344 397.0223999023438 496.2728271484375 C 397.0728454589844 496.2840881347656 397.1265869140625 496.2944030761719 397.1836242675781 496.3033752441406 L 398.0285339355469 496.4359436035156 L 398.0285339355469 556.027587890625 L 379.0572509765625 556.027587890625 L 377.8675231933594 524.9780883789062 L 309.5681762695312 518.9024047851562 L 309.5681762695312 582.8853759765625 L 282.5852661132812 582.8853759765625 L 282.5852661132812 485.8494567871094 L 239.3943481445312 486.1095886230469 L 239.3943481445312 530.62158203125 L 227.5719909667969 530.62158203125 L 227.5719909667969 556.8331909179688 L 217.4965362548828 556.8331909179688 L 217.4965362548828 543.2852172851562 L 208.3823547363281 543.2852172851562 L 208.3823547363281 535.5274047851562 L 196.9183502197266 535.5274047851562 L 196.9183502197266 506.31591796875 L 165.4512634277344 506.31591796875 L 165.4512634277344 535.5274047851562 L 152.9965362548828 535.5274047851562 L 152.9965362548828 543.2852172851562 L 143.8730773925781 543.2852172851562 L 143.8730773925781 569.1295776367188 L 109.5707168579102 569.1295776367188 L 109.5707168579102 547.1619262695312 L 100.447265625 547.1619262695312 L 100.447265625 510.1944885253906 L 58.84889984130859 521.2042236328125 L 58.84889984130859 549.3975830078125 L 49.71380615234375 549.3975830078125 L 49.71380615234375 567.5853881835938 L 0.9999896883964539 567.5853881835938 L 0.9999896883964539 639.5401000976562 L 1350.99658203125 639.5401000976562 M 1351.9970703125 640.5401000976562 L -1.029829581966624e-05 640.5401000976562 L -1.029829581966624e-05 566.5853881835938 L 48.71380615234375 566.5853881835938 L 48.71380615234375 548.3975830078125 L 57.84889984130859 548.3975830078125 L 57.84889984130859 520.4344482421875 L 101.447265625 508.8953857421875 L 101.447265625 546.1619262695312 L 110.5707168579102 546.1619262695312 L 110.5707168579102 568.1295776367188 L 142.8730773925781 568.1295776367188 L 142.8730773925781 542.2852172851562 L 151.9965362548828 542.2852172851562 L 151.9965362548828 534.5274047851562 L 164.4512634277344 534.5274047851562 L 164.4512634277344 505.31591796875 L 197.9183502197266 505.31591796875 L 197.9183502197266 534.5274047851562 L 209.3823547363281 534.5274047851562 L 209.3823547363281 542.2852172851562 L 218.4965362548828 542.2852172851562 L 218.4965362548828 555.8331909179688 L 226.5719909667969 555.8331909179688 L 226.5719909667969 529.62158203125 L 238.3943481445312 529.62158203125 L 238.3943481445312 485.1155700683594 L 283.5852661132812 484.8433837890625 L 283.5852661132812 581.8853759765625 L 308.5681762695312 581.8853759765625 L 308.5681762695312 517.8095703125 L 378.8330688476562 524.0601196289062 L 380.0196228027344 555.027587890625 L 397.0285339355469 555.027587890625 L 397.0285339355469 497.2911987304688 C 396.173095703125 497.1568298339844 395.5425415039062 496.7557373046875 395.5425415039062 496.2790222167969 C 395.5425415039062 495.6897583007812 396.4901733398438 495.2075805664062 397.6378173828125 495.2075805664062 L 409.7463684082031 495.2075805664062 L 409.7463684082031 484.4799194335938 L 409.0383605957031 484.4799194335938 C 408.1541748046875 484.4799194335938 407.4259948730469 484.1113891601562 407.4259948730469 483.6563110351562 C 407.4259948730469 483.2006530761719 408.1541748046875 482.8323059082031 409.0383605957031 482.8323059082031 L 419.7279968261719 482.8323059082031 L 419.7279968261719 471.7079467773438 C 419.7279968261719 471.3891906738281 420.2348937988281 471.1282958984375 420.8645324707031 471.1282958984375 L 434.0008850097656 471.1282958984375 L 434.0008850097656 458.285400390625 L 434.9014587402344 458.285400390625 L 434.9014587402344 471.1282958984375 L 448.0414428710938 471.1282958984375 C 448.6683654785156 471.1282958984375 449.1790771484375 471.3891906738281 449.1790771484375 471.7079467773438 L 449.1790771484375 482.8323059082031 L 459.8677978515625 482.8323059082031 C 460.75927734375 482.8323059082031 461.4874572753906 483.2006530761719 461.4874572753906 483.6563110351562 C 461.4874572753906 484.1113891601562 460.75927734375 484.4799194335938 459.8677978515625 484.4799194335938 L 459.1572570800781 484.4799194335938 L 459.1572570800781 495.2075805664062 L 471.2654418945312 495.2075805664062 C 472.4234313964844 495.2075805664062 473.3599853515625 495.6897583007812 473.3599853515625 496.2790222167969 C 473.3599853515625 496.8361206054688 472.4970703125 497.2972106933594 471.4203491210938 497.3373718261719 L 471.4203491210938 516.4817504882812 L 494.7947082519531 516.4817504882812 L 494.7947082519531 500.6755676269531 L 548.7650756835938 500.6755676269531 L 548.7650756835938 522.071044921875 L 560.9196166992188 522.071044921875 L 560.9196166992188 493.2221069335938 L 633.465087890625 493.2221069335938 L 633.465087890625 536.375 L 638.455078125 536.375 L 640.2683715820312 483.0217590332031 C 640.2683715820312 477.6524658203125 647.9151000976562 473.2013854980469 657.9392700195312 472.3241271972656 L 657.9392700195312 464.7868347167969 L 668.4905395507812 464.7868347167969 L 668.4905395507812 456.06103515625 L 678.8880004882812 456.06103515625 L 678.8880004882812 448.3026733398438 L 680.31689453125 448.3026733398438 L 680.31689453125 456.06103515625 L 690.7245483398438 456.06103515625 L 690.7245483398438 464.7868347167969 L 701.2659912109375 464.7868347167969 L 701.2659912109375 472.3241271972656 C 711.3003540039062 473.2013854980469 718.9403686523438 477.6524658203125 718.9403686523438 483.0217590332031 L 718.9403686523438 516.9349975585938 L 721.2047119140625 516.9349975585938 L 721.2047119140625 509.4650268554688 C 721.2047119140625 505.2346496582031 727.9255981445312 501.8046569824219 736.221435546875 501.8046569824219 L 760.539794921875 501.8046569824219 C 768.8306884765625 501.8046569824219 775.552001953125 505.2346496582031 775.552001953125 509.4650268554688 L 775.552001953125 516.9349975585938 L 798.9234619140625 516.9349975585938 L 798.9234619140625 539.0801391601562 L 804.9154663085938 539.0801391601562 L 804.9154663085938 527.7200927734375 C 806.7267456054688 520.4852294921875 809.820556640625 521.4097290039062 816.26708984375 520.8435668945312 L 816.26708984375 492.7862854003906 L 825.4459838867188 492.7862854003906 L 829.7869262695312 486.7741088867188 L 853.4957885742188 486.7741088867188 L 859.0867309570312 492.7862854003906 L 868.8997802734375 492.7862854003906 L 868.8997802734375 505.3306579589844 L 872.6878051757812 505.3306579589844 L 872.6878051757812 470.5708312988281 L 878.0050659179688 470.5708312988281 L 878.0050659179688 462.9942932128906 L 889.7852783203125 462.9942932128906 L 889.7852783203125 456.6777648925781 C 889.7852783203125 454.69775390625 892.9359741210938 450.8564758300781 896.8234252929688 450.8564758300781 L 930.6487426757812 450.8564758300781 C 934.52978515625 450.8564758300781 937.682373046875 454.69775390625 937.682373046875 456.6777648925781 L 937.682373046875 462.9942932128906 L 949.463623046875 462.9942932128906 L 949.463623046875 470.5708312988281 L 954.7734375 470.5708312988281 L 954.7734375 483.0521240234375 L 966.0567016601562 483.0521240234375 L 966.0567016601562 493.9519348144531 L 972.8969116210938 493.9519348144531 L 972.8969116210938 487.1599426269531 L 981.9218139648438 487.1599426269531 L 981.9218139648438 478.2495727539062 L 1022.206359863281 478.2495727539062 L 1022.206359863281 487.1599426269531 L 1026.861572265625 487.1599426269531 L 1026.861572265625 493.9519348144531 L 1030.2265625 493.9519348144531 L 1030.2265625 511.6719360351562 L 1032.890747070312 511.6719360351562 L 1032.890747070312 493.9519348144531 L 1035.978881835938 493.9519348144531 L 1035.978881835938 483.0521240234375 L 1074.751586914062 483.0521240234375 L 1074.751586914062 480.644287109375 L 1085.389770507812 480.644287109375 L 1085.389770507812 483.0521240234375 L 1101.540405273438 483.0521240234375 L 1101.540405273438 530.1675415039062 L 1123.388305664062 530.1675415039062 L 1123.388305664062 461.7997436523438 L 1130.993286132812 461.7997436523438 L 1130.993286132812 458.7006530761719 L 1137.446411132812 458.7006530761719 L 1137.446411132812 456.9530334472656 L 1164.43798828125 456.9530334472656 L 1164.43798828125 454.8215637207031 L 1174.310913085938 454.8215637207031 L 1174.310913085938 456.9530334472656 L 1193.697387695312 456.9530334472656 L 1193.697387695312 454.8215637207031 L 1206.050170898438 454.8215637207031 L 1206.050170898438 456.9530334472656 L 1211.175659179688 456.9530334472656 L 1211.175659179688 458.7006530761719 L 1214.2177734375 458.7006530761719 L 1214.2177734375 461.7997436523438 L 1218.393676757812 461.7997436523438 L 1218.393676757812 506.0137634277344 L 1283.256958007812 506.0137634277344 L 1283.256958007812 549.5792236328125 L 1289.931274414062 549.5792236328125 L 1289.931274414062 521.1610107421875 L 1351.99658203125 521.1610107421875 L 1351.9970703125 640.5401000976562 Z" stroke="none" fill="#000"/>
    </g>
</svg>
