<svg id="Group_5" data-name="Group 5" xmlns="http://www.w3.org/2000/svg" width="30" height="30" viewBox="0 0 30 30">
    <g id="Ellipse_5" data-name="Ellipse 5" fill="#fff" stroke="#707070" stroke-width="1">
        <circle cx="15" cy="15" r="15" stroke="none"/>
        <circle cx="15" cy="15" r="14.5" fill="none"/>
    </g>
    <path id="phone-volume" d="M4.04,21.042a13.791,13.791,0,0,1,0-19.5.714.714,0,0,1,.883-.1l2.69,1.682a.713.713,0,0,1,.284.87L6.552,7.351a.713.713,0,0,1-.733.445L3.5,7.564a11.025,11.025,0,0,0,0,7.451l2.316-.232a.713.713,0,0,1,.733.445L7.9,18.591a.713.713,0,0,1-.284.87l-2.69,1.682a.713.713,0,0,1-.883-.1ZM10.257,3.963a2.658,2.658,0,0,1,0,2.7.5.5,0,0,1-.777.107l-.248-.238a.5.5,0,0,1-.094-.6,1.331,1.331,0,0,0,0-1.243.5.5,0,0,1,.094-.6l.248-.238A.5.5,0,0,1,10.257,3.963ZM14.067.178a7.98,7.98,0,0,1,0,10.27.5.5,0,0,1-.729.039l-.241-.231a.5.5,0,0,1-.039-.68,6.65,6.65,0,0,0,0-8.526A.5.5,0,0,1,13.1.37l.241-.231a.5.5,0,0,1,.729.039ZM12.159,2.043a5.321,5.321,0,0,1,0,6.539.5.5,0,0,1-.741.054L11.176,8.4a.5.5,0,0,1-.053-.661,3.99,3.99,0,0,0,0-4.862.5.5,0,0,1,.053-.661l.241-.232a.5.5,0,0,1,.741.054Z" transform="translate(1.852 13.122) rotate(-45)" fill="#001e46"/>
</svg>
