<svg xmlns="http://www.w3.org/2000/svg" width="29.939" height="29.938" viewBox="0 0 29.939 29.938">
    <g id="Layer_x0020_1" transform="translate(0.015 0.015)">
        <circle id="Ellipse_4" data-name="Ellipse 4" cx="14.954" cy="14.954" r="14.954" fill="#30bf39" stroke="#2b2a29" stroke-miterlimit="22.926" stroke-width="0.03"/>
        <path id="Path_61" data-name="Path 61" d="M51.455,58.67A12.065,12.065,0,0,0,39.393,70.742,13.91,13.91,0,0,0,41.143,77L39.03,83.423l6.607-2.113A12.215,12.215,0,0,0,51.455,82.8a12.067,12.067,0,0,0,0-24.134h0Z" transform="translate(-36.714 -55.905)" fill="#fefefe" stroke="#30bf39" stroke-miterlimit="22.926" stroke-width="0.81" fill-rule="evenodd"/>
        <path id="Path_62" data-name="Path 62" d="M42.045,80.28l-.128.043.011-.043.021-.085.032-.075L42,80.035l.032-.075.021-.085.032-.075.021-.075.032-.085.021-.075.032-.085.021-.075.032-.075.021-.085.032-.075.021-.085.032-.075.021-.085.032-.075.021-.075.032-.085.021-.075.032-.085.021-.075.032-.075.021-.085.032-.075.021-.085.032-.075.021-.085.032-.075.021-.075.021-.085.032-.075.032-.085.021-.075.021-.085.032-.075.021-.075.032-.085.021-.075.032-.085.021-.075.032-.075.021-.085.032-.075.021-.085h.011s-.021-.032-.053-.075c-.021-.021-.032-.053-.053-.075s-.032-.053-.053-.085-.032-.053-.053-.075-.032-.053-.043-.085-.032-.053-.053-.075-.032-.053-.043-.085A.45.45,0,0,1,42.75,76c-.011-.021-.032-.053-.043-.075s-.032-.053-.043-.085a.267.267,0,0,1-.043-.075.32.32,0,0,1-.043-.085.268.268,0,0,1-.043-.075.214.214,0,0,1-.043-.085.172.172,0,0,1-.043-.075c-.011-.021-.032-.053-.043-.075a.32.32,0,0,0-.043-.085c-.011-.021-.021-.053-.032-.075s-.032-.053-.043-.085a.52.52,0,0,1-.032-.075.613.613,0,0,1-.043-.075c-.011-.032-.021-.053-.032-.085s-.032-.053-.043-.075-.021-.053-.032-.085-.021-.053-.032-.075a.52.52,0,0,0-.032-.075c-.011-.032-.021-.053-.032-.085s-.021-.053-.032-.075a.32.32,0,0,0-.043-.085.2.2,0,0,1-.021-.075c-.011-.032-.021-.053-.032-.085s-.021-.053-.032-.075a.735.735,0,0,1-.032-.085.519.519,0,0,1-.032-.075c-.011-.021-.011-.053-.021-.075s-.021-.053-.032-.085a.2.2,0,0,1-.021-.075c-.011-.032-.021-.053-.032-.085a.684.684,0,0,1-.021-.075.2.2,0,0,1-.021-.075c-.011-.032-.021-.053-.032-.085s-.011-.053-.021-.075a.251.251,0,0,1-.021-.085.2.2,0,0,1-.021-.075.271.271,0,0,1-.021-.075.251.251,0,0,1-.021-.085.2.2,0,0,1-.021-.075c-.011-.032-.011-.053-.021-.085s-.011-.053-.021-.075-.011-.053-.021-.085-.011-.053-.011-.075-.011-.053-.021-.075-.011-.053-.021-.085-.011-.053-.011-.075a.235.235,0,0,1-.011-.085c-.011-.021-.011-.053-.021-.075s-.011-.053-.011-.075a.235.235,0,0,1-.011-.085c-.011-.021-.011-.053-.021-.075a.235.235,0,0,0-.011-.085.182.182,0,0,0-.011-.075.235.235,0,0,0-.011-.085,754.193,754.193,0,0,0-.021-.149v-.085a.182.182,0,0,1-.011-.075.235.235,0,0,0-.011-.085V71.25c0-.032-.011-.053-.011-.075V71.09c0-.021-.011-.053-.011-.075v-.32a.182.182,0,0,1-.011-.075h0c0-.032.011-.053.011-.085v-.31a.235.235,0,0,1,.011-.085v-.16c0-.021.011-.053.011-.075V69.82c0-.021.011-.053.011-.075a.182.182,0,0,1,.011-.075v-.085c0-.021.011-.053.011-.075s.011-.053.011-.085a.182.182,0,0,1,.011-.075.235.235,0,0,1,.011-.085.208.208,0,0,1,.011-.075.182.182,0,0,1,.011-.075c0-.032.011-.053.011-.085s.011-.053.011-.075a.235.235,0,0,0,.011-.085c.011-.021.011-.053.021-.075s.011-.053.011-.075.011-.053.021-.085.011-.053.011-.075.011-.053.021-.085.011-.053.011-.075a.677.677,0,0,1,.021-.075.2.2,0,0,1,.021-.085.2.2,0,0,1,.021-.075c0-.032.011-.053.011-.085a.2.2,0,0,0,.021-.075.251.251,0,0,0,.021-.085.2.2,0,0,0,.021-.075c.011-.021.021-.053.032-.075a.251.251,0,0,1,.021-.085.2.2,0,0,1,.021-.075.251.251,0,0,0,.021-.085c.011-.021.021-.053.032-.075s.011-.053.021-.085a.52.52,0,0,0,.032-.075c.011-.021.011-.053.021-.075s.021-.053.032-.085.021-.053.032-.075.021-.053.032-.085a.2.2,0,0,0,.021-.075.52.52,0,0,1,.032-.075c.011-.032.021-.053.032-.085a.267.267,0,0,0,.043-.075c.011-.032.021-.053.032-.085s.021-.053.032-.075.021-.053.032-.085a.268.268,0,0,0,.043-.075c.011-.021.021-.053.032-.075a.32.32,0,0,0,.043-.085.268.268,0,0,1,.043-.075c.011-.032.021-.053.032-.085a.267.267,0,0,0,.043-.075.465.465,0,0,1,.043-.075c.011-.032.032-.053.043-.085s.032-.053.043-.075.032-.053.043-.085a.268.268,0,0,0,.043-.075c.021-.032.032-.053.053-.085a.463.463,0,0,0,.043-.075c.021-.021.032-.053.053-.075s.032-.053.043-.085.032-.053.053-.075.032-.053.053-.085.032-.053.053-.075a.192.192,0,0,1,.053-.075.374.374,0,0,1,.053-.085c.021-.021.032-.053.053-.075a.375.375,0,0,0,.053-.085c.021-.021.043-.053.064-.075a.374.374,0,0,0,.053-.085c.021-.021.043-.053.064-.075s.043-.053.064-.075.043-.053.064-.085.043-.053.064-.075.043-.053.064-.085.043-.053.064-.075a.464.464,0,0,1,.064-.075.534.534,0,0,0,.075-.085.494.494,0,0,1,.075-.075.535.535,0,0,1,.075-.085c.021-.021.043-.053.064-.075l.085-.085a.494.494,0,0,1,.075-.075l.075-.075.085-.085.075-.075c.032-.032.064-.053.1-.085a.61.61,0,0,1,.085-.075.644.644,0,0,1,.085-.085.535.535,0,0,0,.085-.075c.032-.021.064-.053.1-.075s.064-.053.1-.085.064-.053.1-.075a.933.933,0,0,1,.107-.085c.032-.021.064-.053.1-.075s.075-.053.107-.075.075-.053.107-.085.075-.053.117-.075a2.287,2.287,0,0,1,.235-.16.441.441,0,0,1,.117-.075.891.891,0,0,1,.128-.085c.043-.021.085-.053.128-.075a1.581,1.581,0,0,1,.139-.085c.043-.021.1-.053.139-.075s.1-.053.149-.085.1-.053.149-.075a1.078,1.078,0,0,1,.16-.075c.053-.032.107-.053.16-.085s.117-.053.171-.075.128-.053.181-.085.128-.053.192-.075.139-.053.213-.085.149-.053.224-.075a1.511,1.511,0,0,1,.235-.075c.085-.032.171-.053.256-.085s.192-.053.3-.075.213-.053.331-.085.256-.053.395-.075c.171-.032.342-.053.523-.075a9.489,9.489,0,0,1,2.54,0c.171.021.352.043.523.075.128.021.267.053.395.075.107.032.224.053.331.085s.192.053.288.075.181.053.267.085a1.991,1.991,0,0,1,.235.075c.075.021.149.053.224.075s.139.053.2.085.128.053.192.075.128.053.181.085.117.053.181.075.107.053.16.085a1.078,1.078,0,0,1,.16.075c.053.021.1.053.149.075s.1.053.149.085.1.053.139.075a1.579,1.579,0,0,0,.139.085c.043.021.085.053.128.075a.89.89,0,0,1,.128.085c.032.021.075.043.117.075a1.125,1.125,0,0,1,.117.075l.117.085c.032.021.075.053.107.075l.117.085a.587.587,0,0,1,.1.075.923.923,0,0,1,.107.075c.032.032.064.053.1.085a.921.921,0,0,1,.107.075c.032.032.064.053.1.085a.61.61,0,0,0,.085.075.587.587,0,0,0,.1.075l.085.085a.61.61,0,0,1,.085.075l.085.085c.032.021.053.053.085.075a.645.645,0,0,0,.085.085.493.493,0,0,0,.075.075l.075.075a.534.534,0,0,1,.075.085.493.493,0,0,1,.075.075.535.535,0,0,1,.075.085.493.493,0,0,0,.075.075c.021.032.043.053.064.085l.075.075c.021.021.043.053.064.075s.043.053.064.085.043.053.064.075.043.053.064.085.043.053.064.075.032.053.053.075.043.053.064.085.032.053.053.075.043.053.064.085a.324.324,0,0,0,.053.075c.021.032.032.053.053.085a.452.452,0,0,1,.053.075c.021.021.032.053.053.075a.374.374,0,0,0,.053.085c.011.021.032.053.043.075s.032.053.053.085.032.053.053.075a.172.172,0,0,0,.043.075c.011.032.032.053.043.085s.032.053.053.075a.319.319,0,0,0,.043.085.268.268,0,0,0,.043.075.32.32,0,0,0,.043.085.61.61,0,0,0,.043.075c.011.021.021.053.032.075a.32.32,0,0,1,.043.085c.011.021.032.053.043.075s.021.053.032.085a.268.268,0,0,1,.043.075c.011.021.021.053.032.075s.032.053.043.085.021.053.032.075.021.053.032.085.021.053.032.075.021.053.032.085a.52.52,0,0,1,.032.075c.011.021.021.053.032.075s.021.053.032.085.021.053.032.075.011.053.021.085.021.053.032.075a.521.521,0,0,0,.032.075.251.251,0,0,0,.021.085.2.2,0,0,1,.021.075c.011.032.021.053.032.085s.011.053.021.075.011.053.021.085a1440.6,1440.6,0,0,0,.043.149.251.251,0,0,1,.021.085.2.2,0,0,1,.021.075.251.251,0,0,1,.021.085c.011.021.011.053.021.075s.011.053.021.085.011.043.011.075a.2.2,0,0,1,.021.075c.011.032.011.053.021.085s.011.053.011.075.011.053.021.085.011.043.011.075a.182.182,0,0,1,.011.075c.011.032.011.053.021.085a.182.182,0,0,0,.011.075c0,.032.011.053.011.085s.011.053.011.075.011.053.011.075.011.053.011.085.011.053.011.075a.235.235,0,0,0,.011.085v.075a.235.235,0,0,1,.011.085c0,.021.011.053.011.075v.075a.235.235,0,0,1,.011.085v.075a.235.235,0,0,1,.011.085v.075c0,.032.011.053.011.085v.79c0,.021-.011.053-.011.075v.085a.208.208,0,0,1-.011.075v.075a.235.235,0,0,1-.011.085v.075c0,.032-.011.053-.011.085a.182.182,0,0,1-.011.075v.075a.235.235,0,0,0-.011.085c0,.021-.011.053-.011.075s-.011.053-.011.085-.011.053-.011.075-.011.053-.011.085-.011.053-.011.075a.182.182,0,0,0-.011.075c-.011.032-.011.053-.021.085a.182.182,0,0,1-.011.075c0,.032-.011.053-.011.085s-.011.053-.021.075-.011.053-.011.075-.011.053-.021.085a.2.2,0,0,1-.021.075c0,.032-.011.053-.011.085s-.011.053-.021.075-.011.053-.021.085a.271.271,0,0,1-.021.075.2.2,0,0,1-.021.075.251.251,0,0,1-.021.085.2.2,0,0,1-.021.075.251.251,0,0,1-.021.085c-.011.021-.011.053-.021.075a.68.68,0,0,1-.021.075c-.011.032-.021.053-.032.085a.2.2,0,0,1-.021.075.251.251,0,0,0-.021.085c-.011.021-.021.053-.032.075a.519.519,0,0,1-.032.075c-.011.032-.011.064-.021.085s-.021.053-.032.075-.021.053-.032.085-.021.053-.032.075-.021.053-.032.085-.021.053-.032.075a.734.734,0,0,0-.032.085.52.52,0,0,0-.032.075c-.011.021-.021.053-.032.075s-.032.053-.043.085-.021.053-.032.075a.32.32,0,0,1-.043.085.52.52,0,0,0-.032.075.464.464,0,0,1-.043.075.319.319,0,0,1-.043.085c-.011.021-.021.053-.032.075a.319.319,0,0,0-.043.085.268.268,0,0,0-.043.075.613.613,0,0,0-.043.075.32.32,0,0,0-.043.085c-.021.021-.032.053-.053.075s-.032.053-.043.085A.267.267,0,0,0,60,75.84c-.021.032-.032.053-.053.085s-.032.053-.053.075-.032.053-.043.075a.374.374,0,0,0-.053.085c-.021.021-.032.053-.053.075s-.032.053-.053.085-.032.053-.053.075a.374.374,0,0,0-.053.085.464.464,0,0,0-.064.075c-.021.021-.032.053-.053.075s-.043.053-.064.085-.032.053-.053.075-.043.053-.064.085-.043.053-.064.075-.043.053-.064.075-.043.053-.064.085-.043.053-.064.075a.535.535,0,0,0-.075.085c-.021.021-.043.053-.064.075a.535.535,0,0,0-.075.085l-.075.075a.493.493,0,0,1-.075.075.535.535,0,0,1-.075.085l-.075.075a.535.535,0,0,0-.075.085.61.61,0,0,0-.085.075.534.534,0,0,1-.085.075l-.085.085a.611.611,0,0,1-.085.075l-.085.085c-.032.021-.064.053-.1.075a.645.645,0,0,0-.085.085.586.586,0,0,0-.1.075.925.925,0,0,1-.107.075c-.032.032-.064.053-.1.085a.924.924,0,0,1-.107.075c-.032.032-.064.053-.1.085s-.075.053-.117.075a.649.649,0,0,1-.107.075l-.117.085a1.124,1.124,0,0,1-.117.075,1.118,1.118,0,0,0-.117.085c-.043.021-.085.053-.128.075a1.584,1.584,0,0,1-.139.085c-.043.021-.085.053-.128.075s-.1.053-.139.075-.1.053-.149.085-.1.053-.149.075-.107.053-.16.085-.107.053-.16.075a1.3,1.3,0,0,1-.181.075c-.053.032-.117.053-.181.085s-.128.053-.192.075-.139.053-.2.085-.149.053-.224.075-.16.053-.235.085-.171.053-.267.075a2.853,2.853,0,0,1-.288.075c-.107.032-.224.064-.331.085-.128.021-.267.053-.395.075-.171.032-.352.064-.523.085a10.021,10.021,0,0,1-1.27.075,10.694,10.694,0,0,1-1.185-.075c-.171-.021-.342-.053-.5-.085-.128-.021-.267-.053-.395-.075-.107-.021-.213-.053-.32-.085a2.267,2.267,0,0,1-.288-.075c-.1-.021-.181-.053-.267-.075s-.171-.053-.246-.085-.149-.053-.224-.075-.149-.053-.213-.085-.139-.053-.2-.075-.128-.053-.192-.085a.923.923,0,0,1-.181-.075c-.064-.032-.117-.053-.171-.075s-.117-.053-.171-.085-.107-.053-.16-.075-.107-.053-.16-.085-.1-.053-.149-.075-.1-.053-.139-.075-.1-.064-.139-.085-.1-.053-.139-.075c-.053-.043-.1-.064-.117-.085l-.021-.011-.043.011-.245.085-.246.075-.246.085-.235.075-.246.075-.246.085-.245.075-.235.085L43.5,79.8l-.245.075-.246.085-.235.075-.246.085-.246.075-.235.085h0Z" transform="translate(-36.569 -55.783)" fill="#30bf39" fill-rule="evenodd"/>
        <path id="Path_63" data-name="Path 63" d="M46.445,65.063a1.385,1.385,0,0,1,.491-.2h.95a.537.537,0,0,1,.374.31c.117.267.918,2.156.971,2.295a.762.762,0,0,1-.032.822c-.246.331-.769.929-.769.929a.376.376,0,0,0-.032.48A9.7,9.7,0,0,0,50.032,71.7a7.526,7.526,0,0,0,2.338,1.452c.5.171.608-.053.8-.3l.8-1.014a.463.463,0,0,1,.608-.107c.406.181,2.38,1.142,2.38,1.142a.321.321,0,0,1,.256.31,2.14,2.14,0,0,1-.534,1.847,3.613,3.613,0,0,1-2.957.929,11.573,11.573,0,0,1-4.665-2.284,15.269,15.269,0,0,1-3.33-4.1,3.876,3.876,0,0,1-.459-2.113,3.313,3.313,0,0,1,1.174-2.4h0Z" transform="translate(-36.294 -55.488)" fill="#fefefe" fill-rule="evenodd"/>
    </g>
</svg>
