<svg xmlns="http://www.w3.org/2000/svg" width="31" height="31" viewBox="0 0 31 31">
    <path id="envelope-open" d="M30,27.187A2.812,2.812,0,0,1,27.188,30H2.813A2.812,2.812,0,0,1,0,27.187V11.761A2.812,2.812,0,0,1,1.077,9.548C2.537,8.4,3.743,7.475,10.7,2.428,11.684,1.709,13.64-.02,15,0c1.359-.021,3.316,1.709,4.3,2.428,6.954,5.047,8.162,5.976,9.621,7.12A2.813,2.813,0,0,1,30,11.761Zm-3.848-11.52a.468.468,0,0,0-.664-.112c-1.339.989-3.25,2.385-6.186,4.516-.986.719-2.942,2.448-4.3,2.428-1.36.02-3.314-1.708-4.3-2.428-2.936-2.131-4.848-3.528-6.186-4.516a.468.468,0,0,0-.664.112l-.532.773a.469.469,0,0,0,.108.643c1.341.99,3.249,2.384,6.17,4.5,1.188.866,3.312,2.8,5.406,2.787,2.093.014,4.216-1.92,5.406-2.787,2.921-2.12,4.829-3.514,6.17-4.5a.469.469,0,0,0,.108-.643Z" transform="translate(0.5 0.5)" fill="#ebecec" stroke="#ffed00" stroke-width="1"/>
</svg>
