<svg xmlns="http://www.w3.org/2000/svg" width="122.878" height="191.76" viewBox="0 0 122.878 191.76">
    <path id="Path_34397" data-name="Path 34397" d="M759.79,780.21c-.439.115-.584.533-1.159.491a6.26,6.26,0,0,1-.7-1.212A3.582,3.582,0,0,1,759.79,780.21ZM794.871,666.2c-.093.136-10.625.867-10.686.972-.375.584-.827.982-1.164,1.452-.483,2.644-2.336,3.856-2.554,6.771-1.825,2.09-3.448,5.4-5.107,7.753a21.909,21.909,0,0,1-3.255,3.625c-.256.229-.433.491-.7.731-.3.272-.679.261-.929.48-.412.376-.744,1.066-1.163,1.452-.242.23-.7.282-.926.48-.251.23-.474.512-.7.731-.775.752-1.757,1.776-2.787,2.665-1.245,1.065-2.118,2.09-3.254,2.183-2.068.157-3.991-1.828-5.111-2.664-.485-.365-.933-.951-1.625-.972-.492-.46-.523-1.389-1.16-1.692-1.787-.722-3.153-1.881-5.118-2.424-.3-4.044-1.543-7.1-1.157-11.859-.508-1.619-1.095-2.9-1.393-4.357-.3-1.472-.02-3.155-.7-4.848a18.158,18.158,0,0,0,5.808-1.933c.338-.856,1.032-1.348.93-2.664.4-.543,1.325-.554,1.394-1.452-.325-1.662.9-2.32.234-3.626.977-.272,1.908-.6,1.855-1.943-.5-1.974-3.043-1.829-3.251-4.117.788-1.275,3.744-.292,5.11-.961-.654-1.18-2.539-1.065-3.483-1.943a11.059,11.059,0,0,1,3.483-3.385c.3-.209.771-.229,1.164-.48.1-.073.125-.407.23-.491.2-.157.521-.094.7-.24.1-.085.128-.387.229-.481.177-.177.5-.073.7-.24a12.011,12.011,0,0,0,1.859-2.424c.253-.408.549-.742.692-.972.3-.459.464-.888.7-1.2a27.415,27.415,0,0,1,2.1-2.183c.25-.283.694-.439.927-.732.146-.178.1-.554.231-.721.1-.136.34-.355.466-.491,1.08-1.191,2.332-2.256,3.486-3.385a16.921,16.921,0,0,1,3.714-3.145,21.194,21.194,0,0,0,4.414-.24c.667-.7.728.47,1.627.24.641-.867,1.594-1.1,2.32-1.693a4.254,4.254,0,0,1,2.557-1.212,26.616,26.616,0,0,1,1.8-2.027,15.1,15.1,0,0,1,1.938-1.887c0,3.247,6,44.9,5.554,45.55ZM749.8,637.393c-.377-.605-.943-.282-1.393-.48-.928-.429-1.647-1.839-2.554-2.665-.609-.565-1.446-.888-2.094-1.453-.586-.522-1.015-1.191-1.627-1.693a2.272,2.272,0,0,0-1.853.481c-1.412-.711-3.839-.366-5.114-1.213-1.635.48-3.221,2.017-5.341,1.213-.864.073-.874,1.023-1.4,1.452-.982-.063-1.181.7-1.857.96-2.14,3.553-5.521,6.823-4.181,13.322-.044.836-.823.92-.932,1.693.279,1.013.314,1.536-.7,1.692.442.815.941.157,1.86.24a6.649,6.649,0,0,1,1.163,2.424c.684,1.829,1.044,3.886,2.558,5.088a5.788,5.788,0,0,1-2.792,1.693,21.9,21.9,0,0,1-4.877,5.318c-1.561,2.915-2.12,6.53-3.486,9.926-1.148,2.863-1.847,7.136-2.552,10.658-.122.585-.084,1.139-.232,1.692-.093.344-.511.523-.233.972,0,2.675-1.877,4.659-2.322,7.5-.316,1.995.111,4.231-.242,6.3a22.087,22.087,0,0,1-1.161,3.385,23.321,23.321,0,0,0-1.161,3.385c-.242,1.537.129,3.2-.222,4.6A22.312,22.312,0,0,1,705.9,716.8a12.024,12.024,0,0,1-.464,1.441,4.035,4.035,0,0,1-.938.972c-.828-1.149-.2-3.824-1.394-4.6-.706.732-.568,1.546-.456,2.664-.668.679-.807,1.912-1.17,2.9-.947-.376-.074-2.665-.929-3.156.009-.72.631-2.068,0-2.654-.6-.24-.9,1.107-1.162,1.693-.705,1.6-1.448,4.43-.231,5.81-.474.23-.641.784-.929,1.212-.093.543-1.273-.042-1.161.72a2.51,2.51,0,0,1-2.09,0c-.149,1.213.705,1.369.7,2.425-.716,1.671-1.989,2.768-3.019,4.116-1.143,2.685-2.406,5.246-2.556,8.954-.139,1.359.326,2.079,1.626,1.944.845.063.306-1.3.7-1.7a15.612,15.612,0,0,1,1.394-5.57,6.59,6.59,0,0,1,1.161-1.692c.027-.032.222-.22.232-.241.111-.177.093-.533.232-.732.585-.784,1.579-1.389,1.858-2.413,1.283-.847,1.645-2.643,2.787-3.636.214-.5.01-1.442.939-1.212.985-.229.167,1.055.455,1.7a4.846,4.846,0,0,0,.464.24c.018.262-.418.575-.464.722a27.846,27.846,0,0,0,0,3.636c-.307,5.088-1.6,9.852-.929,15.244,1.227,1.546,2.108,3.458,3.252,5.088-.057,1.4-1.255,2.3-1.394,3.636-.1,1.055.566,2.017.464,3.385.678.585,1.717.785,2.09,1.693.019,1.463-.734,2.57-.7,3.876a5.352,5.352,0,0,0,.473,1.453,6.49,6.49,0,0,0,.7,1.933c.594,1.014,1.486,2.926,2.555,3.636a5.949,5.949,0,0,0,1.151,3.385c-.038,1.829.409,3.124.242,5.088a21.328,21.328,0,0,1-3.484-.24c-1.571-.711-2.535-2.184-3.957-3.155-.725-.491-1.811-.919-2.322-1.933-1.524.052-2.249-.72-3.251-1.211-.939.156-1.171,1.034-2.323.971-4.9-1.044-7.822-5.391-13.944-4.357-1.244-.533-2.527-1.3-3.715-.972-1.515.428-2.09,3-2.556,5.329a18.475,18.475,0,0,0-.464,6.53,4.041,4.041,0,0,0,1.858.251,40.232,40.232,0,0,1-1.394,6.291c-.009.961-1.1.783-1.393,1.452a43.461,43.461,0,0,0,.232,13.551c.464,2.361,1.227,4.357,2.787,5.328,1.627-.48,3.559-.648,4.877-1.452.613-1.787,1.254-3.375.7-5.329.9-.919,1.087-2.581,1.635-3.866.791-1.191,1.487-2.476,2.323-3.636a2.3,2.3,0,0,1,1.624-.971c.2-1.724,1.97-1.818,2.788-2.894.966.188.539,1.849,1.16,2.413,1.153.972,2.629,1.5,3.949,2.424.595.407.994,1.066,1.626,1.452a38.86,38.86,0,0,0,7.9,2.9,6.01,6.01,0,0,1,3.03,1.452,4.731,4.731,0,0,1,2.08.241c1.16.574,1.932,1.546,3.028,2.183a32.887,32.887,0,0,1,6.271.721,23.537,23.537,0,0,0,4.412-.24,15.617,15.617,0,0,0,2.326,0,9.592,9.592,0,0,0,2.554-1.933,10.145,10.145,0,0,0,3.487-4.357c.209-.439.237-.992.463-1.452.178-.376.543-.585.7-.972a40.03,40.03,0,0,0,1.393-5.569c.417-1.818,1.012-3.647,1.395-5.569a271.9,271.9,0,0,0,3.95-30.989c3.017-.523,5.979-.063,8.363-.48.845-.146,1.654-.554,2.787-.731,2.193-.335,4.083-.178,5.81-1.2.84,1.1.615,1.107.232,2.413-.22.753-1.268,1.306-.93,2.425-.9.919-1.921,1.713-2.091,3.384-.849.324-1.671.69-2.556.972a89.571,89.571,0,0,0-7.9,14.283c-.246,1.065.785.793.7,1.692-1.569,2.32-2.445,5.36-4.649,7.021a33.154,33.154,0,0,1-1.627,4.357v2.425c.247,1.055-.784.794-.7,1.694-1.746,3,1.8,4.126,4.882,4.847,2.619.6,5.373.763,6.738.961.478-.386.286-1.472.7-1.933a50.587,50.587,0,0,1,6.968,1.933c.39.24.167,1.118.7,1.212,1.1.324,3.276.46,4.88.721.411.073.769-.272,1.622-.23,3.793.147,7.8.627,10.922-.731a19.015,19.015,0,0,1,1.627,1.212c.179.115.488.095.7.24.4.272.588.731.927.962.379.261.791.25,1.16.491,1.155.732,2.188,1.432,3.485,2.174.151.094.535.115.7.251a7.442,7.442,0,0,0,.93.721c.351.209.65.418,1.158.731a54.654,54.654,0,0,1,4.648,3.385c.662.511,1.171,1.369,2.09,1.452.913-.177,1.25-.961,1.625-1.692a3.489,3.489,0,0,0,1.165-2.184c-.278-.867-1.36-1.3-2.095-1.692-.757-.418-1.558-.784-2.322-1.212-1.579-.888-3.086-1.85-4.645-2.664a42.041,42.041,0,0,0-8.827-5.809,5.615,5.615,0,0,0-1.4-2.9,18.491,18.491,0,0,0-5.343-.971c-1.365-.909-2.687-1.87-3.954-2.894-.409-.7-1.57-.627-1.624-1.7-.488-.617-1.521-.669-1.624-1.683.107-1.347,1.18-1.682,1.857-2.424a9.491,9.491,0,0,0,2.09-2.183,3.755,3.755,0,0,0-2.556-2.183c-1.73.71-1.547,3.4-3.25,4.116-.43-2.705,1.63-2.82,2.552-4.116.351-1.808,1.624-3.25,2.555-4.838,2.331-3.959,5.016-8.013,7.671-12.1.11-.188.093-.532.229-.732a6.678,6.678,0,0,0,.7-.972c.246-.438.806-1.076,1.164-1.692.435-.742.73-1.661,1.158-2.413s1.031-1.452,1.395-2.184c.425-.846.714-1.6,1.162-2.424.838-1.526,1.754-3.061,2.557-4.6a15.788,15.788,0,0,0,2.322-7.741,11.172,11.172,0,0,0-1.624-5.57,10.036,10.036,0,0,0-3.954-3.635c-1.583-.763-3.249-.784-5.342-1.212-.711-.135-1.41-.565-2.087-.721-.788-.177-1.61-.1-2.329-.24a77.6,77.6,0,0,0-13.241-1.693c-.826,0-1.471.282-2.091.24-.915-.063-1.9-.606-3.02-.731a17.089,17.089,0,0,0-6.039.491c1.538-4.451,2.043-9.978,2.556-15.5,6.123,1.128,12.13,2.372,19.281,2.424.945-.063,1.127-1.139,1.627-1.7.483-.532,1.112-.95,1.624-1.452a56.96,56.96,0,0,0,6.046-6.291c.644-.856,1.164-1.954,1.854-2.9.932-1.285,1.816-3.428,2.788-5.088a5.525,5.525,0,0,1,.7-1.2c.189-.209.277-.532.465-.731a13.542,13.542,0,0,0,.693-1.212c1.489-2.529,2.758-6.007,5.112-7.993.938-.145,1.171-1.034,2.325-.961a5.08,5.08,0,0,1,2.322-1.933c-.044-.7-.026-1.326.7-1.211.167-1.358.914-2.121,1.159-3.4a6.168,6.168,0,0,0-.232-2.414,3.872,3.872,0,0,0,.232-2.424c.3-1.065,1.323-1.368,1.4-2.664-1.654-14.543-2.392-19.176-2.9-23.952s-1.559-9.077-2.658-21.6c-1.268-.449-1.745-1.477-2.808-2.135-2.236-.262-3.477-1.546-5.112-2.424a3.133,3.133,0,0,0-1.626.24c-.881.366-1.692,1.39-2.79,2.185-1.376.992-2.861,1.933-3.948,2.664-1.368.91-2.635,1.818-3.949,2.664-.33.209-.855.272-1.162.48-.243.157-.5.449-.928.722-1.05.668-1.955,1.306-3.022,1.943-1.265.753-2.8,1.6-4.182,2.414-.4.24-.79.272-1.159.491s-.558.47-.93.722c-.332.218-.8.272-1.164.491a21.231,21.231,0,0,0-6.738,6.29Z" transform="translate(-672.016 -616.055)" fill="#2b2a29" fill-rule="evenodd"/>
</svg>
