<svg xmlns="http://www.w3.org/2000/svg" width="138.301" height="163.544" viewBox="0 0 138.301 163.544">
    <g id="Logo_-_Footer" data-name="Logo - Footer" transform="translate(-468.609 -2619.181)">
        <path id="Path_34872" data-name="Path 34872" d="M287.007,248.691a139.638,139.638,0,0,0-64.267,43.174,19.307,19.307,0,0,0-1.12,21.677,196.048,196.048,0,0,0,44.266,52.57,16.567,16.567,0,0,0,11.643,2.528A116.1,116.1,0,0,0,340.383,341.7a16.647,16.647,0,0,0,3.788-12.01,131.524,131.524,0,0,0-38.3-77.363,18.754,18.754,0,0,0-18.869-3.641h0Z" transform="translate(253.792 2409.866)" fill="#ffed00" stroke="#393185" stroke-linejoin="bevel" stroke-miterlimit="22.926" stroke-width="8" fill-rule="evenodd"/>
        <g id="_1939670943616" transform="translate(514.452 2619.432)">
            <path id="Path_34533" data-name="Path 34533" d="M249.7,263.106a6.889,6.889,0,0,1-7.415-2.256,34.466,34.466,0,0,1-3.713-5.6q-2.413-4.145-3.444-6.148a27.571,27.571,0,0,1-1.625-4.337c-.9-3.224-1-5.51-.228-6.883a6.312,6.312,0,0,1,4.013-2.8,8.437,8.437,0,0,1,3.7.077,4.39,4.39,0,0,1,2.866,2.636c.665,2.394.688,3.828,1.715,6.09a31.944,31.944,0,0,0,3.066,4.411,19.626,19.626,0,0,1,3.61,6.365c.746,2.688.92,4.639.422,5.882a4.092,4.092,0,0,1-2.972,2.562h0Z" transform="translate(-232.755 -234.912)" fill="#e31e24" stroke="#000" stroke-miterlimit="22.926" stroke-width="0.5"/>
            <path id="Path_34534" data-name="Path 34534" d="M282.166,256.059c-1.222,2.968-5.685,3-9.474,2.9a39.216,39.216,0,0,1-10.731-1.753c-3.29-1.005-5.484-2.054-6.541-3.182a4.212,4.212,0,0,1,.9-6.826,4.576,4.576,0,0,1,3.239-.472c6.432,1.773,14.667.927,19.943,5.006,1.347,1.043,3.321,2.726,2.662,4.328Z" transform="translate(-190.081 -211.458)" fill="#e31e24" stroke="#000" stroke-miterlimit="22.926" stroke-width="0.5"/>
            <path id="Path_34535" data-name="Path 34535" d="M266.244,244.479l-3.529,1.921a15.92,15.92,0,0,0-5.385,4.386c-1.285,1.753-2.284,5.08-4.021,6.495-3.083,2.515-6.347.887-7.838-2.012q-2.351-4.57,2.038-9.808a32.767,32.767,0,0,1,9.941-7.97,12.641,12.641,0,0,1,5.663-1.671c1.68.006,3.026.93,4.012,2.846.884,1.719.787,4.906-.88,5.813Z" transform="translate(-208.937 -233.095)" fill="#e31e24" stroke="#000" stroke-miterlimit="22.926" stroke-width="0.5"/>
        </g>
    </g>
</svg>
