<svg id="Component_223_1" data-name="Component 223 – 1" xmlns="http://www.w3.org/2000/svg" width="332.945" height="308.991" viewBox="0 0 332.945 308.991">
    <g id="Group_1663" data-name="Group 1663" transform="translate(134.474)">
        <path id="Path_34045" data-name="Path 34045" d="M973.392,790.735a48.972,48.972,0,0,1-1.181-4.931c-.05-.946-.05-6.969.1-12.495s-1-12.894-1.195-14.735.244-11.935.244-12.519.166-.827.584-.827,4.246,1.828,5.2,2.161a27.932,27.932,0,0,0,5.782,8.224,4.035,4.035,0,0,0,2.406-.677l1.972-1.592a25.427,25.427,0,0,0,.208,2.919c.167.834.917,4.037.959,4.287s-1.376,8.373-1.751,10a6.987,6.987,0,0,1-1.787,2.953c-.451.667-.208,1.5-.583,2.251a6.828,6.828,0,0,0-.792,2.2,8.153,8.153,0,0,0,.542,2.252c.167.541.629,2.674.629,2.674l-11.341,7.852Zm-62.425,21.33s.261,4.77.187,5.366a29.344,29.344,0,0,0-.3,3.8c.075.82.784,3.315.9,3.949a12.668,12.668,0,0,1,.149,1.3,14.925,14.925,0,0,0-.6-1.827,10.784,10.784,0,0,0-1.3-2.421c-.484-.522-.744-.633-1.005-.969s.074-3.019.186-3.877,1.789-5.328,1.789-5.328Zm1.156,17.253.484,1.565s.038.075.373.3.134,1.489.134,1.489l-.939.658s-.091-.619-.127-1.029S912.16,829.951,912.123,829.317Zm46.348,22.7a85.7,85.7,0,0,0,12.351-24.3c.41-1.253.593-1.946.593-1.946a18.538,18.538,0,0,0,2.374.082c.494-.082.513-.271.513-.271a20.641,20.641,0,0,0-.1-4.182c-.3-1.1,1.991-12.744,2.389-14.138a8.757,8.757,0,0,0,.3-2.988c0-.8-2.11-7.307-2.11-7.307l12-8.4s2.072,1.113,3.184.86,1.873-1.921,1.873-1.921,1.769.4,2.427-.151a4.5,4.5,0,0,0,1.011-1.871,3.933,3.933,0,0,0,2.276-.506,5.321,5.321,0,0,0,1.164-1.873,3.988,3.988,0,0,0,1.719.3,3.6,3.6,0,0,0,1.718-2.123,39.57,39.57,0,0,0-1.313-4.3c-.1-.354.151-5.207.1-5.511a14.743,14.743,0,0,0-1.719-2.884,3.185,3.185,0,0,1-.525-1.84s1.847-7.872,2.423-9.4a30.351,30.351,0,0,0,.808-5.8s.577-4.386.116-5.91-4.3-6.488-4.3-6.488.949-.923.141-1.731-10.437-7.526-10.437-7.526-14.706-12.168-15.769-13.552-5.54-3.372-8.564-3.6-14.129-3.807-16.925-4.27-3.54.013-3.54.013a5.613,5.613,0,0,0-2.242-1.1l-.844.373c-1.855-.024-3.705.193-5.067-.449l-1.339-2.822a4.559,4.559,0,0,1,.278-.364l.443-1.864.2,1.073c.123-.164.246-.34.367-.534l.284-2.069.128,1.306a7.047,7.047,0,0,0,.467-1.42,69.71,69.71,0,0,0-1.4-7.226,8.676,8.676,0,0,0-1.46-1.826l.247-1.323c2.093-1.436,4.041-3.226,4.144-4.685.208-2.982-1.3-3.286-1.3-3.286l-.593-2.432s-.394-.742-.993-.583c-2.669-8.2-6.039-12.711-11.212-13.91s-8.311.834-10.71,2.242c0,0-7.989,3.087-11.7,9.2-2.443,4.021-2.453,12.014-2.453,12.014l-.6.919a15.34,15.34,0,0,0,.653,2.68,56.466,56.466,0,0,0-4.442,6.215c-.783,1.67,1.042,2.722,1.042,2.722s5.419,1.85,7.231,2.337c0,0-.486,2.9-.571,3.326-.159.8.119,1.835.915,1.875a5.435,5.435,0,0,0,1.517-.239l.4.358.6,2.508.915.437s-.159.955.079,1.274a4.028,4.028,0,0,0,1.035.716l.278.4a9.893,9.893,0,0,0,.637,2.906,7.237,7.237,0,0,0,2.591,1.193,10.344,10.344,0,0,0,1.87-.317l-.955.339s-13.043,8.861-14.835,11.15-1.992,6.572-1.992,6.572.5.9-.5,3.584-2.191,19.615-2.39,20.611a27.3,27.3,0,0,0-.2,3.484,22.36,22.36,0,0,0-1.295,3.585c-.1.9,1.1,1.393,1.1,1.393s5.875,2.091,8.861,3.287c.3,2.091-1.692,12.446-1.692,14.736s1.393,13.042,1.393,15.035-.2,6.969-.2,9.856a70.291,70.291,0,0,0,.7,8.861,11.064,11.064,0,0,1-.1,2.588c0,.7-1.857,8.257-1.807,8.763s.355,4.245.355,4.245-.506,4.457-.406,5.116a4.4,4.4,0,0,0,.658,1.458s-29.818,20.68-31.163,21.528a1.489,1.489,0,0,0-.942.159s-15.184,11.948-17.573,14.088-4.083,8.363-5.029,10.006a22.672,22.672,0,0,1-2.141,3.036l-4.175.787a16.5,16.5,0,0,0-2.117-1.638,2.83,2.83,0,0,0-2.27.055s-19.017,4.082-20.908,4.879-5.477,1.593-8.662,6.073c3.385,3.086,14.337,1.892,16.03,1.493s17.822-2.986,20.411-4.281,8.712-5.077,8.712-5.077a12.816,12.816,0,0,0,2.189-.448,9.175,9.175,0,0,0,2.34-3.235c.2-.7-.8-.548-.8-.548a33.945,33.945,0,0,0-3.484.5c-.1-1.244.1-2.888,1.693-5.376a22.044,22.044,0,0,1,4.581-4.729l11.983-7.868s2.507-1.8,2.947-2.047a.788.788,0,0,0,.376-.752s31.019-21.635,31.925-22.29c.933.547,2.87,1.561,3.8.491s-1.121-2.35-1.121-2.35a4.008,4.008,0,0,0,.574-.383,9.616,9.616,0,0,0,3.475.464,2.883,2.883,0,0,0,1.421-.518,6.009,6.009,0,0,0,1.421-2.378l1.489.007.34,3.9c.327,3.39.678,9.023.911,11.941.4,4.994.9,25.284,1.293,28.091s1.992,6.555,5.178,18.937,5.441,16.06,6.126,17.114c.286,8.307,1.464,17.552,1.464,17.552s-1.807-.238-2.492-.417-6.943-2.327-9.282-2.208-2.834,2.922-2.434,3.877c-.493,1.073.608,3.438,1.978,4.63,4.2,3.818,11.946,4.989,13.543,5.109a12.639,12.639,0,0,0,3.917-.6l1.8.573s-.254,2.669.341,3.114a36.424,36.424,0,0,0-.256,6.391s-1.988,6.38-2.043,7.9c-.076,2.129.328,2.427.328,2.427-.243.631-.274,1.621,0,1.69,0,0,4.949.5,8.513,1.029s9.369.782,10.032,0a2.794,2.794,0,0,0,.243-1.245,3.8,3.8,0,0,0,.852-1.334c.425-.979.425-7.015.511-8.083a5.074,5.074,0,0,0-.681-2.389,1.456,1.456,0,0,0,1.361,0c.852-.356,2.724-2.579,3.576-3.736s.754-4.345.754-4.345.084-.178.765-1.333,1.277-7.193,1.277-8.26a3.342,3.342,0,0,0-1.022-2.567c0-6.57-2.541-17.943-2.541-17.943s-.425-8.869-.341-9.671-1.191-3.38-1.191-3.38a11.044,11.044,0,0,1,.6-2.922c.426-.8-.254-8.679-.254-8.679l-1.791-4.578a34.685,34.685,0,0,1,.4-5.2c.4-2.08-3.584-7.7-5.775-9.988,2.588-4.785,7.964-18.935,8.761-25.8Z" transform="translate(-803.748 -664.979)" fill="#484848"/>
        <path id="Path_34046" data-name="Path 34046" d="M825.426,709.5c.665,2.657,1.923,9.6,4.645,10.3.15.039.356.1.555.16a12.149,12.149,0,0,1-3.895.592c-1.6-.119-9.341-1.29-13.543-5.109-1.369-1.192-2.471-3.557-1.977-4.63-.4-.955.094-3.758,2.434-3.877s8.6,2.028,9.282,2.208,2.491.417,2.491.417l-.009-.072.016.012Zm7.091,19.667a9.348,9.348,0,0,1,1.528-3.626,4.728,4.728,0,0,1,3.2-1.088c.484-.047,5.094,1.226,5.974,1.319s5.3,2.513,5.724,2.854a5.358,5.358,0,0,1,1.529,1.758,4.449,4.449,0,0,1,.5,2.039c-.086,1.068-.086,7.1-.511,8.082a3.8,3.8,0,0,1-.852,1.334,2.8,2.8,0,0,1-.243,1.245c-.662.782-6.47.534-10.032,0s-8.512-1.029-8.512-1.029c-.274-.07-.243-1.059,0-1.691,0,0-.4-.3-.329-2.427.055-1.525,2.043-7.9,2.043-7.9s-.012-.338-.022-.866Z" transform="translate(-700.148 -434.59)" fill="#2b2a29" fill-rule="evenodd"/>
        <path id="Path_34047" data-name="Path 34047" d="M812.085,709.815c-.748.749-1.241,2.523-.877,3.188.4.728,4.912,4.855,5.9,5.762a.881.881,0,0,0,.921-.344,2.986,2.986,0,0,1,2.44-1.968,2.755,2.755,0,0,0-.025-.412,3.325,3.325,0,0,0-2.767,2.153.482.482,0,0,1-.373.19c-.958-.884-5.379-4.938-5.729-5.579a3.265,3.265,0,0,1,1-2.851l-.031-.05c-.121-.02-.274-.051-.451-.088Z" transform="translate(-669.629 -418.742)" fill="#2b2a29"/>
        <path id="Path_34048" data-name="Path 34048" d="M818.8,709.643l.042,1.771a1.427,1.427,0,0,1-.791,1.384,8.3,8.3,0,0,0-3.36,3.337c-.321.864-.224,1.705-1.482,1.275l-.115.395a2.981,2.981,0,0,0,.415.094c1.48.222,1.274-1.267,1.83-2.167a10.241,10.241,0,0,1,2.905-2.569,1.852,1.852,0,0,0,1.012-1.754l-.043-1.738-.175-.034Z" transform="translate(-681.496 -419.719)" fill="#2b2a29"/>
        <path id="Path_34049" data-name="Path 34049" d="M830.508,713.372c-.907.609-4.029.946-5.2.793-1.217-.159-6.368-1.577-7.9-1.748a39.579,39.579,0,0,0-6.167-.358.554.554,0,0,0,.137.238c-.021.055-.04.112-.058.171a39.9,39.9,0,0,1,6.043.358c1.524.172,6.672,1.589,7.888,1.748a13.8,13.8,0,0,0,4.909-.582c.007-.132.006-.22.006-.22a2.223,2.223,0,0,0,.34-.4Z" transform="translate(-680.703 -406.524)" fill="#2b2a29"/>
        <path id="Path_34050" data-name="Path 34050" d="M814.3,708.062c.295.41.859,1.164,1.594,2a13.881,13.881,0,0,0,4.128,3.39,64.715,64.715,0,0,0,10.9,3.324,21.58,21.58,0,0,0,2.407-.138l-.06-.016a2.131,2.131,0,0,1-.692-.329,14.545,14.545,0,0,1-1.632.071,65.11,65.11,0,0,1-10.752-3.287c-2.089-.967-4.483-3.641-5.778-5.564l-.042.027c.011.033.022.065.035.1a1.356,1.356,0,0,0-.11.43Z" transform="translate(-703.34 -431.408)" fill="#2b2a29"/>
        <path id="Path_34051" data-name="Path 34051" d="M812.619,710.646c1.121-.16,7.273.966,8.263,1.6.641.411,1,.121.439-.4-1.917-1.781-7.632-2.416-8.8-1.859C811.832,710.308,811.872,710.751,812.619,710.646Z" transform="translate(-676.895 -418.898)" fill="#2b2a29"/>
        <path id="Path_34052" data-name="Path 34052" d="M814.138,711.254c.128-.41-.259-.91-.867-1.116s-1.2-.04-1.329.372.26.909.867,1.116,1.2.04,1.329-.371" transform="translate(-668.735 -417.455)" fill="none" stroke="#2b2a29" stroke-miterlimit="3.864" stroke-width="0.064"/>
        <path id="Path_34053" data-name="Path 34053" d="M815.559,710.376c-.071-.426-.639-.677-1.267-.561s-1.078.554-1.006.979.638.676,1.266.561,1.078-.554,1.007-.979" transform="translate(-678.965 -418.9)" fill="none" stroke="#2b2a29" stroke-miterlimit="3.864" stroke-width="0.064"/>
        <path id="Path_34054" data-name="Path 34054" d="M813.031,716.723a7.879,7.879,0,0,1,4.3-3.295c.834-.255.4-3.58.4-3.58l-.81-.281s.642,2.876-.12,3.312c-3.242,1.854-3.779,3.844-3.779,3.844Z" transform="translate(-679.651 -420.106)" fill="#2b2a29" fill-rule="evenodd"/>
        <path id="Path_34055" data-name="Path 34055" d="M812.65,709.789s-1.121,2.856-.771,3.4a34.462,34.462,0,0,0,4.479,3.95,4.656,4.656,0,0,0,.63.22s-4.164-4.023-4.41-4.535.877-2.929.877-2.929l-.806-.11Z" transform="translate(-670.869 -418.885)" fill="#2b2a29" fill-rule="evenodd"/>
        <path id="Path_34056" data-name="Path 34056" d="M812.623,711.245c1.058-.419,7.3-.767,8.4-.384.715.249,1-.118.342-.5-2.252-1.285-7.958-.559-8.98.258-.6.479-.462.9.241.622Z" transform="translate(-676.86 -419.568)" fill="#2b2a29"/>
        <path id="Path_34057" data-name="Path 34057" d="M853.358,690.141h0l-.046.032-.091.063v0a43.939,43.939,0,0,1-5.044,2.989c-1.418.73-8.876,3.556-10.972,4.443a93.248,93.248,0,0,0-8.936,4.755,8.6,8.6,0,0,1-5.747,1.3l-.237-.061c-1.811-.488-7.231-2.338-7.231-2.338s-1.825-1.052-1.042-2.722a56.508,56.508,0,0,1,4.442-6.215,15.346,15.346,0,0,1-.653-2.68l.6-.919s.009-7.994,2.453-12.014c3.712-6.111,11.7-9.2,11.7-9.2,2.4-1.408,5.538-3.442,10.71-2.242s8.543,5.712,11.212,13.91c.6-.159.992.583.992.583l.593,2.432s1.512.3,1.3,3.286c-.1,1.427-1.965,3.17-4,4.589Z" transform="translate(-724.263 -664.979)" fill="#2b2a29" fill-rule="evenodd"/>
        <path id="Path_34058" data-name="Path 34058" d="M846.093,689.432c-1.307.742-2.621,1.369-3.694,1.887-.193-.741-.688-2.667-.88-3.6l.137-.119.126-.053.9-.433c.274-.13.552-.268.833-.412l.531-.267a6.024,6.024,0,0,1,.816-.374c.1.035.3.11.557.209C845.669,687.06,846.012,688.978,846.093,689.432Zm-32.172,2.145.21-.263-.023-.074.194-.019.229,2.317a3.829,3.829,0,0,0,1.883,2.539c2.25,1.16,6.453.729,9.116.131-.124-.452-.251-1.07.126-1.374l-.39-2.155a1.128,1.128,0,0,1,.1-.676c-3-.663-4.567-3.765-5.949-7.885-1.778-5.3,4.056-10.159,8.757-14.062,3.111-2.3,9.192-5.612,13.557-4.733a10.981,10.981,0,0,1,1.349.877l-.009.017c-5.295-2.724-14.591,4.125-14.642,4.163-4.814,4-10.288,8.637-8.62,13.606,1.728,5.152,3.62,8.326,7.938,7.643a18.074,18.074,0,0,0,2.3-.585.637.637,0,0,1,.175-.025c3.245-.933,7.847-2.543,7.857-2.546a32.488,32.488,0,0,0,4.579-1.8l.561-.278c3.392-1.726,7.172-4.507,6.931-8.259l.011.034a.642.642,0,0,1,.406.024,5.7,5.7,0,0,1-.281,2.074,1.139,1.139,0,0,1,.515.63c.025.12.434,2.705.609,3.817a4.64,4.64,0,0,0,.358-3.523,1.29,1.29,0,0,1,.5.294c.575,2.758-1.244,5.011-3.491,6.717-4.216,3.2-11.568,5.769-16.371,7.34-.013.212-.206.35-.38.434-.392.193-5.754,1.893-6.237,1.062l-.133-.433c-2.654.595-6.99,1.09-9.424-.165a4.194,4.194,0,0,1-2.019-2.518,2.714,2.714,0,0,1-.081-.326l-.2-2.02Zm37.153-6.3a13.785,13.785,0,0,1-4.6,3.931c-.044-.252-.121-.672-.213-1.133a16.625,16.625,0,0,0-.512-2.119l-.537-.209c2.078-1.282,4.069-2.981,4.922-5.085a.668.668,0,0,1,.256.317C850.42,681.135,851.074,685.281,851.074,685.281Zm-19.691,8.1-.425-1.66a1.057,1.057,0,0,0-.048-.129,1.3,1.3,0,0,0-.175-.294c1.019-.3,2.136-.653,3.185-.993,2.292-.744,4.278-1.439,4.278-1.439a30.456,30.456,0,0,0,2.92-1.052c.2.975.728,3.016.9,3.691l-.219.107c-2.452,1.2-8.342,3.151-9.519,3.536-.1-.317-.284-.926-.387-1.242a.761.761,0,0,0-.406-.488l-.107-.036Zm-5.4,2.921a6.091,6.091,0,0,1-.165-.826c-.035-.287.088-.32.292-.439l-.441-2.423c-.008-.232.009-.485.192-.525a6.911,6.911,0,0,0,1.947-.052,23.328,23.328,0,0,0,2.439-.6c.174.041.289.319.312.395l.491,1.925c.236.021.362,0,.451.275.143.439.446,1.44.446,1.44-.2.313-5.035,1.623-5.812,1.359l-.151-.53Z" transform="translate(-719.939 -663.899)" fill="#2b2a29"/>
        <path id="Path_34059" data-name="Path 34059" d="M815.555,668.728a.821.821,0,0,0-.407,1.083c.473.891,2.007.075,1.534-.815a.823.823,0,0,0-1.127-.268Zm.195.364a.364.364,0,1,1-.238.526.414.414,0,0,1,.238-.526Z" transform="translate(-691.776 -645.012)" fill="#2b2a29"/>
        <path id="Path_34060" data-name="Path 34060" d="M820.2,675.87l-.89,8.953s-1.32,9.97,0,12.984c1.021,2.335,4.056,5.6,5.374,6.96a1.024,1.024,0,0,0-.161.665c0,.519-.351,8.556-.288,11.626-.313,1.324-.819,2.818-1.448,2.4-1.079-.72-8.762-14.279-11.185-22.85-2.039-7.212-4.437-15.519-2.279-24.169,7.267-.544,10.06,2.572,10.877,3.431Z" transform="translate(-656.913 -624.356)" fill="#2b2a29" fill-rule="evenodd"/>
        <path id="Path_34061" data-name="Path 34061" d="M826.928,672.424c.865,1.719,1.947,10.152-8.694,16.7a11.249,11.249,0,0,1-5.517,1.221s8.182-5.8,9.915-9.792c2.472-5.7,1.387-8.114.6-8.68.023-.038.046-.075.069-.112l.558-.247a5.61,5.61,0,0,1,2.242,1.1A2.062,2.062,0,0,1,826.928,672.424Z" transform="translate(-687.206 -629.109)" fill="#2b2a29" fill-rule="evenodd"/>
        <path id="Path_34062" data-name="Path 34062" d="M818.1,673.045a6.267,6.267,0,0,0,.977,3.257,40.911,40.911,0,0,0,9.487,5.863,14.736,14.736,0,0,1-6.494.326c-1.371-.313-5.517-3.482-5.945-4.968a29.133,29.133,0,0,1-.672-4.051l2.647-.428Z" transform="translate(-706.063 -620.687)" fill="#2b2a29" fill-rule="evenodd"/>
        <path id="Path_34063" data-name="Path 34063" d="M827.357,674.421a44.7,44.7,0,0,1,1.343,5.151c.123.795-.122,7.737-.122,8.348s-.366,5.884-.306,7.532a18.448,18.448,0,0,0,.611,3.6,27.192,27.192,0,0,0-.184,4.234c.184.793.305,4.478.305,4.478a103.163,103.163,0,0,1-6.739-14.963c-2.442-7.288-3.87-11.094-3.908-12.194-.061-1.772,9-6.19,9-6.19Z" transform="translate(-725.378 -613.124)" fill="#2b2a29" fill-rule="evenodd"/>
        <path id="Path_34064" data-name="Path 34064" d="M923.9,683.137l-71.653,49.8,0,.01-.939.658,0-.013-4.833,3.358a4.586,4.586,0,0,1,.19,1.193,23.834,23.834,0,0,1-.7,3.594c-.3.58-1.82.961-2.3.383a5.058,5.058,0,0,1-.527-2.229l-.176-.5-5.158,3.585c.032.05.052.078.052.078s-26.448,18.343-30.647,21.184l-1.01.7c-.712.63,2.412,5.674,3.117,5.036l25.244-17.559c4-2.8,6.951-4.857,7.221-5.052l.022.013,2.674-1.86-.018-.011a3.2,3.2,0,0,0,.319-.2l.059-.042c.06-.042.126-.089.2-.144l.007,0,2.194-1.525a3.946,3.946,0,0,1,.887-1.214,4.023,4.023,0,0,1,2.026-.813L918.8,693.819l7.114-4.984.029.015.15-.1q-1.625-1.229-2.186-5.609Z" transform="translate(-742.886 -565.256)" fill="#2b2a29" fill-rule="evenodd"/>
        <path id="Path_34065" data-name="Path 34065" d="M826.816,696.818a.968.968,0,1,0-.333,1.219A.9.9,0,0,0,826.816,696.818Z" transform="translate(-767.12 -491.952)" fill="#2b2a29" fill-rule="evenodd"/>
        <path id="Path_34066" data-name="Path 34066" d="M856.668,701.122s-1.211-1.129-2.542-2.3c-3-2.645-2.881-2.442-6.415-3.815-1.078-1.165-11.987-12.956-12.916-13.869-2.272-2.233-7.4-7.046-10.366-7.73a32.609,32.609,0,0,0-7.215-.734l-12.338-.419-.036,1.093,12.365.419s.988,0,2.351.088c5.041.328,6.234.84,10.256,4.208,2,1.674,3.733,3.378,4.216,3.854.974.959,12.966,13.926,12.966,13.926l.2.138s2.163.841,3.123,1.2c.762.285,4.706,3.906,5.6,4.739l.745-.8Z" transform="translate(-665.282 -625.017)" fill="#2b2a29"/>
        <path id="Path_34067" data-name="Path 34067" d="M841.232,673.491c-.076.065-.167.159-.258.253l-.326.347c-.4.431-1.746,1.89-2.3,1.96-3.222.4-2.933.02-4.816,2.27-1,1.2-3.56,2.2-4.887,2.943-6.1,3.4-6.458,4.851-6.515,11.311A8.658,8.658,0,0,1,822,694.25c-.215.982-.739,5.575-1.237,10-.506,4.489-.969,8.581-1.055,8.795-.3.756.143,3.421.041,4.491l-.02.142c-.489.976-1.938,2.09-2.481,3.363a1.775,1.775,0,0,0,.885.948c-.011-1.335,2.575-2.984,2.7-4.349.126-1.331-.21-2.679-.133-4.009l.019-.181c.272-.677,1.024-8.171,1.127-9.078.492-4.375,1.006-8.916,1.218-9.888.62-2.833-.5-5.705,1.176-8.487,1.36-2.256,6.313-4.416,8.84-5.862,1.223-.7,1.853-2.143,2.521-2.513,1.133-.629,2.664-.035,3.981-1.007a14,14,0,0,0,1.864-1.779l.315-.336.18-.179-.712-.831Z" transform="translate(-731.099 -618.231)" fill="#2b2a29"/>
        <path id="Path_34068" data-name="Path 34068" d="M824.477,696.549a9.744,9.744,0,0,0,3.785,5.285l.448-.294.241-.173c-.861.3-4.15-4.284-3.841-5.319Z" transform="translate(-765.053 -494.345)" fill="#2b2a29"/>
    </g>
    <path id="Path_34394" data-name="Path 34394" d="M849.779,711.893c1.31-.284,5.976-1.343,7.425-1.267,4.649-2.177,12.487-3.607,21.371-3.607a73.4,73.4,0,0,1,12.3.992c3.311-3.332,13.085-5.743,24.627-5.743,14.268,0-4.372,19.085,44.994,13.076,6.577-.8,4.809-2.805,6.672-4.838,4.564-4.976,14.3,6.792,19.377,11.726L993,730.161H826.9l7.213-6.817C834.117,721.267,831.433,715.914,849.779,711.893Z" transform="translate(-826.905 -421.171)" fill="#2b2a29"/>
</svg>
