<svg xmlns="http://www.w3.org/2000/svg" width="1356" height="136.796" viewBox="0 0 1356 136.796">
    <path id="Path_33627" data-name="Path 33627" d="M1333.908,572.905v-4.928h-3.881v-12.1c0-.949-1.411-1.727-3.134-1.727h-3.31V518.927c0-.951-1.4-3.727-3.134-3.727h-1.65l-5.134-9.569-6.02,9.569h-3.383c-1.724,0-3.134,2.776-3.134,3.727v29.219h-23.579c-.166,0-.323.013-.479.028V532.68h-30.386v20.287h-13.475V494.8h-4.48c-1.751-2.648-6.352-6.543-11.763-6.543s-10.011,3.895-11.763,6.543h-6.812v68.849h-25.863v18.7H1165l-.037-61.589h-30.172l-.083,71.431h-11.7l.138-38.878h-22.95v-41.6l-51.4,10.145v31.087h-7.835l-.268-39.376-41.464-4.543v32.665H988.717l.24-35.735H981.9v-8.6h-2.692v-8.59h-5.144v-10.11H968.3L961.449,467l-6.37,11.655h-6.251v10.11H944.6v8.59h-5.877v13.012h-4.7v11.89H911.487V484.088H909.05v-1.775h-5.225V477.8H881.891v4.514h-4.176v1.775H872.49V530.6l-29.247.043V550.22l-8.837.059V515.273l-15.318-9.68-14.626,9.68-.025,38.134H785.622V542.282c.679-.173,1.158-.551,1.158-.99,0-.6-.891-1.09-1.978-1.09H765.486a3.075,3.075,0,0,0-1.189.227V526.523c.467-.075.82-.306.82-.589,0-.342-.507-.623-1.13-.623h-4.929c.968-5.517-9.436-4.029-9.436-4.029a20.711,20.711,0,0,1-5.337,4.029h-9.77c-1.289-.865-2-1.976-5.433-2.878-4.8-1.26-10.023,1.888-11.509,2.878h-8.076c0,.512.067,30.49.067,30.49H705.1l.261-60.089-9.31-4.032c.955-.561,1.515-1.224,1.515-1.937,0-2.013-4.4-3.645-9.834-3.645s-9.837,1.632-9.837,3.645a1.947,1.947,0,0,0,.785,1.429l-8.573,3.485V541.68l-40.475-.141v18.024l-28.292.04.243-73.393h-4.873v-7.29h-4.877v-3.393H578.3v3.393h-6.616v7.29h-6.267V505H539.286V495.66h.235c1.039,0,1.891-.47,1.891-1.043s-.853-1.043-1.891-1.043h-5.682V491.99h-9.922v1.583h-3.524l-.031-10.492-13.678,2.938v7.554h-2.743V491.99H474.3v1.583h-2.743V490.48l-5.337,3.094h-7c-1.042,0-1.894.469-1.894,1.043,0,.505.658.928,1.528,1.023v70.539H450.5V536.24c.693-.014,1.256-.328,1.256-.714s-.587-.719-1.306-.719h-3.569v-9.022h-7.444v5.022h-7.073V504.3H419v12.892h-4.637v14.619h-3v-6.022h-6.137v9.022h-3.654c-.718,0-1.306.323-1.306.719,0,.338.436.609,1.007.687v17.478H379.394V540.152h.169c.933,0,1.7-1.421,1.7-1.935s-.764-1.935-1.7-1.935h-3.7c.025-.13.042-14.263.042-14.4,0-1.959-2.908-5.561-6.464-5.561h-5.95a1.433,1.433,0,0,0,.271-.791c0-1.267-1.88-2.3-4.18-2.3H347.13c-2.3,0-4.178,1.036-4.178,2.3a1.418,1.418,0,0,0,.271.791H332.964c-3.556,0-6.464,3.6-6.464,5.561,0,.133.017,14.266.043,14.4h-5.788c-.934,0-1.7,1.421-1.7,1.935s.763,1.935,1.7,1.935h.484v16.271l-10.707,4.951V567l-17.409-3.186V568.1H277.89l-.158-12.681H235.721v-18.54l-15.759-11.125-14.927,11.125v45.575H154.549v-18.2h-4.179v-2.877h-3.83v-4.795h-2.785V550.63h-1.74v-5.039c.55-.015,1-.263,1-.57s-.47-.576-1.044-.576H101.752c-.574,0-1.044.259-1.044.576,0,.222.236.408.571.5v11.052H97.8v4.795h-3.83v2.877H88.743V594.87h-16V587.7H63.6V576.733c.472-.085.822-.322.822-.609,0-.356-.529-.648-1.175-.648H49.5a2.059,2.059,0,0,0-.257.029V558.1c.482-.114.823-.378.823-.684,0-.408-.607-.743-1.349-.743H44.8V541.929c.38-.1.649-.31.649-.558,0-.342-.509-.623-1.131-.623H13.047c-.622,0-1.131.281-1.131.623,0,.3.4.544.918.6v14.7H8.652c-.742,0-1.35.335-1.35.743,0,.307.345.573.831.685v18.669H-1v24H1353V572.878l-19.088.027Z" transform="translate(2.003 -464.971)" fill="#9d9e9e" stroke="#000" stroke-miterlimit="22.926" stroke-width="2"/>
</svg>
