<svg id="Component_369_3" data-name="Component 369 – 3" xmlns="http://www.w3.org/2000/svg" width="120.549" height="298.539" viewBox="0 0 120.549 298.539">
  <path id="Path_34396" data-name="Path 34396" d="M794.362,871.733a5.574,5.574,0,0,1-1.032,1.72c-.362.489-1.144.927-.888,1.569a4.451,4.451,0,0,1,1.477,0c.633.1,1.412-.045,1.626.627-.357,2.6-1.088,4.8-1.327,7.522.143.529.589.736.734,1.257a4.42,4.42,0,0,0,.3,1.725c-.531.536-.565,1.6-1.033,2.193-.088.558.7.52.291.941.113.641-.474.543-.291,1.251.607,1.13,2.242,1.175,2.657,2.512-.23.452-.688-.328-.885.166a5.9,5.9,0,0,0,2.069,1.091c.379.374.412,1.124.882,1.41-1.37-9.62-2.653-19.345-4.137-28.85a9.093,9.093,0,0,0-.443,4.865Zm6.649-40.607c.546.155.591-.769.152-.782A1.048,1.048,0,0,0,801.011,831.126Zm6.205-6.11c-.915-.9-1.784.487-3.1.154.094,1,1.8.276,2.219.94a1.432,1.432,0,0,1,.883-.465c.115-.408.954-.037.885-.629C807.908,824.352,807.623,825.016,807.216,825.016ZM761.272,813.1a1.36,1.36,0,0,0-.739-1.562A3.808,3.808,0,0,0,761.272,813.1Zm-15.068,0a3.906,3.906,0,0,0,2.215-.311,10.53,10.53,0,0,0-1.183-4.39,38.612,38.612,0,0,0-1.032,4.7Zm69.289-10.656a4.017,4.017,0,0,0,2.507-.783A5.638,5.638,0,0,0,815.493,802.44Zm-2.516-4.859a4.921,4.921,0,0,0,3.989-1.262C815.136,796.21,813.8,796.622,812.977,797.581Zm-1.182-4.71a6.128,6.128,0,0,0,3.545-1.1C814,791.976,812.562,792.066,811.8,792.87Zm-1.629-4.7a7.338,7.338,0,0,0,4.586-1.567C812.922,786.805,811.1,787.017,810.166,788.169Zm-1.618-4.229a19.068,19.068,0,0,0,3.841-.783,2.455,2.455,0,0,1,.589-.469c.133-.1.844-.336.445-.474-1.763.428-3.8.564-4.874,1.726Zm6.056-5.176c-1.9,1.744-4.516,2.734-8.126,2.666a5.775,5.775,0,0,0-.885,2.51c-.75.709-.75,1.821-1.032,2.82a9.334,9.334,0,0,0-.742,3.3c.083,1.26,1.013,2.43,1.182,3.918a7.086,7.086,0,0,1-.592,4.23c-.631.222-1.25.447-1.916.628,2.161,5.027.947,13.632,0,19.441,1.109-.029,1.621.574,2.66.627.348-.778.524-1.744,1.181-2.2,1.761-.9,3.843-.27,5.314.628A3.629,3.629,0,0,1,813.719,820c-.2.99-.884,1.464-1.184,2.35,1.289.159,1.426.95,2.513.781.736-.108,1.143-1.193,2.067-1.41a4.7,4.7,0,0,1,2.069.158c1.012,1.172.721,3.73,1.919,4.7,0,.331-.9.968-.149,1.1.38-.172.762.531.74-.163a5.993,5.993,0,0,0,0-3.757c-.1-.288-.413-.482-.591-.78a10.228,10.228,0,0,0-.446-.941,10.334,10.334,0,0,0-2.51-2.038c-.921-.579-2.319-.859-2.51-2.037.378-1.267,1.847-1.013,2.806-.946.867.063,1.823.361,2.807.474a10.249,10.249,0,0,0,4.729-.311c.129-.453-.336-.919-.59-1.1a6.194,6.194,0,0,0-1.482-.469c-.649-.249-1.565-.623-2.067-.781a19.653,19.653,0,0,0-4.134-.786c-.977-.106-2.481.135-2.659-1.093.687-.927,1.827-.3,2.809-.312a10.8,10.8,0,0,0,5.905-1.886c.54-.484,1.144-.927,1.18-1.723a3.008,3.008,0,0,0-3.1-1.725c-.554.049-1.049.523-1.77.781a15.561,15.561,0,0,1-2.071.471c-1.436.3-2.885.846-3.843-.63.792-1.159,2.19-1.554,3.991-1.721a25.591,25.591,0,0,0,3.1-.157,7.549,7.549,0,0,0,1.035-.47,3.952,3.952,0,0,0,1.03-1.248,2.4,2.4,0,0,0-.291-2.2c-.938-1.1-1.772-.409-2.809.153a20.019,20.019,0,0,1-2.509,1.252,9.844,9.844,0,0,1-1.184.157,4.538,4.538,0,0,1-1.919.317,1.5,1.5,0,0,1-1.329-1.257c-.06-.728.733-1.391,1.329-1.723,1.9-1.066,4.671-.718,6.2-.943,2.039-1.049.959-3.607-1.031-3.766-1.134.719-2.96,2.227-4.875,2.666a5.364,5.364,0,0,1-2.219.162c-1.985-.5-1.37-2.607,0-3.452s3.554-.86,5.175-.782c1.156.108,1.925-.244,2.065-1.1.168-1.013-.642-1.6-1.332-2.044-1.51.727-3.671,2.237-5.908,2.509-1.111.14-2.751.317-3.1-1.247.652-2.13,3.218-2.293,5.467-2.514,1.289-.121,2.588.063,3.4-.783a2.448,2.448,0,0,0-1.477-2.82,13.361,13.361,0,0,1-5.766,2.662c-1.081.149-2.818.325-3.1-1.247.255-1.189,1.413-1.745,2.516-2.2a11.417,11.417,0,0,1,3.693-.94c.776-.037,1.691.443,2.363-.154a2.169,2.169,0,0,0-.739-2.35c-1.755.944-4.04,2.5-6.649,2.662-1.036.058-2.518-.005-2.659-1.094-.153-1.244,1.393-1.863,2.509-2.355,2.148-.944,3.779-.931,6.206-1.1.107-1.054-.128-1.75-.736-2.039Zm-7.681,1.1a6.3,6.3,0,0,0,5.908-1.726A8.472,8.472,0,0,0,806.924,779.862Zm4.724-3.136a7.5,7.5,0,0,1,2.072.153c.137-.307.222-1.477-.444-1.72-.323.757-1.237.886-1.628,1.568Zm-3.248-1.88c-.178.487-.3,1.049-.442,1.568a7.166,7.166,0,0,0,3.986-1.884A10.726,10.726,0,0,0,808.4,774.846Zm2.359-1.728h1.924a2.01,2.01,0,0,0-.293-1.406C811.732,772.056,811.04,772.365,810.758,773.118Zm-5.907-.627c2.01,1.378,4.751-.353,5.907-1.559A6.874,6.874,0,0,0,804.851,772.491Zm-1.622-.623c0-.314.4-.2.3-.63a2.294,2.294,0,0,1-1.629-1.1A2.6,2.6,0,0,0,803.229,771.868Zm7.388-2.51c.279.3.9.164.738-.466C810.974,768.9,810.836,769.173,810.617,769.358Zm-7.534.159a5.978,5.978,0,0,0,6.795-1.726A7.945,7.945,0,0,0,803.083,769.516Zm-2.218-1.1c.28.327.459.755.739,1.1-.152-1,.443-1.2.741-1.726-.559.067-.693-.307-1.033-.47-.159.362-.512.508-.447,1.1Zm8.716-2.2a.634.634,0,0,0,1.036-.318c-.239-.012-.12-.4-.45-.306-.042.361-.452.348-.585.624Zm-1.919-1.1a4.466,4.466,0,0,1-2.66-.47c-.862.555-2.143.65-2.508,1.725a6.68,6.68,0,0,0,6.5-1.725C808.248,764.5,808.268,765.146,807.661,765.124Zm1.327-1.881c.357-.062.323.285.741.165v-.634C809.386,762.823,809.092,762.93,808.989,763.242Zm-1.772-.94a.834.834,0,0,0,.884-.469c-.465.075-.52-.286-1.035-.158-.026.3.17.342.15.627Zm5.318-11.915c.3.046.292.425.59.469.2-.2.228-.767-.146-.781C812.974,750.334,812.567,750.167,812.535,750.387Zm-7.24-.627c1.61-.037,3.354.619,4.727.317a10.843,10.843,0,0,0-5.02-.783C804.957,749.6,805.2,749.605,805.294,749.76Zm9.163-1.728c.407-.478-.059-.976-.738-.781A.824.824,0,0,0,814.457,748.032Zm-2.22.159a5.632,5.632,0,0,0-5.314-2.037c-.119.036-.292.009-.3.157,1.184,1.718,3.44,2.311,6.057,2.508C813.006,748.711,812.408,748.3,812.237,748.191Zm3.549-3.132c.282-.3.152-.963-.445-.786C815.393,744.639,815.494,744.947,815.786,745.059Zm-6.057-.47a7.82,7.82,0,0,0,4.428,1.247c.311,0-.155-.478-.145-.461-.3-.333-.585-.944-1.035-.944-.921-1.269-2.779-1.54-5.021-1.409C808.243,743.874,809.134,744.236,809.729,744.589Zm7.531-2.192a3.753,3.753,0,0,0,.74-1.415,5.942,5.942,0,0,0-2.067-.157C816.373,741.348,816.805,741.891,817.26,742.4Zm-1.622.309a6.419,6.419,0,0,0-6.058-2.667C811.022,741.439,812.975,743.126,815.638,742.706Zm3.4-3.608a2.8,2.8,0,0,0,.591-1.564,5.157,5.157,0,0,0-2.213-.157,10.86,10.86,0,0,1,1.622,1.721Zm-6.5-1.406c.177.127.515.162.741.307.1.069.163.235.3.317a5.314,5.314,0,0,0,3.842.94,9.4,9.4,0,0,0-5.911-2.826,3.811,3.811,0,0,0,1.034,1.262Zm6.205-1.728c.155-.342-.368-.564-.592-.781-1.029-1.009-2.935-2.123-4.725-1.572a9.136,9.136,0,0,0,5.316,2.354Zm-.883-4.7a5.973,5.973,0,0,0,2.507.629,17.235,17.235,0,0,0-2.07-1.416,4.96,4.96,0,0,0-2.508-.629,10.957,10.957,0,0,0,2.071,1.416Zm1.327-4.549c.053.024.08.278.143.314.17.091.55.086.744.159a4.548,4.548,0,0,0,2.214.627,14.285,14.285,0,0,0-1.922-1.413,5.879,5.879,0,0,0-2.507-.628A4.863,4.863,0,0,0,819.185,726.715Zm4.578-3.917c-.8-.615-2.15-1.481-3.248-1.255C821.393,722.071,822.79,722.884,823.762,722.8Zm2.361-4.235c-.945-.716-2.13-2.024-3.691-1.569A4.6,4.6,0,0,0,826.123,718.562Zm1.924-5.173c-.633-.273-1.516-1.106-2.219-.784C826.464,712.877,827.425,713.629,828.047,713.389Zm5.91-28.531a7.829,7.829,0,0,1-1.329.47c-1.495.172-2.352-.328-3.7-.311-.483.116-.552.86-.737,1.1a5.874,5.874,0,0,1-1.479,1.092c-.868.026-1.173.1-2.211.159-.908.551-1.6,1.392-2.511,2.036-.476.331-1.006.606-1.479.943a10.132,10.132,0,0,0-2.961,3.132c.022.65-.249.988-.141,1.725-.678,1.035-1.509,2.21-2.071,3.136a13.612,13.612,0,0,1-1.328,1.881c-.737.264-1.211.8-1.922,1.1-.573.643-1.076,1.366-1.621,2.039-.2.163-.545.154-.741.313-.387-.047-.113.606-.6.474a6.318,6.318,0,0,1-3.541,1.562,14.047,14.047,0,0,0-1.032,1.73c-.266.474-.472.86-.742,1.251-1.494,2.156-3.454,3.652-5.019,5.641a4.261,4.261,0,0,1-.891.945,3.569,3.569,0,0,0-1.475,1.883c.946,3.938,1.5,8.187,2.509,11.753a19.1,19.1,0,0,1,.888,2.511c.134,1.178-.29,2.183-.146,3.295a26.944,26.944,0,0,1,2.809,12.7c.14.715-.523,1.093-.148,1.564.261.085.615.081.738.316.772.031.542-.99,1.18-1.1a13.56,13.56,0,0,1,1.329-.623c-1.241-.815-.346-3.2,1.181-2.979-.092-.584-.606-.72-.44-1.568a2.393,2.393,0,0,1,2.361-1.569c-.186-.746-.96-.854-.738-2.043.4-.981,1.706-1.005,3.1-.935.422-.081-.234-.235-.3-.317a.78.78,0,0,0-.438-.465c-.259-.688-.553-.972-.443-1.569.212-1.2,1.731-1.112,2.954-.94.283-.167-.387-.62-.595-.79-.189-.569-.53-.733-.442-1.406.269-1.922,3.553-.881,4.578-.469.252.1.439.343.742.469.353.149.767.164,1.032.313a9.047,9.047,0,0,1,1.036.785,10.348,10.348,0,0,1,1.032.942c.291.294.473.6.738.623a2.049,2.049,0,0,0,.886-1.881c-1.645-.391-3.3-.772-4.874-1.251-1.127-1.1-3.08-1.333-3.1-3.609.782-1.2,2.228-.763,3.547-.311a12.085,12.085,0,0,1,2.066.938c1.343.778,2.439,1.985,3.4,2.512.477-.627,1.433-1.293.886-2.512a6.182,6.182,0,0,0-2.067-.152,25.063,25.063,0,0,1-4.434-2.039c-.4-.878-1.438-.918-1.179-2.194.186-.922,1.092-1.031,2.213-.943,1.379.106,3.27,1.322,4.286,2.046.72.5,1.645,1.442,2.214,1.72.778-.658,1.852-1.139,1.627-2.354-.24-1.266-3.086-1.341-4.289-1.725-.991-.313-2.06-.882-2.655-1.1-.394-.677-1.154-.974-1.184-2.04.534-1.14,1.76-1.092,2.659-.942a9.316,9.316,0,0,1,2.516,1.1c.894.5,1.6,1.094,2.214,1.412.308.411.9,1.156,1.327.944a1.688,1.688,0,0,0,1.625-1.885c-.18-1.134-1.469-.987-2.951-1.252a32.871,32.871,0,0,1-3.253-.941c-.643-.831-1.764-1.18-1.624-2.513a1.655,1.655,0,0,1,1.478-1.4,4.461,4.461,0,0,1,2.657.784c.26.134.656.167.884.311.062.04.089.265.153.31.12.1.331.087.443.161.295.215.433.523.737.474.613.516.895,1.571,1.92,1.718,1.515.219,2.967-1.554,2.07-2.818-.6-.849-1.386-.806-2.661-1.1a14.35,14.35,0,0,1-3.1-.943,6.936,6.936,0,0,1-1.184-.782,3.862,3.862,0,0,1-.3-.467,1.675,1.675,0,0,1-.292-1.1c.241-1.129,1.613-1.026,2.363-.943,2.228.263,4.189,2.625,5.763,3.449,1.307-.243,2.032-.73,2.067-2.034.1-4-7.385-2.2-8.275-5.489a1.678,1.678,0,0,1,1.18-.787c1.034-.144,3.211.979,4.141,1.418.851.4,1.65,1.165,2.362,1.251,1.378.172,2.843-.6,2.956-1.568.153-1.312-1.5-2.319-2.217-2.669-.054-.019-.085-.274-.146-.307a13.08,13.08,0,0,0-3.989-1.411c-1.141-.184-2.513.334-2.661-1.1.6-.732,1.7-.352,2.661-.314a25.55,25.55,0,0,0,4.729-.314c1.777-.273,3.6-.173,4.14-1.566-2.076-1.025-4.509-1.013-6.8-1.1-1.244-.049-2.86.358-3.4-1.1.479-1.262,1.943-1.4,2.958-1.723.052-.018.217-.284.3-.316.119-.05.309.045.438,0,.055-.012.229-.275.3-.312a7.372,7.372,0,0,0,3.1-2.824c1.209-2.345.607-4.4-.153-6.894-.629.04-.728-.484-1.476-.315Zm10.19-47.038a15.008,15.008,0,0,0,1.037,2.512c.152.688-.5.515-.443,1.1.277.417-.067.947,0,1.412a14.663,14.663,0,0,0,1.035,2.5c.2.518.336,1.066.589,1.727.033.075.28.254.3.313.037.136-.054.338,0,.469.222.551.547.94.739,1.412.23.574.371,1.188.593,1.725.586,1.449,1.395,3.114,2.068,4.7a13.958,13.958,0,0,1-1.922,2.507c-.2.253-.241.533-.443.783-.7.867-2.511,1.973-.886,3.608.157.6-.6.483-.149.937.089.328.228.6.739.475a2.987,2.987,0,0,0,.739,2.195c.717-.508,2.456-.353,3.4-.157a.569.569,0,0,0,.586.623,6.038,6.038,0,0,1,.3,1.726h2.219c-.132.6-.109,1.355-1.038,1.1-.192.479-.692.63-1.326.634-.316.5-.411,1.234-.74,1.72-.541.109-.772.545-1.182.787a10.93,10.93,0,0,1-2.363-.159c-.475.032-.363-.559-.593-.783a6.075,6.075,0,0,1-2.216.315c.008,2.515.042,5.061-.148,7.366.172,1.02,1.351.969,1.92,1.569-.592.675-2.076.162-2.81,0-1.528-1.3-.475-5.346-1.329-7.369-.909-.021-.98.844-1.771.944.057.925-.229,1.492-.146,2.349.1.966.954,1.793.439,2.666-.068.119-.245.228-.293.315a6.241,6.241,0,0,1-1.48,2.346c-1.1.14-2.228.246-2.8.944-.011.154.019.319,0,.469a.823.823,0,0,1-.143.316,8.634,8.634,0,0,0,.589,2.036,10.275,10.275,0,0,1-.3,6.582,7.956,7.956,0,0,1-1.328,2.043,8.06,8.06,0,0,1-1.923,1.253,4.551,4.551,0,0,1-2.067.94c.168.527.776.266,1.181.314.39.041.9.127,1.335.155,1.962.117,4.029-.114,5.308.943,2.1,1.718-.1,3.72-2.657,4.074-1.178.166-2.157-.126-3.1.317,1.223.78,3.239,1.783,3.838,3.443.666,1.848-.8,3.68-2.951,3.92a4.6,4.6,0,0,1,.734,3.292,3.865,3.865,0,0,1-2.8,2.355c-.318.048.21.487.294.628a3.155,3.155,0,0,1-2.955,4.076,9.445,9.445,0,0,1,.146,2.352,4.057,4.057,0,0,1-2.363,2.038,3.514,3.514,0,0,1-2.366,4.542c.206,2.311-.55,3.594-2.069,4.079a8.487,8.487,0,0,1,0,1.726,4.505,4.505,0,0,1-2.065,2.192,4.8,4.8,0,0,1-.446,2.192c-.313.578-.89.814-1.33,1.262.137,1.92-.9,2.589-1.915,3.288-.1.577-.16,1.193-.3,1.723-.109.774-.933.792-1.182,1.415v1.409c-.337.475-.812.81-1.182,1.253a4.73,4.73,0,0,1-.739,2.355c.571.6,1.1,2.9-.294,2.978.784,1.108,2.449,2.082,1.775,4.236a2.809,2.809,0,0,1-2.218-.159c-.438.22.2.61,0,1.093.157.588-.37.449-.3.944.587.575,1.626.675,1.332,2.2-.5.781-2.362.482-3.109.147-.32.555.574,1.166.742,1.721-.025.492.1,1.157-.148,1.419.123.656.789.724.887,1.41v1.569c.22,1.021,1.126,1.311,1.476,2.193v1.72c.2.678.778.958,1.038,1.57a12.757,12.757,0,0,1,0,1.881c.593,1.138,2.18,1.925,1.477,4.234.135.485.59.628.881.941a3.708,3.708,0,0,1,.3,3.443c1.27.712,2.984,3,1.47,4.864.693.516,1.926,1.248,2.072,2.514a2.388,2.388,0,0,1-.592,2.038c1,.47,2.663,1.478,2.663,3.29a2.5,2.5,0,0,1-.889,1.881c1.391.718,2.639,1.585,2.361,4.081a6.144,6.144,0,0,1-1.18,1.875,2.672,2.672,0,0,1,1.475.941,3.1,3.1,0,0,1,1.035,1.255c.7,2.568-2.457,4.381-4.726,4.858,2.211,1.259,6.25.58,6.057,4.392-1.678,2.475-6.11.732-9.013.938,2.533,1.474,5.133,3.9,4.726,8.154a16.022,16.022,0,0,1-.44,1.881,6.938,6.938,0,0,1,.44,2.508,2.922,2.922,0,0,1-1.475,2.2,2.989,2.989,0,0,1-2.953,0c-.163-.081-.356-.334-.594-.47-.218-.135-.627-.232-.741-.316-.956-.743-1.69-2.382-2.949-2.82-.648,0-.877.428-1.48.469-1.717-.316-2.18-1.971-3.693-2.507a6.006,6.006,0,0,1-2.214.316c-.237.214-.155.773-.443.936-.682.492-1.931.361-2.072,1.414.192.9,2.444.13,3.4.781.251.262.12.923.147,1.411.172.55.84.577,1.036,1.1v1.416a10.32,10.32,0,0,0,3.25,2.821,18.377,18.377,0,0,1,3.251,2.826c.3.653.6,1.259.886,1.875a24.411,24.411,0,0,1,1.622,6.584c2.242,15.6,4.064,32.123,6.21,48.293.429,3.261.859,6.546,1.323,9.719a90.655,90.655,0,0,1,1.184,9.4c.114,2.645.008,4.859-1.184,6.425-1.565,1.311-4.264,1.51-6.938,1.884-2.6.364-5.35.892-7.688,1.1a11.127,11.127,0,0,1-4.576-.319,8.551,8.551,0,0,1-1.774-1.092c-.133-.133-.274-.42-.442-.628-2.149-2.822-2.234-8.606-3.1-13.015a3.358,3.358,0,0,0-2.216-.309c-3.112-1.267-8-2.116-11.526-1.1-.231.739-.066,1.917-.6,2.358a30.194,30.194,0,0,1-4.427.309c-.531.221-1.126.374-1.625.628a4.81,4.81,0,0,0-2.069-.166c-.271.2.316.8.445,1.1.028.5-.1,1.157.145,1.411.281.539,1.011.595,1.629.782,0,.419-.062.892.146,1.1a7.112,7.112,0,0,0,1.772.309,5.5,5.5,0,0,1,1.037,1.731,6.216,6.216,0,0,1,1.914,1.244,3.533,3.533,0,0,1,.151,1.41c.776.541,1.5,1.135,2.215,1.73a34.481,34.481,0,0,1,5.465,1.1,9.757,9.757,0,0,1,1.923.628,4.131,4.131,0,0,1,2.214,1.873,4.635,4.635,0,0,1,.591,1.73,2.152,2.152,0,0,0,.6.783,2.017,2.017,0,0,1,.734,1.719c-.077,1.1-1.156,1.663-2.213,2.2a29.653,29.653,0,0,1-8.278,2.192,44.566,44.566,0,0,1-11.671-.153,31.349,31.349,0,0,1-3.392-.628,15.329,15.329,0,0,1-3.842-1.411c-.112-.065-.149-.243-.3-.319a8.493,8.493,0,0,0-.888-.474c-.3-.132-.916-.419-1.325-.617-.724-.353-1.192-.793-1.776-.793-.7.01-1.25.661-2.069.947a6.237,6.237,0,0,1-3.246.155c-.466-.11-.866-.464-1.333-.629-1.252-.452-3.164-.739-4.135-1.565a10.534,10.534,0,0,1-.295-6.116,10,10,0,0,1,1.182-8.618c-.248-.264-.119-.925-.148-1.411.521-1.277,1.346-2.237,1.475-3.923.3-.7.965-1.212,1.031-2.038a8.044,8.044,0,0,0-.586-2.357c-.405-1.422-.719-3.075-1.035-4.86a14.806,14.806,0,0,1-.443-4.067c.006-.683-.471-.86-.589-1.422.058-.618.649-.661.736-1.257a12.713,12.713,0,0,1,.151-2.811,18.823,18.823,0,0,1,1.326-2.983c-.352-1.323-.57-2.49-1.031-3.918a6.175,6.175,0,0,1-.446-1.1,14.173,14.173,0,0,1,.3-2.972c.177-2.171-.106-4.476,0-6.744a26.176,26.176,0,0,1,.59-3.609,21.077,21.077,0,0,1,1.031-4.393,5.054,5.054,0,0,0,.742-1.875,13.119,13.119,0,0,0-.3-2.038c-.161-2.035-.023-4.429.74-5.8.249-.439.778-.555.891-1.1a10.822,10.822,0,0,0,2.51-1.568,4.012,4.012,0,0,0-1.774-1.406c-.21-.618-.717-.919-1.036-1.416-.4-2.109-.927-4.9-.591-6.9a6.742,6.742,0,0,1,1.334-2.35c.385-.574.61-1.3,1.179-1.564a4.447,4.447,0,0,1,.592-1.26c-.109-.668-.721-1.211-.886-1.875a18.087,18.087,0,0,1-.15-2.044c-.365-3.276-.582-7.782-.736-11.438-1.642-3.336-2.88-7.082-4.735-10.193-1.381.985-1.7,3.11-3.245,3.918-1.232.121-1.812-.8-2.957-.311-.693-.827-.821-2.266-1.031-3.607a3.159,3.159,0,0,1-2.956.94c-.577.064-.631.687-1.182.782a2.225,2.225,0,0,1-1.625-.312,1.852,1.852,0,0,1-.3-1.563,9.583,9.583,0,0,1-.737-1.42c-.391-2.148.767-3.323,1.922-4.385,1.012-5.35.077-11.587,1.334-16.614-.625-1.329-1.607-2.274-2.071-3.769a6.357,6.357,0,0,0-1.184-1.093c-.388-.786-.689-1.674-1.623-1.881-2.206.529-2.466,3.128-4.578,3.765a5.667,5.667,0,0,1-2.07-2.978c.388-1.161,1.461-1.592,2.805-1.727,1.229-.584,1.588-2.082,2.517-2.978,1.816-.98,4.025-2.649,6.792-2.672a12.448,12.448,0,0,1,4.138.941c1.208.431,2.748.661,3.246,1.886-1.384.085-3.96-.855-5.464-.787-1.105.06-2.156.3-2.361,1.258-.289,1.363,1.029,1.717.741,3.451a31.449,31.449,0,0,1,1.768,4.39c2.54-.488,1.64-4.638,2.663-6.744a1.741,1.741,0,0,1,2.359,2.354c.53-1.368.963-2.788,1.48-4.233a13.549,13.549,0,0,1,1.77-3.918c-.483-.979-.283-1.691-.294-3.138-1.4-.5-3.667-.082-4.578-1.1-.336-.691-.423-1.645-.737-2.347-.712-.822-2.038-.974-3.253-1.255a26.552,26.552,0,0,0-3.1-2.195c-.2-.5-.717-.477-1.184-.787-.449-.3-1.269-.864-1.923-1.247a20.027,20.027,0,0,1-2.062-5.335c-.878-2.726-2.106-5.234-2.664-8.466-.181-1.058-.2-2.2-.44-3.295-.209-.953-.622-1.884-.886-2.819-.14-.5-.166-1.05-.3-1.568a12.974,12.974,0,0,1-.439-1.412,25.632,25.632,0,0,1,.15-4.389c.027-.646-.039-1.214,0-1.884a30.178,30.178,0,0,1,1.034-5.173c.3-1.243.643-2.382,1.031-3.607a3.157,3.157,0,0,0-.295-2.976,14.89,14.89,0,0,1,.889-4.7c.023-.086.283-.415.294-.469.111-.546.14-1.16.293-1.728.027-.08.282-.412.3-.47.039-.192-.056-.438,0-.626.085-.286.337-.508.442-.786.139-.366.152-.766.3-1.1a14.814,14.814,0,0,1,1.772-2.978c.187-.245.319-.479.589-.782.237-.264.584-.734.887-1.1a79.51,79.51,0,0,1,5.618-6.271,44.1,44.1,0,0,0,5.314-5.33,12.184,12.184,0,0,0,3.25-2.354c.027-1.18.544-2.188.593-3.291.082-1.811-.61-3.511.739-4.386-.166-.767-.92-.851-1.332-1.417a12.273,12.273,0,0,1-1.036-2.663,25.423,25.423,0,0,0-2.8-5.017c.154-.76-.262-1.409-.3-2.2-.034-.809.193-1.554.146-2.352a16.891,16.891,0,0,0-.741-2.982c-1.485-.043-2.387.248-3.4-.309.159-.876,1.18-.842,1.333-1.725a4.508,4.508,0,0,0-.444-1.884c-.1-3.3-.452-6.817.589-9.717a13.535,13.535,0,0,1,.742-1.722c.112-.221.306-.247.445-.473.111-.192.029-.436.143-.624a12.089,12.089,0,0,0,1.33-2.041c.858-.8,1.756-1.813,2.808-2.664.12-.1.311-.057.445-.16a9.6,9.6,0,0,1,1.033-.782c.222-.137.417-.274.736-.473.228-.136.418-.268.741-.471.5-.3,1.159-.8,1.771-1.254.093-.071.21-.256.3-.31.118-.079.307-.066.446-.156.243-.172.38-.5.59-.631.25-.155.579-.154.886-.309a5.847,5.847,0,0,1,1.628-.788,8.665,8.665,0,0,1,2.362,0c2.348.247,3.819,2.241,6.941,1.884,4.089,1.252,6.748,2.908,8.87,5.956.062.1.236.223.292.313.3.51.551,1.191.885,1.885.039.079.273.242.293.31.282.771.356,2.1.743,2.978.267.617.9,1.107,1.18,1.725.563,1.229.458,2.493.886,3.764a5.619,5.619,0,0,1,1.771-.157,2.725,2.725,0,0,1,.742,2.817c-1.68,1.155-4.449,1.139-6.793,1.573.252,1.094.38,2.345.585,3.607.182,1.125.5,2.266.592,3.444.095,1.316-.015,2.871,0,4.393.009,1.36.185,2.7.147,3.918a10.431,10.431,0,0,1-.739,3.921,11.756,11.756,0,0,0-.888,1.879c-.219.88-.138,1.8-.733,2.354a2.357,2.357,0,0,0-.89,1.1c1.4.848,3.105-.247,4.877,0a5.7,5.7,0,0,0,2.8.628,7.721,7.721,0,0,0,1.183.154c1.322-.279,1.795-2.026,2.958-2.193a5.636,5.636,0,0,1,1.916.471c.793-.156,1.26-.651,2.217-.629.439-.227-.2-.613,0-1.1,1.755-.59,2.678-2.067,4.727-2.352a20.991,20.991,0,0,0,2.218-1.72,42.982,42.982,0,0,1,6.795-.316,18.253,18.253,0,0,0,1.918.316,8.277,8.277,0,0,0,1.924-.472c.64-.207,1.2-.447,1.774-.627,1.292-.406,2.457-.806,3.691-1.1.65-.283.87-1.021,1.473-1.409.194-.124.379-.072.594-.162a31.118,31.118,0,0,1,3.4-1.407c.818-.6,1.056-1.664,1.771-2.354.459-.444,1.2-.634,1.623-1.1.126-.13.193-.48.3-.627s.191-.374.444-.471c-.594-.231-.529-1.553-.3-2.192,1.828-.625,4.423-.429,6.8-.471.439-.166.516-.71.739-1.1-.17-.222-.51.17-.881,0-.3-.139-.159-.521-.448-.627-.336-.227-.373.2-.584.315a2.7,2.7,0,0,1-2.075.152,3.162,3.162,0,0,1,.3-2.5,2.283,2.283,0,0,1,1.777.154c.124.087.134.4.439.316.611.126.551-.458.883-.627.541-.1.571.338,1.032.312,1.1-.616,3.176-.183,4.731-.312.4-.535-.028-1.249-.147-1.726-.244-.449-.8.554-1.178,0-.345-.346.047-.611,0-1.1-.955.189-.579,1.8-1.922,1.565-.838-1.31.93-2.7,2.212-2.822.352-.413.627-.9,1.181-1.1.84-.1.815.707,1.478.785-.672-1.832-4.862-1.005-6.941-1.72a11.193,11.193,0,0,1-1.478-3.3c-1.259-3.116-3.079-6.311-4.432-9.562-.275-.438-.978-.425-1.036-1.1-.29-.378-.7.259-1.032-.157a7.355,7.355,0,0,0-1.032-2.352,5.685,5.685,0,0,0,.591-1.569,45.975,45.975,0,0,1,5.61-2.51c.317-.379-.352-.669-.144-1.408,1.161-.284,1.9-1.018,3.248-1.1.457-.011.44.475.447.946.863-.253,1.816-.6,2.8-.946a20.882,20.882,0,0,1,2.806-.941c.75-.129,1.2.352,1.921.313Z" transform="translate(-734.092 -637.484)" fill="#2b2a29" fill-rule="evenodd"/>
</svg>
