<svg id="Component_216_2" data-name="Component 216 – 2" xmlns="http://www.w3.org/2000/svg" width="189.752" height="414.374" viewBox="0 0 189.752 414.374">
  <g id="_1547317389072">
    <path id="Path_33967" data-name="Path 33967" d="M576.659,705.39c1.136-5.977,3.84-18.712,4.907-23.906s1.993-9.464,1.993-9.464l3.7-3.2s-.071,1.352-.284,5.48-1,7.043-2.276,14.229-3.415,18.073-3.984,21.345l-6.19,6.332S575.52,711.368,576.659,705.39Z" transform="translate(-549.96 -400.163)" fill="#fefefe"/>
    <path id="Path_33968" data-name="Path 33968" d="M569.267,994.463c-.5,3.629-1.21,6.548-1.422,7.827s-.071,1.637.5,1.708a3.534,3.534,0,0,0,1.495,0,2.012,2.012,0,0,1,1.279.071,8.2,8.2,0,0,0,1.921.071c.854,0,.356-1.495.356-1.495a2.587,2.587,0,0,0,.355-.926c.143-.639.143-1.137.712-4.055s.854-4.482,2.776-14.515c1.853-9.681,3.058-15.511,4.766-24.548s3.556-18.57,5.263-27.25,2.917-15.8,4.554-24.12c1.526-7.755,3.343-17.148,4.765-24.262s2.918-14.8,2.918-14.8,4.765.286,9.176.57,10.174.568,10.174.568a2.355,2.355,0,0,0,1.28.356c.781,0,1.493,0,3.913-.072a32.69,32.69,0,0,0,5.192-.356,13.9,13.9,0,0,1,3.059-.569c1.849-.212,5.05-.569,11.169-1.138s18.781-1.993,18.781-1.993,5.691,15.868,9.247,25.544,9.106,24.9,9.106,24.9-1.138.071-2.988.356a46.771,46.771,0,0,0-4.766,1c-1.707.428-1.85,1.495-1.921,2.776s-.072,2.2-.072,2.2a.529.529,0,0,0-.569.286,5.787,5.787,0,0,0-.356,1.351.954.954,0,0,0,.5,1.068s-1.067.427-1.919.781-.925,1.424-1.068,2.419a12.839,12.839,0,0,0-.142,1.637s-.5.072-.641.428a8.3,8.3,0,0,0-.355,1.707c-.142.925.6,1.778,1.707,2.348a8.859,8.859,0,0,0,3.627,1.138,17.991,17.991,0,0,0,2.206,0,1.678,1.678,0,0,0,.428.428c.355.284.212.142.925.142a3.544,3.544,0,0,1,1.28.142c.569.143.5-.568.5-.568l1.779.07a1.983,1.983,0,0,0,.071.357c.071.285.425.213,1.067.142s1.067-.214,1.565-.214.283-.284.355-.639,1.209-.428,1.707-.5.5.214.57.568.711-.07,1.636-.355,1.779-.57,1.779-.57,3.557,9.748,7.47,20.136,15.793,42.69,19.634,52.866c3.714,9.831,7.327,19.638,8.466,22.838s1.921,4.981,2.134,5.763a14.023,14.023,0,0,1,.284,2.562c.072.925.57.5,1.139.5a6.262,6.262,0,0,0,1.707.071,3.414,3.414,0,0,1,1.353.071,4.944,4.944,0,0,0,1.421.214,19.452,19.452,0,0,1,2.206.071,10.339,10.339,0,0,0,1.708.073,10.182,10.182,0,0,1,2.134,0,2.26,2.26,0,0,0,1,.142c.5,0,.782.141,1.138.141s.356-.925.427-1.778-.5-1.921-1.992-5.978-2.063-5.905-3.841-10.814-3.984-11.669-3.984-11.669,1.28.071,3.272.142,4.553.142,5.549.284.925-1.065-.925-5.762-3.059-7.543-5.619-14.3-6.758-17.005-9.532-24.191-4.7-12.38-8.182-21.418-4.837-12.522-4.837-12.522l.072-.356a3.053,3.053,0,0,0,1.067-.289,1.881,1.881,0,0,0,.64-.634,4.46,4.46,0,0,0,1.214-.216.51.51,0,0,0,.351-.5,1.009,1.009,0,0,0,.925-.284c.5-.428.5-1,.355-2.348a10.55,10.55,0,0,0-.355-1.994,4.326,4.326,0,0,0,1-.711c.428-.426.071-1.423.071-2.419s0-1.849-.071-2.774a2.977,2.977,0,0,0-.427-1.423,5.178,5.178,0,0,0,.627-2.7,5.517,5.517,0,0,0-1.2-2.5s.427-.925,1-2.49a11.868,11.868,0,0,0,.782-4.838c0-2.277,0-3.985-.142-6.971a64.042,64.042,0,0,0-1.493-8.9,60.654,60.654,0,0,1-.57-6.76,36.092,36.092,0,0,1,0-6.261c.143-2.633.143-3.558-.355-10.39s-.64-8.394-1.067-11.168-.5-3.415-.782-5.052a8.526,8.526,0,0,0-.712-2.418,34.1,34.1,0,0,0,.214-4.77,48.22,48.22,0,0,0-.427-6.831,5.21,5.21,0,0,0-1.423-3.344c-.854-1.138-1.495-2.206-1.495-2.206a11.787,11.787,0,0,0,.072-2.277,49.14,49.14,0,0,1,.07-6.4c.214-3.557.072-5.406.428-7.471a23.516,23.516,0,0,0,.355-6.047,18.876,18.876,0,0,1,.214-4.624,13.99,13.99,0,0,0-.284-3.131s1.209-1.422.853-2.561-.853-1.281-1.209-2.419c-.294-.943-.783-.783-.712-1.21s1.424-.213,1.85-1.138,1.565-3.558,1.565-3.558a3.6,3.6,0,0,0,1.209-.285c.711-.284.853-.711,1.423-1.779a28.949,28.949,0,0,1,1.493-2.49,2.54,2.54,0,0,0,.284-2.561,14.149,14.149,0,0,1-.212-4.2,50.728,50.728,0,0,0-.284-5.764,69.857,69.857,0,0,0-.5-6.972,10.406,10.406,0,0,0-2.205-5.764,6.649,6.649,0,0,1-1.139-2.847,4.738,4.738,0,0,0,1.565-3.7c-.1-2.14-.711-3.2-1.493-5.479s-.57-3.272-.783-5.977a35.8,35.8,0,0,1-.142-4.127s1.827-1.476,1.729-3.056c-.114-1.818-2.014-2.281-1.942-3.7s.948-3.7,2.276-6.617c1.277-2.766.143-4.909.356-6.4a81.946,81.946,0,0,0,2.277-12.025c.853-7.685.5-12.237-.641-16.72s-4.34-8.183-7.825-12.381-4.624-4.7-5.976-5.691a5.508,5.508,0,0,1-2.134-3.488,7.27,7.27,0,0,1-.356-2.347,2.991,2.991,0,0,0,1.565-.641c.622-.547,1.324-.858,1.778-1.708.569-1.067,1.254-1.712,2.276-3.273a20.324,20.324,0,0,0,2.562-5.052,38.266,38.266,0,0,0,2.063-5.834,29.976,29.976,0,0,0,.284-5.55,14.448,14.448,0,0,0-.854-3.557c-.142-.783.854.5,1,.214s-.712-.57-.5-.854,1.351.142.925-.426a5.588,5.588,0,0,1-1-2.065,13.541,13.541,0,0,0-.614-1.8c-.356-1-.6-1.463-.738-1.89s-.524-.315-.88-.743a9.877,9.877,0,0,1-.755-1.116c-.285-.427-.64-.471-.854-.756s-.854-.569-1.209-.925a1.357,1.357,0,0,0-1.067-.213l.213-.428s-.5-.071-1.067-.214-1.565-.284-1.565-.284l.284-.569-1.067.142a1.072,1.072,0,0,0-.854-.5c-.64-.071-.924-.5-1.422-.5s-1.637.071-1.637.071a.725.725,0,0,0-.782-.356c-.5.142-.925.214-.925.214l-.212-.5-.286.569s-.5.214-.783-.071-.5.071-.854.071-.213-.64-.213-.64-.356.071-.427.355-.284,0-.71,0,0,.5,0,1-.356.142-.712-.356-.569-.142-.569-.142a4.749,4.749,0,0,1-.782-.07c-.356-.072-.428.142-.854-.214s-.925.142-.925.142.214-.5-.142-.711-.782.213-.782.213.044-.654-.382-.654a1.548,1.548,0,0,0-.9.441,1.028,1.028,0,0,0-.71-.214c-.5,0-.356.427-1.067.64a20.128,20.128,0,0,1-2.063.569c-1,.214-1.378.583-1.921,1.7-.555,1.153-.555,1.984-.129,2.481a2.513,2.513,0,0,1,.483,1.268,15.86,15.86,0,0,0-2.774,2.7,12.15,12.15,0,0,0-1.707,3.7,1.446,1.446,0,0,0-.809.721,3.1,3.1,0,0,0-.329,2.054,14.437,14.437,0,0,1,.071,2.277c0,.925-.853,1.636-1.636,2.348a12.928,12.928,0,0,1-2.917,1.922,1.487,1.487,0,0,0-.5,2.561,3.153,3.153,0,0,0,1.138,1,2.943,2.943,0,0,1,0,.925,5.7,5.7,0,0,1-.213,1.067s-.64,0-.64.569,1.209.925,1.209.925a5.309,5.309,0,0,1-.071.853c-.071.356-.141.64-.141.64s-.925.143-1.068.712.071.853.5,1.281.294.983-.142,1.493a2.907,2.907,0,0,0-.284,2.633c.356,1.352,1.281,1.565,2.7,1.992s2.633.783,4.554,1.424a3.281,3.281,0,0,1,2.134,2.632,6.767,6.767,0,0,1-1.067.286,12.29,12.29,0,0,1-2.419.283c-1.423.072-2.063.833-3.414.784-1.13-.04-1.779.427-3.487,1.067a9.275,9.275,0,0,0-4.2,2.633,12.07,12.07,0,0,0-2.134,2.846,13.308,13.308,0,0,0-3.414,2.419,3.928,3.928,0,0,0-1.495,3.273,28.92,28.92,0,0,0-3.593,2.454,7.758,7.758,0,0,0-2.382,3.522,5.693,5.693,0,0,1-1.281.427,3.581,3.581,0,0,0-1.849,1.067,11.074,11.074,0,0,1-1.708,1.21,6.66,6.66,0,0,1-1.92,1,5.974,5.974,0,0,0-1.921,1.21s-.786-.818-3.13-1a13.144,13.144,0,0,1-6.4-2.277,9.853,9.853,0,0,1-3.059-3.984,7.738,7.738,0,0,0-1.85-2.49,6.548,6.548,0,0,1-.142-1.21,5.75,5.75,0,0,0-.781-2.419c-.64-1.423-.712-2.065-1.209-3.131s-1.423-.995-3.131-2.134a4.318,4.318,0,0,1-1.848-2.917c-.286-.925-1.424-.071-1.424-.071s-.214-1.139-.355-2.206-1.779-.853-1.779-.853-.284-1.424-.569-4.127-.5-4.838-.925-7.471-1.921-2.348-3.344-2.419-2.845-.071-6.971-.142-6.616-.284-8.964-.426-1.991-2.7-2.277-5.337-.427-3.985-.5-5.692,1.921-1.067,1.921-1.067.013.777.214,3.272c.19,2.366,4.34,1.779,8.465,1.922s10.324.169,15.793.284c6.545.143,10.743.072,12.661.143s2.659-1.722,2.349-5.693c-.356-4.554-2.419-3.913-3.985-4.056s-2.276-.142-6.258-.284-5.407-.214-11.738-.5c-5.905-.262-9.053-.267-13.678-.623-2.712-.2-3.463,1.006-3.65,2.326a11.919,11.919,0,0,0-.031,1.926,15.724,15.724,0,0,0-1.85.213c-1.422.213-1.138,2.491-.923,4.624s.639,5.053,1,7.614,2.916,1.921,7.4,2.134,13.089.712,13.089.712a33.013,33.013,0,0,1,1.067,5.478c.5,3.985.854,7.187.854,7.187a5.027,5.027,0,0,0-1,.427,1.64,1.64,0,0,0-.782,1.565v1.209s-1.729.04-2.108,1.3a1.819,1.819,0,0,0,.542,1.978,10.39,10.39,0,0,0-.355,1.565,7.806,7.806,0,0,0-.072,1.708,1.019,1.019,0,0,0-.5,1c0,.449.142,1.708.142,1.708a3.314,3.314,0,0,0-.427,1.28,2.946,2.946,0,0,0,.284,1.636,8.641,8.641,0,0,1,.64,1.565c.214.784.64,1.068,1.85,2.135a3.537,3.537,0,0,0,2.063,1.067,17.735,17.735,0,0,0,.142,2.989c.214,1.352,1.778,1,3.415.783s.712-2.206,1.139-2.277,1.067,1.067,1.493,2.277.783,1.921,2.776,6.475a30.33,30.33,0,0,0,6.046,9.393,10.29,10.29,0,0,0,3.343,2.205s2.134,2,7.825,1.352c4.829-.555,7.327-2.206,9.96-3.486s5.905-2.7,7.042-3.2a13.717,13.717,0,0,1,2.419-.57c.569-.212,1.5-.569,1.5-.569s-.214.641-.569,2.206a13.309,13.309,0,0,0-.072,5.124,37.159,37.159,0,0,1,.284,3.912s-.5.143-2.418.641a27.56,27.56,0,0,0-5.834,2.561c-2.489,1.28-4.695,2.561-7.113,3.771a57.612,57.612,0,0,1-9.39,3.415c-4.339,1.352-6.545,2.348-9.035,2.7s-3.628,1.138-5.691,1.351a29.665,29.665,0,0,1-4.7-.284c-1.067-.071-3.059.284-4.838.071-1.7-.2-2.134.641-2.7,1.637a7.758,7.758,0,0,0-.782,2.063s-1.637.142-2.347.214-.5,1.28-.5,2.776-.286,2.418-.286,3.415.289.635,1.423,1.068a11.131,11.131,0,0,1,1.495.64,2.344,2.344,0,0,0,.07.925c.143.5.357.427.357.427s-.5,1.921-1.423,5.976-1.352,6.617-4.125,19.709-4.412,20.136-6.76,32.3-3.913,21.131-6.615,34.294-5.122,25.044-7.257,34.935-4.269,21.274-6.4,31.235-4.98,23.836-7.329,35.789-5.406,25.971-7.184,35.007-5.264,25.329-6.9,33.441-2.348,11.811-3.059,15.369-1.707,9.815-2.063,11.595a7.338,7.338,0,0,0-.214,3.13c.143.64.427.427.854.427a9.424,9.424,0,0,0,1.423,0,3.043,3.043,0,0,1,1.637.071,6.777,6.777,0,0,0,2.134.214c.5,0,.284-1.352.284-1.352l.071-2.063s1.35-8.179,2.7-15.509,1.85-9.32,3.913-19.209l.782-3.2,6.686-8.821s-1.017,6.42-1.28,8.324Z" transform="translate(-549.971 -625.555)" fill="#484848"/>
    <path id="Path_33969" data-name="Path 33969" d="M579.085,708.185c1.637-8.823,2.989-14.871,4.624-22.768l1-4.057,5.122-4.979-.835,8.778s-3.227,16.319-3.716,18.9c-.908,4.824-2.277,10.885-2.277,10.885l-7.113,9.25S577.451,717.007,579.085,708.185Z" transform="translate(-561 -360.763)" fill="#9d9e9e"/>
    <path id="Path_33970" data-name="Path 33970" d="M562.648,670.674l1.355-6.04s2.718-.067,7.195,0,9.9-.138,14.311-.138h5.767a4.038,4.038,0,0,0,1.627,0c1.357-.133,2.717-.474,4.212-.609s2.17-.271,3.253-.271,4.883-.271,8.751-.338,5.828-.343,8.749-.343,3.731-.066,3.731-.066l1.969,5.362s-10.986,1.285-16.957,1.9-13.774,1.423-13.774,1.423a2.468,2.468,0,0,0-1.495-.338c-1.085,0-2.916.137-5.02.2s-2.983,0-4.205,0a3.584,3.584,0,0,0-1.766.338s-4.539-.138-9.967-.408a72.059,72.059,0,0,1-7.736-.676Z" transform="translate(-512.539 -431.152)" fill="#9d9e9e"/>
    <path id="Path_33971" data-name="Path 33971" d="M563.107,749.407s.435-2.567,1.178-6.145c.969-4.715,2.053-11.109,3.5-18.487,2.442-12.419,4.482-22.323,6.177-31.279s3.325-16.08,5.562-27.344,4.273-20.086,4.273-20.086,3.939,12.9,8.007,25.583,8.817,25.513,13.228,37.453,8.477,23.141,11.057,30.126,3.188,8.685,3.188,8.685-7.6.206-12.281.338-7.323.267-7.323.267l-.2-.876s-1.361.2-3.8.543-3.659.471-5.291.809a32.114,32.114,0,0,1-6.1.342c-2.784,0-7.933,0-13.5.138A76.264,76.264,0,0,1,563.107,749.407Z" transform="translate(-511.098 -518.703)" fill="#9d9e9e"/>
    <path id="Path_33972" data-name="Path 33972" d="M573.027,678.663s1.089-4.883,2.022-9.214c.782-3.646,1.437-6.866,1.437-6.866s2.717-2.1,2.645-1.085a62.17,62.17,0,0,1-.746,9.5c-.813,4.815-1.562,8-1.562,8Z" transform="translate(-532.549 -439.755)" fill="#9d9e9e"/>
    <path id="Path_33973" data-name="Path 33973" d="M573.508,690.191l5.291-25.65,3.73.275s-.324,2.219-1.6,8.614c-1.192,6.065-2.34,12.349-2.34,12.349l-5.086,4.411Z" transform="translate(-538.936 -422.446)" fill="#9d9e9e"/>
    <path id="Path_33974" data-name="Path 33974" d="M571.651,696.187s3.522-16.289,5.558-26.734,3.331-15.333,3.331-15.333l1.489-.067s-.138,1.7-.272,4.682a48.682,48.682,0,0,1-1.217,9.771c-1.089,5.5-1.965,10.183-3.121,15.946s-1.9,9.361-1.9,9.361Z" transform="translate(-526.901 -477.089)" fill="#9d9e9e"/>
    <path id="Path_33975" data-name="Path 33975" d="M569.631,697.96l5.878-26.6,6.189-26.468,1.493.426s-1.493,7.116-3.556,17.789-3.841,19.14-5.122,25.827a83.546,83.546,0,0,1-1.921,8.609l-2.961.414Z" transform="translate(-515.524 -524.801)" fill="#9d9e9e"/>
    <path id="Path_33976" data-name="Path 33976" d="M586.851,715.01s-4.339-11.172-6.971-18.144-6.757-17.646-9.817-25.757-5.833-15.3-5.833-15.3,1.636-.142,1.28-.925-1.351-2.917-2.276-5.337-1.423-3.274-.711-3.274,1.849-.071,6.4-.425,8.2-.29,12.236-1.067a47.832,47.832,0,0,0,7.682-2.135,6.057,6.057,0,0,1,.641,3.06,19.5,19.5,0,0,0,.782,4.553,14.485,14.485,0,0,0-1.352,5.478A37.06,37.06,0,0,0,588.63,662c.071,1.708.5,2.846.212,4.2a14.549,14.549,0,0,0-.283,3.7c0,1.779-.04,2.908.639,4.126.711,1.28,1.139,2.206,1.139,2.206s-.52,1.495-1.565,4.838a6.766,6.766,0,0,0,.214,5.336s-.427,1.352-.925,3.843c-.236,1.178-.48,2.325-.734,3.61a16.714,16.714,0,0,0-.4,4.784,69.266,69.266,0,0,0,.5,7.615c.284,2.348.5,3.984.5,3.984a16.614,16.614,0,0,1-.143,2.846,9.077,9.077,0,0,1-.5,2.135l-.428-.214Z" transform="translate(-476.426 -536.498)" fill="#9d9e9e"/>
    <path id="Path_34978" data-name="Path 34978" d="M617.4,669.767c-.25-1.547-1.892-1.107-1.892-1.107s-.284-1.424-.569-4.127-.5-4.838-.925-7.471-1.921-2.348-3.344-2.419-2.845-.071-6.971-.142-6.616-.284-8.964-.426-1.991-2.7-2.277-5.337-.427-3.985-.5-5.692,1.921-1.067,1.921-1.067.013.777.214,3.272c.19,2.366,4.34,1.779,8.465,1.922s10.324.169,15.793.284c6.545.143,10.743.072,12.661.143s2.659-1.722,2.349-5.693c-.356-4.554-2.419-3.913-3.985-4.056s-2.276-.142-6.258-.284-5.407-.214-11.738-.5c-5.905-.262-9.053-.267-13.678-.623-2.712-.2-3.463,1.006-3.65,2.326a11.919,11.919,0,0,0-.031,1.926,15.724,15.724,0,0,0-1.85.213c-1.422.213-1.138,2.491-.923,4.624s.639,5.053,1,7.614,2.916,1.921,7.4,2.134,13.089.712,13.089.712a33.013,33.013,0,0,1,1.067,5.478c.5,3.985.854,7.187.854,7.187a2.129,2.129,0,0,0-1.769,1.107,3.3,3.3,0,0,0,.052,2.331l5.068,1.607S617.651,671.314,617.4,669.767Z" transform="translate(-549.972 -625.555)" fill="#484848"/>
    <path id="Path_34979" data-name="Path 34979" d="M614.462,688.7s.406,1.731.619,3.084,1.778,1,3.415.783,1.034-2.26,1.034-2.26Z" transform="translate(-549.972 -625.555)" fill="#484848"/>
  </g>
  <g id="_1547317389072-2" data-name="_1547317389072">
    <path id="Path_33967-2" data-name="Path 33967" d="M576.659,705.39c1.136-5.977,3.84-18.712,4.907-23.906s1.993-9.464,1.993-9.464l3.7-3.2s-.071,1.352-.284,5.48-1,7.043-2.276,14.229-3.415,18.073-3.984,21.345l-6.19,6.332S575.52,711.368,576.659,705.39Z" transform="translate(-549.96 -400.163)" fill="#fefefe"/>
    <path id="Path_33968-2" data-name="Path 33968" d="M569.267,994.463c-.5,3.629-1.21,6.548-1.422,7.827s-.071,1.637.5,1.708a3.534,3.534,0,0,0,1.495,0,2.012,2.012,0,0,1,1.279.071,8.2,8.2,0,0,0,1.921.071c.854,0,.356-1.495.356-1.495a2.587,2.587,0,0,0,.355-.926c.143-.639.143-1.137.712-4.055s.854-4.482,2.776-14.515c1.853-9.681,3.058-15.511,4.766-24.548s3.556-18.57,5.263-27.25,2.917-15.8,4.554-24.12c1.526-7.755,3.343-17.148,4.765-24.262s2.918-14.8,2.918-14.8,4.765.286,9.176.57,10.174.568,10.174.568a2.355,2.355,0,0,0,1.28.356c.781,0,1.493,0,3.913-.072a32.69,32.69,0,0,0,5.192-.356,13.9,13.9,0,0,1,3.059-.569c1.849-.212,5.05-.569,11.169-1.138s18.781-1.993,18.781-1.993,5.691,15.868,9.247,25.544,5.1,14.053,9.106,24.9,3.308,8.84,6.9,18.5,3.557,9.748,7.47,20.136,15.793,42.69,19.634,52.866c3.714,9.831,7.327,19.638,8.466,22.838s1.921,4.981,2.134,5.763a14.023,14.023,0,0,1,.284,2.562c.072.925.57.5,1.139.5a6.262,6.262,0,0,0,1.707.071,3.414,3.414,0,0,1,1.353.071,4.944,4.944,0,0,0,1.421.214,19.452,19.452,0,0,1,2.206.071,10.339,10.339,0,0,0,1.708.073,10.182,10.182,0,0,1,2.134,0,2.26,2.26,0,0,0,1,.142c.5,0,.782.141,1.138.141s.356-.925.427-1.778-.5-1.921-1.992-5.978-2.063-5.905-3.841-10.814-3.984-11.669-3.984-11.669,1.28.071,3.272.142,4.553.142,5.549.284.925-1.065-.925-5.762-3.059-7.543-5.619-14.3-6.758-17.005-9.532-24.191-4.7-12.38-8.182-21.418-4.837-12.522-4.837-12.522-73.273-195.951-75.763-195.595-26.322-2.848-27.032-2.776-.5,1.28-.5,2.776-.286,2.418-.286,3.415.289.635,1.423,1.068a11.131,11.131,0,0,1,1.495.64,2.344,2.344,0,0,0,.07.925c.143.5.357.427.357.427s-.5,1.921-1.423,5.976-1.352,6.617-4.125,19.709-4.412,20.136-6.76,32.3-3.913,21.131-6.615,34.294-5.122,25.044-7.257,34.935-4.269,21.274-6.4,31.235-4.98,23.836-7.329,35.789-5.406,25.971-7.184,35.007-5.264,25.329-6.9,33.441-2.348,11.811-3.059,15.369-1.707,9.815-2.063,11.595a7.338,7.338,0,0,0-.214,3.13c.143.64.427.427.854.427a9.424,9.424,0,0,0,1.423,0,3.043,3.043,0,0,1,1.637.071,6.777,6.777,0,0,0,2.134.214c.5,0,.284-1.352.284-1.352l.071-2.063s1.35-8.179,2.7-15.509,1.85-9.32,3.913-19.209l.782-3.2,6.686-8.821s-1.017,6.42-1.28,8.324Z" transform="translate(-549.971 -625.555)"/>
    <path id="Path_33969-2" data-name="Path 33969" d="M579.085,708.185c1.637-8.823,2.989-14.871,4.624-22.768l1-4.057,5.122-4.979-.835,8.778s-3.227,16.319-3.716,18.9c-.908,4.824-2.277,10.885-2.277,10.885l-7.113,9.25S577.451,717.007,579.085,708.185Z" transform="translate(-561 -360.763)" fill="#9d9e9e"/>
    <path id="Path_33970-2" data-name="Path 33970" d="M562.648,670.674l1.355-6.04s2.718-.067,7.195,0,9.9-.138,14.311-.138h5.767a4.038,4.038,0,0,0,1.627,0c1.357-.133,2.717-.474,4.212-.609s2.17-.271,3.253-.271,4.883-.271,8.751-.338,5.828-.343,8.749-.343,3.731-.066,3.731-.066l1.969,5.362s-10.986,1.285-16.957,1.9-13.774,1.423-13.774,1.423a2.468,2.468,0,0,0-1.495-.338c-1.085,0-2.916.137-5.02.2s-2.983,0-4.205,0a3.584,3.584,0,0,0-1.766.338s-4.539-.138-9.967-.408a72.059,72.059,0,0,1-7.736-.676Z" transform="translate(-512.539 -431.152)" fill="#9d9e9e"/>
    <path id="Path_33971-2" data-name="Path 33971" d="M563.107,749.407s.435-2.567,1.178-6.145c.969-4.715,2.053-11.109,3.5-18.487,2.442-12.419,4.482-22.323,6.177-31.279s3.325-16.08,5.562-27.344,4.273-20.086,4.273-20.086,3.939,12.9,8.007,25.583,8.817,25.513,13.228,37.453,8.477,23.141,11.057,30.126,3.188,8.685,3.188,8.685-7.6.206-12.281.338-7.323.267-7.323.267l-.2-.876s-1.361.2-3.8.543-3.659.471-5.291.809a32.114,32.114,0,0,1-6.1.342c-2.784,0-7.933,0-13.5.138A76.264,76.264,0,0,1,563.107,749.407Z" transform="translate(-511.098 -518.703)" fill="#9d9e9e"/>
    <path id="Path_33972-2" data-name="Path 33972" d="M573.027,678.663s1.089-4.883,2.022-9.214c.782-3.646,1.437-6.866,1.437-6.866s2.717-2.1,2.645-1.085a62.17,62.17,0,0,1-.746,9.5c-.813,4.815-1.562,8-1.562,8Z" transform="translate(-532.549 -439.755)" fill="#9d9e9e"/>
    <path id="Path_33973-2" data-name="Path 33973" d="M573.508,690.191l5.291-25.65,3.73.275s-.324,2.219-1.6,8.614c-1.192,6.065-2.34,12.349-2.34,12.349l-5.086,4.411Z" transform="translate(-538.936 -422.446)" fill="#9d9e9e"/>
    <path id="Path_33974-2" data-name="Path 33974" d="M571.651,696.187s3.522-16.289,5.558-26.734,3.331-15.333,3.331-15.333l1.489-.067s-.138,1.7-.272,4.682a48.682,48.682,0,0,1-1.217,9.771c-1.089,5.5-1.965,10.183-3.121,15.946s-1.9,9.361-1.9,9.361Z" transform="translate(-526.901 -477.089)" fill="#9d9e9e"/>
    <path id="Path_33975-2" data-name="Path 33975" d="M569.631,697.96l5.878-26.6,6.189-26.468,1.493.426s-1.493,7.116-3.556,17.789-3.841,19.14-5.122,25.827a83.546,83.546,0,0,1-1.921,8.609l-2.961.414Z" transform="translate(-515.524 -524.801)" fill="#9d9e9e"/>
    <path id="Path_33976-2" data-name="Path 33976" d="M586.851,715.01s-4.339-11.172-6.971-18.144-6.757-17.646-9.817-25.757-5.833-15.3-5.833-15.3,1.636-.142,1.28-.925-1.351-2.917-2.276-5.337-1.423-3.274-.711-3.274,1.849-.071,6.4-.425,8.2-.29,12.236-1.067a47.832,47.832,0,0,0,7.682-2.135,6.057,6.057,0,0,1,.641,3.06,19.5,19.5,0,0,0,.782,4.553,14.485,14.485,0,0,0-1.352,5.478A37.06,37.06,0,0,0,588.63,662c.071,1.708.5,2.846.212,4.2a14.549,14.549,0,0,0-.283,3.7c0,1.779-.04,2.908.639,4.126.711,1.28,1.139,2.206,1.139,2.206s-.52,1.495-1.565,4.838a6.766,6.766,0,0,0,.214,5.336s-.427,1.352-.925,3.843c-.236,1.178-.48,2.325-.734,3.61a16.714,16.714,0,0,0-.4,4.784,69.266,69.266,0,0,0,.5,7.615c.284,2.348.5,3.984.5,3.984a16.614,16.614,0,0,1-.143,2.846,9.077,9.077,0,0,1-.5,2.135l-.428-.214Z" transform="translate(-476.426 -536.498)" fill="#9d9e9e"/>
    <path id="Path_34978-2" data-name="Path 34978" d="M617.4,669.767c-.25-1.547-1.892-1.107-1.892-1.107s-.284-1.424-.569-4.127-.5-4.838-.925-7.471-1.921-2.348-3.344-2.419-2.845-.071-6.971-.142-6.616-.284-8.964-.426-1.991-2.7-2.277-5.337-.427-3.985-.5-5.692,1.921-1.067,1.921-1.067.013.777.214,3.272c.19,2.366,4.34,1.779,8.465,1.922s10.324.169,15.793.284c6.545.143,10.743.072,12.661.143s2.659-1.722,2.349-5.693c-.356-4.554-2.419-3.913-3.985-4.056s-2.276-.142-6.258-.284-5.407-.214-11.738-.5c-5.905-.262-9.053-.267-13.678-.623-2.712-.2-3.463,1.006-3.65,2.326a11.919,11.919,0,0,0-.031,1.926,15.724,15.724,0,0,0-1.85.213c-1.422.213-1.138,2.491-.923,4.624s.639,5.053,1,7.614,2.916,1.921,7.4,2.134,13.089.712,13.089.712a33.013,33.013,0,0,1,1.067,5.478c.5,3.985.854,7.187.854,7.187a2.129,2.129,0,0,0-1.769,1.107,3.3,3.3,0,0,0,.052,2.331l5.068,1.607S617.651,671.314,617.4,669.767Z" transform="translate(-549.972 -625.555)"/>
    <path id="Path_34979-2" data-name="Path 34979" d="M614.462,688.7s.406,1.731.619,3.084,1.778,1,3.415.783,1.034-2.26,1.034-2.26Z" transform="translate(-549.972 -625.555)"/>
  </g>
</svg>
