<svg xmlns="http://www.w3.org/2000/svg" width="85" height="85" viewBox="0 0 85 85">
    <g id="Layer_x0020_1" transform="translate(392.12 120.464)">
        <g id="Layer_x0020_1-2" data-name="Layer_x0020_1" transform="translate(-352 -279.184)">
            <rect id="Rectangle_269" data-name="Rectangle 269" width="85" height="85" rx="21.25" transform="translate(-40.12 158.72)" fill="#9d9e9e"/>
            <path id="Path_34542" data-name="Path 34542" d="M3.151,163.22a83.3,83.3,0,0,0-38.34,25.754,11.516,11.516,0,0,0-.669,12.931A116.928,116.928,0,0,0-9.45,233.262,9.887,9.887,0,0,0-2.5,234.77a69.262,69.262,0,0,0,37.5-16.068,9.931,9.931,0,0,0,2.26-7.163,78.451,78.451,0,0,0-22.846-46.147,11.188,11.188,0,0,0-11.256-2.171h0Z" transform="translate(2.5 0.571)" fill="#fff" stroke="#2b2a29" stroke-linejoin="bevel" stroke-miterlimit="22.926" stroke-width="1" fill-rule="evenodd"/>
            <g id="fill-design-with-color-of-a-paint-cube-svgrepo-com" transform="translate(-22.958 177.777)">
                <path id="Path_34899" data-name="Path 34899" d="M8.75,17.722a2.326,2.326,0,0,0,2.341,2.341,1.991,1.991,0,0,0,.9-.2V39.021A2.012,2.012,0,0,0,14,41.027H38.643a2.012,2.012,0,0,0,2.006-2.006V19.861a2.244,2.244,0,0,0,.936.2,2.326,2.326,0,0,0,2.341-2.341,17.588,17.588,0,1,0-35.176,0Zm28.856,5.885a16.753,16.753,0,0,0-1.471,1.973,4.646,4.646,0,0,0-.3,2.341,5.191,5.191,0,0,1-.067,1.6,1.687,1.687,0,0,1-1,1.17,1.771,1.771,0,0,1-1.907-.936,3.8,3.8,0,0,1-.3-2.207c.1-1.037.669-4.681-1.5-3.946a3.045,3.045,0,0,1-2.876-.368,2.985,2.985,0,0,0-2.341-.769,2.582,2.582,0,0,0-1.438,2.14,7.242,7.242,0,0,0-.134,2.809A8.057,8.057,0,0,1,24.5,29.19a1.964,1.964,0,0,1-.8,1.538,1.694,1.694,0,0,1-1.772-.067,2.561,2.561,0,0,1-1.037-1.471c-.4-1.471.769-5.45-1.5-5.952a1.308,1.308,0,0,0-1.471.769c-.2.334-.368.7-.736.836-1.137.4-2.675-.736-2.675-2.374,0-.769-.033-1.5-.033-2.274V18.858a1.077,1.077,0,0,1,1.07-1.07H37.171a1.056,1.056,0,0,1,1.07,1.07v1.4C38.208,20.229,38.342,22.57,37.606,23.606ZM26.338,4.681A12.992,12.992,0,0,1,39.077,15.548a1.9,1.9,0,0,0-.435-.033H14a1.628,1.628,0,0,0-.4.033A12.992,12.992,0,0,1,26.338,4.681Z" transform="translate(0)" fill="#e31e24"/>
            </g>
        </g>
    </g>
</svg>
