<svg xmlns="http://www.w3.org/2000/svg" width="85" height="85" viewBox="0 0 85 85">
    <g id="Layer_x0020_1" transform="translate(5.241 -1.401)">
        <rect id="Rectangle_783" data-name="Rectangle 783" width="85" height="85" rx="20" transform="translate(-5.241 1.401)" fill="#9d9e9e"/>
        <path id="Path_34832" data-name="Path 34832" d="M3.151,163.22a83.3,83.3,0,0,0-38.34,25.754,11.516,11.516,0,0,0-.669,12.931A116.928,116.928,0,0,0-9.45,233.262,9.887,9.887,0,0,0-2.5,234.77a69.262,69.262,0,0,0,37.5-16.068,9.931,9.931,0,0,0,2.26-7.163,78.451,78.451,0,0,0-22.846-46.147,11.188,11.188,0,0,0-11.256-2.171h0Z" transform="translate(37.379 -155.359)" fill="#fff" stroke="#2b2a29" stroke-linejoin="bevel" stroke-miterlimit="22.926" stroke-width="1" fill-rule="evenodd"/>
        <g id="_1736096359088" transform="translate(13.97 22.275)">
            <path id="Path_34197" data-name="Path 34197" d="M-13.542,200.1l2.244,13.045c-1.77,1.48-2.549,1.946-2.193,4.169L5.575,209.26c-2.116-1.835-4.028-1.4-7.066-.144l-.8-4.131c2.229-1.216,2.94-.759,2.791-3.159-.083-1.33-.177-3.357-.905-4.475l-2.909,1.1-.465-2.345,2.463-1.36-5.739-13.526c-1.764.245-8.137,3.234-10.2,4.14-2.463,1.079-8.393,2.8-8.774,5.026-.235,1.374,2.922,8.335,3.79,10.107,1.8,3.673,5.365.9,8.706-.383Z" transform="translate(26.05 -177.729)" fill="#393185" fill-rule="evenodd"/>
            <path id="Path_34198" data-name="Path 34198" d="M-8.919,227.357c2.028-.1,17.421-6.69,18.79-8.1-.037-1.75-1.52-4.768-2.438-6.675l-19.482,8.3c.751,2.041,1.886,5.127,3.13,6.475Z" transform="translate(25.303 -179.402)" fill="#393185" fill-rule="evenodd"/>
            <path id="Path_34199" data-name="Path 34199" d="M1.752,193.79c3.9-1.466,5.349-3.249,4.594-6.813,5.937-2.567,2.981-2.664,4.127-3.832,1.635-1.664,10.343-2.354,8.485-5.578-1.974-.372-6.8,2.31-9.081,3.293-2.434.222-.562-1.771-5.818.548-2.422-2.942-3.985-3.506-8.114-1.318l5.806,13.7Z" transform="translate(24.877 -177.533)" fill="#393185" fill-rule="evenodd"/>
        </g>
    </g>
</svg>
