<svg xmlns="http://www.w3.org/2000/svg" width="85" height="85" viewBox="0 0 85 85">
    <g id="Layer_x0020_1" transform="translate(31.694 -150.702)">
        <rect id="Rectangle_761" data-name="Rectangle 761" width="85" height="85" rx="20" transform="translate(-31.694 150.702)" fill="#9d9e9e"/>
        <path id="Path_34810" data-name="Path 34810" d="M3.151,163.22a83.3,83.3,0,0,0-38.34,25.754,11.516,11.516,0,0,0-.669,12.931A116.928,116.928,0,0,0-9.45,233.262,9.887,9.887,0,0,0-2.5,234.77a69.262,69.262,0,0,0,37.5-16.068,9.931,9.931,0,0,0,2.26-7.163,78.451,78.451,0,0,0-22.846-46.147,11.188,11.188,0,0,0-11.256-2.171h0Z" transform="translate(10.926 -6.059)" fill="#ffed00" stroke="#2b2a29" stroke-linejoin="bevel" stroke-miterlimit="22.926" stroke-width="1" fill-rule="evenodd"/>
        <g id="Group_1827" data-name="Group 1827" transform="translate(4 -1.218)">
            <path id="Path_33605" data-name="Path 33605" d="M-8.946,188.192l2,8.67a65.8,65.8,0,0,1-3.359-6.575c-.819-1.913-1.4-3.3-1.832-4.31l2.776,1.645a.9.9,0,0,1,.416.57Zm-7.635-4.3a.721.721,0,0,1,.975.3.72.72,0,0,1-.231.992.721.721,0,0,1-.974-.3.721.721,0,0,1,.231-.992Zm-.56,5.383a.721.721,0,0,1-.975-.3.721.721,0,0,1,.231-.992.72.72,0,0,1,.974.3.72.72,0,0,1-.23.992Zm-4.41-5.814a.721.721,0,0,1,.231-.992.721.721,0,0,1,.975.3.721.721,0,0,1-.231.992.721.721,0,0,1-.974-.3Zm11.367-3.059a.721.721,0,0,1,.974.3.721.721,0,0,1-.231.992.721.721,0,0,1-.975-.3.722.722,0,0,1,.231-.992Zm3.924,6.549c-1.015-2.989-1.689-5.825-2.123-6.641s-1.312-1.149-3-1.813-1.511-.6-3.081-2.583a8.023,8.023,0,0,0-3.423-2.653,2.056,2.056,0,0,0-1.118.008.164.164,0,0,0-.1.241l3.19,6.09a.656.656,0,0,1,.057.463l-.568,2.249c-.424-.036-.8-.044-1.054-.045a1.145,1.145,0,0,1-.632-.192l-.988-.652a.92.92,0,0,1-.349-.437l-2.412-6.357a.281.281,0,0,0-.371-.169,2.194,2.194,0,0,0-.931.691c-.326.511-.528,2.189-.367,4.77s-.047,2.772,1.566,5.452a77.177,77.177,0,0,0,5.849,8.641c1.83,2.161,3.983,3.167,5.958,6.069,1.69,2.486,4.342,7.333,5.066,8.67a1.188,1.188,0,0,0,.544.511l.642.292h0l.668,1.156a.4.4,0,0,0,.544.146l.473-.273,1.245,2.157-.781.451a.4.4,0,0,0-.146.544l.572.991a.4.4,0,0,0,.544.145l2.889-1.668a.4.4,0,0,0,.145-.543l-.572-.991a.4.4,0,0,0-.543-.146l-.781.451L-.89,209.823l.473-.273a.4.4,0,0,0,.146-.544l-.667-1.156.13-.787a.994.994,0,0,0-.164-.716c-.3-.43-.859-1.259-1.58-2.357-.135-.883-.3-2.027-.507-3.493,4.156,2.623,7.571,8.184,9.1,8.96s1.727.128,1.727.128-7.271-7.721-10.2-12.5-2.807-7.141-3.824-10.128Z" transform="translate(7.042 6.469)" fill="#252422"/>
            <path id="Path_33606" data-name="Path 33606" d="M6.614,174.485a1.384,1.384,0,0,1-.655.186,2.067,2.067,0,1,1-1.219-2.114,1.387,1.387,0,1,1,1.874,1.928Zm8.924,6.675c-3.541-3.584-5.329-5.6-6.475-7.489s-2.942-3.773-3.923-3.8l-2.115,1.221-.5-.859A2.779,2.779,0,0,1,.3,168.605a2.782,2.782,0,0,1-.29-2.744l-1.517-2.628-.388.224a10.418,10.418,0,0,0,.467,9.323c2.75,4.764,6.392,5.712,9.573,7.4s6.294,2.31,9.44,5.65a33.19,33.19,0,0,1,5.862,8.536,44.842,44.842,0,0,1,2.018,4.573s.15.385.472.278a.4.4,0,0,0,.324-.517,26.859,26.859,0,0,0-3-7.4,41.066,41.066,0,0,0-7.719-10.135Z" transform="translate(7.135 3.754)" fill="#252422"/>
            <path id="Path_33607" data-name="Path 33607" d="M6.065,179.883c-.78-.371-1.594-.757-2.411-1.218a61.927,61.927,0,0,1,2.538,7.89,41.068,41.068,0,0,0,4.917,11.753,26.9,26.9,0,0,0,4.911,6.3.4.4,0,0,0,.61-.022c.253-.225,0-.548,0-.548A45.148,45.148,0,0,1,13.675,200a33.154,33.154,0,0,1-4.461-9.344c-1.116-3.712-.564-6.435-.286-9.359-.362-.172-.728-.352-1.092-.545-.573-.3-1.155-.579-1.771-.872Z" transform="translate(7.135 3.754)" fill="#252422"/>
            <path id="Path_33608" data-name="Path 33608" d="M5.16,169.212c1.275.042,2.956,1.89,4.022,3.443a13.532,13.532,0,0,0-1.761-4.985A10.418,10.418,0,0,0-.421,162.6l-.382.221,1.519,2.631a2.791,2.791,0,0,1,2.224,1.624,2.785,2.785,0,0,1,.294,2.738l.171.3,1.569-.906.186.006Z" transform="translate(7.135 3.754)" fill="#252422"/>
            <path id="Path_33609" data-name="Path 33609" d="M3.177,173.189a1.455,1.455,0,1,0,2.178,1.2,1.438,1.438,0,0,0-.676-1.172,1.446,1.446,0,0,0-1.5-.031Z" transform="translate(7.135 3.754)" fill="#252422"/>
        </g>
    </g>
</svg>
