<svg id="Component_148_2" data-name="Component 148 – 2" xmlns="http://www.w3.org/2000/svg" width="140" height="307.72" viewBox="0 0 140 307.72">
    <path id="Path_33989" data-name="Path 33989" d="M552.5,665.8l-8.627-.012c-.308-.042-.587-.37-.8-.889h-2.23a1.925,1.925,0,0,1-1.274-.8l-.654-.254a1.313,1.313,0,0,1-.1-.434l-.607,0a.146.146,0,0,1-.143-.146l0-.3-1.115-.04-.281.141a1.84,1.84,0,0,1-.961.019,5.478,5.478,0,0,1-.867-.365,2.015,2.015,0,0,1-1.379.363c-1.02,0-1.646-.045-1.646-.045a2.372,2.372,0,0,1-1-.331,2.649,2.649,0,0,1-1.239.34l-1.693-.033a2.36,2.36,0,0,1-1.115-.324,2.513,2.513,0,0,1-1.019.34l-.6.014a.306.306,0,0,1-.138.064l-.79-.048-.13-.072-.452-.679a.222.222,0,0,1,0-.268c.082-.144.383-.636.482-.8.044-.062.183-.048.183-.048l.875.1.623.026a2.608,2.608,0,0,1,.538.111c.259.1.521.227.521.227s.276-.364,1.52-.343c.948.017,1.62.05,1.62.05a2.954,2.954,0,0,1,.972.329s.273-.364,1.5-.344c.935.015,1.6.049,1.6.049a2.667,2.667,0,0,1,.894.294s.317-.373,1.285-.318a.946.946,0,0,1,.555.153l1.261.039,0-.356a.144.144,0,0,1,.145-.142l.6,0a1.671,1.671,0,0,1,.109-.55l.765-.329a1.775,1.775,0,0,1,1.139-.653l2.233,0c.217-.515.5-.841.8-.882H552.5c.147-.746.338-1.2.544-1.2H557.4l.51-.564c.159-.209.71-.289.873,0,.109.2.005.482,0,.564l2.522.012a2.1,2.1,0,0,1,.193-.576c.153-.333.863-.323,1.048-.072a3.172,3.172,0,0,0,.212.344l2.183,1.579h5.509c.145-.8.77-.706.77-.706h5.541a1.808,1.808,0,0,1,.946.219l1.566,1.565a1.315,1.315,0,0,1,.254,1.128,22.743,22.743,0,0,1-.728,2.411s-.219,1.164.219,1.674a39.968,39.968,0,0,1,2.511,5.686,23.524,23.524,0,0,1,2.944.094c.868.145,3.692,3.763,4.56,4.487s.869,2.75,1.013,3.256,2.148,4.035,2.148,4.035l2.633,2.318s.288.122.869,1c.459.7,1.069,1.5,1.069,1.5a14.376,14.376,0,0,1,1.524-1.891l1.987-1.777a.984.984,0,0,1,.178-.99s2.226-1.745,2.586-2.165a48.21,48.21,0,0,1,3.729-4.63,4.448,4.448,0,0,1,.481-2.767s6.565-6.1,7.217-6.5a6.808,6.808,0,0,1,1.889-.609s-.079-1.132-.106-1.372a11.521,11.521,0,0,1,.293-1.71.682.682,0,0,0-.4-.733s-.745-.472-.905-.873a2.418,2.418,0,0,1,.107-1.21l-.46-.4a1.124,1.124,0,0,1-.3-.654,3.674,3.674,0,0,1,.254-.812l.133-1.987a4.1,4.1,0,0,0-1.014-.4c-.321-.027-1.122.026-1.469,0s-.731-.935-.679-1.282a9.432,9.432,0,0,1,.573-1.416l1.549-3.162s-1.015-2.762-1.1-3.135a.78.78,0,0,1,.241-.668l.374-.027-.093-.354a4.741,4.741,0,0,1,.337-1.07,17.291,17.291,0,0,0,.62-1.973l.4-4.595-1.71-.133s-.723-1.644.921-4.17,7.394-5.513,10.446-6.434,10.078-1.447,11.13-1.579a5.593,5.593,0,0,1,4.273,1.655,1.181,1.181,0,0,0,.005-.766l.378.266.415.987.176-.57.365,1,.087-.675,1.4,1.013a5.744,5.744,0,0,1,1.873,2.911,11.66,11.66,0,0,1,2.13,3.579c.856,2.237,2.881,8.275,2.79,9.2s-1.276,3.184-1.341,3.842a7.913,7.913,0,0,1-.526,3.093c-.527.88-1.448,2.13-1.448,2.723s-.04,2.46-.92,2.789c-.553,1.776,1.026,6.828,2.96,9.394,1.868,1.579,2.657,2.3,2.657,2.3l1.974,3.118s6.434,7.263,7.88,10.841,2.723,5.578,2.855,8.012.368,9.827-.487,11.367a37.032,37.032,0,0,0-1.908,4.762,11.949,11.949,0,0,1-1.118,2.789c-.527.658-6.565,9.13-6.828,10.117s-4.368,8.275-4.631,9.065-.526,9.789-.526,9.789.846,6.011.738,7.193a11.214,11.214,0,0,1-.607,2.475s.686-.055.777.5,1.153,6.425,1.153,6.425.147.687-.412.87-1.519.641-1.519.641l.183,2.205.137.915a3.5,3.5,0,0,1,1.107.96,26.593,26.593,0,0,1,.183,4.082l.87.778s.183-.01.137,1.144-.733,16.785-.961,18.113-1.291,2.435-1.657,3.3-1.556,4.768-1.968,5.271a2.93,2.93,0,0,1-1.327.732s.732,4.129.457,5-.649,1.978-.649,1.978,1.625,8.791,1.354,12.748-.135,18.524-.135,18.524a19.984,19.984,0,0,1,1.889,5.214c.675,3.1,1.663,8.857,1.663,8.857l.944,3.913.136,5.306s.673,8.992.944,13.083-3.687,20.458-3.687,20.458l.539,12.094a11.93,11.93,0,0,1,.426,1.938,5.108,5.108,0,0,1-.678,2.035,21.742,21.742,0,0,1,1.465,3.161c.114.679-.278,3.954-.222,4.461s.166,1.809.166,1.809q-.04.4-.561.567l.112,1.8a1.237,1.237,0,0,1,.675.962c.056.678-.057,5.478-.057,5.478s-.419,1.672-4.822,2.964-6.3,1.179-6.3,1.179l-2.014-1.444s-3,1.52-3.491,1.863-3.148,1.634-3.148,1.634l-.533,1.019a23.476,23.476,0,0,1-10.061,2.777c-6.266.418-13.208-.2-17.345-3.308a8.091,8.091,0,0,1-2.28-2.085,2.277,2.277,0,0,1-.152-1.141,18.374,18.374,0,0,1,.8-1.97,1.833,1.833,0,0,1,.95-.342c.228-1.673.449-3.644,3.376-4.707a36.3,36.3,0,0,1,5.316-1.37c.837-.266,4.859-2.547,4.859-2.547a8.82,8.82,0,0,1,.342-.867,12.2,12.2,0,0,1,2.781-2.069c-.346-.042-.336-.634-.192-.727.426-.321.993.052,1.14.115l.18-.132c.307-.256,1.216-1.267,1.778-1.9-.107-.123-.043-.419-.043-.419s.026-.193.427-.267a.9.9,0,0,1,.119-.675c.3-.57,1.019-1.6,1.019-1.6a31.2,31.2,0,0,1-12.013,1.08c-7.057-.646-12.45-5.466-12.45-5.466a14.124,14.124,0,0,1-.144-2.28,4.988,4.988,0,0,1,.743-1.556.66.66,0,0,1,.768-.242c.121-.809.788-3.094,2.629-3.539s8.047,0,8.047,0l3.823-.2,2.812-1.859q.231-.664.524-.755.093-.18.8-.118l1.29-.854a.761.761,0,0,1,.183-.505.406.406,0,0,1,.406.011,3.253,3.253,0,0,1,.843-1.279,12.405,12.405,0,0,0,1.314-1.415s.081-3.56.647-4.307,2.224-2.61,2.224-2.61a22.538,22.538,0,0,1-2.628-2.1c-.445-.565-.03-4.926.115-5.65a24.317,24.317,0,0,0,.362-3.618c0-1.085.072-15.268.072-15.268s-1.158-.579-1.3-1.447,1.013-2.677.651-3.4-1.809-4.92-2.388-6.078-1.23-2.315-1.882-2.461a3.533,3.533,0,0,1-2.46-1.954c-.361-1.157-5.571-19.827-6.005-21.562s-3.473-28.8-3.473-28.8-1.569.728-2.38-.051c-.141-.319.637-1.807.779-2.582a15.978,15.978,0,0,0-.248-3.145s-4.527,2.369-5.056,2.546-1.482.531-1.376-.142,1.482-2.437,1.907-4.56.585-14.063.585-14.063a2.045,2.045,0,0,1,0-1.736c.434-.941,1.086-2.027,1.086-2.027s-.073-7.308.289-7.959,1.664-.362,1.664-.362,0-.653-.07-1.542c-.045-.582,1.156-.7,1.156-.7l-.608-4s-1.469-21.9-.4-27.1a122.12,122.12,0,0,1-9.3-13.839,20.813,20.813,0,0,1-4.472.088c.487,1.271.881,2.33,1.108,3,1.446,4.228,3.464,10.592,1.69,15.206a55.408,55.408,0,0,0-2.506,15.93l-1.456.012a56.643,56.643,0,0,1,2.6-16.465c1.549-4.026-.215-9.842-1.709-14.212-.327-.958-1-2.726-1.794-4.769-.174-.158-.275-.264-.275-.264-2.795-2.331-3.7-2.97-5.507-4.748a71.414,71.414,0,0,1-8.327-10.664l-3.463-6.676a3.284,3.284,0,0,1-1.986-.133c-.876-.425-2.295-1.052-2.295-1.052l-2.98.175s-1.3,1.71-2.235,1.477a7.886,7.886,0,0,1-3.638-2.412c-.774-1.11-.585-1.519-.585-1.519a5.227,5.227,0,0,1-1.167-1.11,15.5,15.5,0,0,1-1.11-2.119,5.764,5.764,0,0,1-1.577-1.228,13.785,13.785,0,0,1-.892-3.579c-1.067-.351-1.52-1.927-1.52-2.82a3.168,3.168,0,0,1,.527-1.635,11.112,11.112,0,0,1,2.366-2.082l-.137-.6Zm55.15,33.707-3.337,1.963,2.766,2.479Z" transform="translate(-523.612 -625.905)" fill="#2b2a29"/>
    <path id="Path_33990" data-name="Path 33990" d="M523.726,660.241s3.65-3.014,8.153-6.074c4.466-3.034,9.888-6.2,13.406-6.387a16.157,16.157,0,0,1,4.3.32c-.225-1-.783-3.416-1.492-6.03-.937-3.462-2.108-7.148-3.079-8.426l.578-.44c1.793,2.358,4.021,11.615,4.782,15.091,3.856,1.076,6.188,3.554,6.93,5.6.592,1.628.368,5.623-.095,8.979-.685,1.589-1.321,3.538-1.321,3.538s-.163.586-.394,1.239l-.059-.031c.807-1.54,2.109-10.939,1.187-13.477-.9-2.482-4.641-5.989-11.3-5.634-5.474.292-16.708,8.641-21.135,12.295Z" transform="translate(-418.411 -585.593)" fill="#ffed00"/>
    <path id="Path_33991" data-name="Path 33991" d="M527.846,629.332l1.385.21s12.507-.385,15.246-.514,9.635-.043,9.635-.043.471.9.171.986-3.344-.043-3.344-.043a3.513,3.513,0,0,0-2.353-.857,7.558,7.558,0,0,0-3.043,1.329s-4.192.723-5.306,1.409-2.657,1.8-3,1.929-5.607,2.138-5.906,2.267a1.048,1.048,0,0,1-1.114-.043,6.521,6.521,0,0,1-1.911-2.688l.033-.068s-1.014-2.758-1.094-3.13a.779.779,0,0,1,.24-.667l.373-.026-.013-.05Z" transform="translate(-437.997 -609.082)" fill="#ffed00" fill-rule="evenodd"/>
    <path id="Path_33992" data-name="Path 33992" d="M548.842,631.422l0,.018a10.965,10.965,0,0,0-.332,1.986.566.566,0,0,1-.511.449h-1.735c-.177-.022-.335-.079-.387-.423a5.111,5.111,0,0,1,.433-1.993l.017-.024h-.007c.005-.082.109-.367,0-.563-.163-.289-.713-.209-.872,0l-.509.563h-4.346c-.205,0-.4.457-.543,1.2h-2.758c-.7.071-1.264,1.638-1.264,3.561,0,1.97.588,3.565,1.314,3.565l.023,0,2.69,0h0l.113.5.089.016a1.653,1.653,0,0,1,2,.577,4.436,4.436,0,0,1,.843,2.483,2.582,2.582,0,0,1-.355,1.077,25.079,25.079,0,0,1,3.028-2.363,1.741,1.741,0,0,1,2.173.444,4.284,4.284,0,0,1,.931,2.894c1.387-.975,2.048-1.107,2.782-.4a4.507,4.507,0,0,1,1.026,1.3h1.791a.7.7,0,0,1,.631.181l.505.758c.053.176.208.273.463.295h1.264a2.191,2.191,0,0,0,.842-.252l1.508-.042a12.88,12.88,0,0,1,5.469.028,10.854,10.854,0,0,1,2.895.975,18.2,18.2,0,0,0,1.95-.842c.311-.222.046-.8.046-.8l-1-1.912h-.01A39.939,39.939,0,0,0,566.527,639c-.437-.509-.218-1.671-.218-1.671a22.628,22.628,0,0,0,.727-2.409,1.315,1.315,0,0,0-.253-1.126l-1.564-1.562a1.8,1.8,0,0,0-.944-.218h-5.533s-.624-.095-.769.7h-5.5l-2.18-1.577a3.217,3.217,0,0,1-.212-.344c-.185-.251-.894-.26-1.047.072a2.258,2.258,0,0,0-.19.55Z" transform="translate(-511.153 -599.933)" fill="#ffed00"/>
    <path id="Path_33993" data-name="Path 33993" d="M541.34,630.923a19.14,19.14,0,0,0-.294,3.626,17.5,17.5,0,0,0,.355,3.89l-.033.009-.074-.326h-.385a23.388,23.388,0,0,1,0-7.133h.382l.014-.073.037.008Z" transform="translate(-512.403 -598.287)" fill="#2b2a29"/>
    <path id="Path_33994" data-name="Path 33994" d="M537.1,630.833a1.761,1.761,0,0,0-.248.8.289.289,0,0,0,.577.033,1.313,1.313,0,0,1,.395-.832h-.6a.565.565,0,0,0-.121,0Zm1.364,0h.725a1.313,1.313,0,0,0-.395.832.289.289,0,0,1-.577-.033,1.757,1.757,0,0,1,.248-.8Zm1.364,0h.725a1.313,1.313,0,0,0-.395.832.289.289,0,0,1-.578-.033,1.757,1.757,0,0,1,.248-.8Zm1.364,0h.725a1.318,1.318,0,0,0-.4.832.289.289,0,1,1-.576-.033A1.756,1.756,0,0,1,541.2,630.834Zm1.364,0h.2a2.349,2.349,0,0,1,.482.048,1.292,1.292,0,0,0-.349.784.289.289,0,0,1-.577-.033,1.756,1.756,0,0,1,.247-.8Z" transform="translate(-489.618 -598.751)" fill="#2b2a29"/>
    <path id="Path_33995" data-name="Path 33995" d="M576.024,644.692s-4.258,2.5-6.359,3.521-11.588,4.388-11.588,4.388-13.585.631-16.633.631-8.539.71-8.539.71v-2.286l.449-.079-1.056-2.054.009.057s-1.2.119-1.155.7c.068.889.07,1.541.07,1.541s-1.3-.289-1.662.361-.289,7.948-.289,7.948-.651,1.083-1.085,2.023a2.043,2.043,0,0,0,0,1.734s-.16,11.924-.584,14.043-1.8,3.883-1.9,4.554.848.318,1.374.142c.415-.139,3.3-1.633,4.514-2.265l.371-.407a56.444,56.444,0,0,1-1.156-5.886,45.86,45.86,0,0,1,.919-6.332s1.656,4.966,1.735,5.728c.057.552-.8,4.755-1.272,7.022a12.662,12.662,0,0,1,.186,2.737c-.142.774-.918,2.26-.777,2.579a2.164,2.164,0,0,0,2.115.154l.222-.272a3.4,3.4,0,0,1,2.259-.71c1.182.159,2.314.947,3.627.71s4.073-.71,4.073-.71l7.435-.236s4.7,1.156,5.1-.474-1.1-2.811-1.1-3.52.078-5.413.078-5.413.809-2.247,1.045-2.771.453-8.9.532-10a18.347,18.347,0,0,1,1.341-3.835s10.563-1.971,12.3-2.287,4.626-2.733,4.626-2.733l.981-.329-.009-.113s.959-.458,1.517-.64.411-.869.411-.869-1.06-5.858-1.152-6.416-.776-.5-.776-.5.03-.078.075-.211l-.259.069Z" transform="translate(-451.687 -522.529)" fill="#ffed00" fill-rule="evenodd"/>
    <path id="Path_33996" data-name="Path 33996" d="M545.573,669.528l-.191.032a.121.121,0,0,0-.012.034s-.064.3.043.418c-.561.632-1.469,1.642-1.776,1.9l-.18.132c-.146-.062-.713-.435-1.138-.115-.144.093-.154.684.192.726a12.17,12.17,0,0,0-2.778,2.066,8.866,8.866,0,0,0-.342.866s-4.017,2.278-4.852,2.544a36.042,36.042,0,0,0-5.309,1.368c-2.923,1.062-3.144,3.029-3.371,4.7h-.017a3.172,3.172,0,0,0,.2,1.279c5.45,3.99,14.889,3.99,19.26,3.926a16.111,16.111,0,0,0,7.6-2.088s6.592-3.672,8.361-4.561,7.86-2.664,9.694-3.356a5.529,5.529,0,0,0,2.7-2.731.8.8,0,0,0-.083-.046l-.112-1.787c-1.5.36-4.983,1.2-5.983,1.5-1.285.386-5.46.128-9.056-.578a29.331,29.331,0,0,1-9.7-4.689c-.642-.706-2.377-1.926-3.147-1.54Z" transform="translate(-448.176 -385.427)" fill="#ffed00" fill-rule="evenodd"/>
    <path id="Path_33997" data-name="Path 33997" d="M550.027,666.833l-.278-.244a.764.764,0,0,0-.18.5l-1.288.853c-.469-.041-.735,0-.8.118q-.294.091-.524.754l-2.808,1.857-3.817.2s-6.2-.445-8.036,0-2.5,2.726-2.625,3.535l-.045-.019-.085,1.517a3.511,3.511,0,0,0,1.439,1.476c2.69,1.791,7.945,3.061,11.453,3.509,3.29.422,10.231-.935,11.087-1.107l.087-.017.013-.349a2.973,2.973,0,0,1-.449-2.182c.128-1.542,2.057-2.441,2.057-2.441l.127-.771-.578-.772-1.092-1.991a32.253,32.253,0,0,1-2.891-2.57,4.022,4.022,0,0,1-.77-1.862Z" transform="translate(-454.05 -401.225)" fill="#ffed00" fill-rule="evenodd"/>
    <path id="Path_33998" data-name="Path 33998" d="M547.2,675l-4.573-3.98a3.358,3.358,0,0,0-.936-.457,3.082,3.082,0,0,0-1.526.018c-2.337.72-10.113,4.847-11.908,4.674-.161-.016-.6-.953-.7-1.171-.757.14-1.34,3.96,2.229,2.719,1.448-.5,10.312-4.811,11.54-4.544a2.574,2.574,0,0,1,.277.075l4.447,3.962A.867.867,0,0,0,547.2,675Z" transform="translate(-429.532 -379.807)" fill="#2b2a29"/>
    <path id="Path_33999" data-name="Path 33999" d="M530.518,668.818l-.5-1.2c-1.022.158-.58,2.236-.58,2.236a1.2,1.2,0,0,0,.737.759c1.251.454,5.329-.8,6.452-1.055a18.836,18.836,0,0,1,4.086-.093.867.867,0,1,0,.141-1.728s-.733-.06-1.662-.077c-2.792-.046-5.3.762-7.994,1.364A.625.625,0,0,1,530.518,668.818Z" transform="translate(-439.058 -395.553)" fill="#2b2a29"/>
    <path id="Path_34000" data-name="Path 34000" d="M529.236,670.979a.948.948,0,1,1,.949.947.949.949,0,0,1-.949-.947" transform="translate(-427.807 -382.254)" fill="none" stroke="#2b2a29" stroke-miterlimit="3.864" stroke-width="0.063"/>
    <path id="Path_34001" data-name="Path 34001" d="M529.629,671.361a.975.975,0,1,1,.975.976.975.975,0,0,1-.975-.976" transform="translate(-430.815 -380.285)" fill="none" stroke="#2b2a29" stroke-miterlimit="3.864" stroke-width="0.063"/>
    <path id="Path_34002" data-name="Path 34002" d="M530.217,670.669c.637-.133,4.881,3.916,5.053,4.082a.433.433,0,1,0,.606-.62s-1.136-1.107-2.39-2.189a15.03,15.03,0,0,0-2.54-1.894l-.014.01c-.141-.06-.669-.406-1.087-.149a.4.4,0,0,0-.139.222.7.7,0,0,0,.006.232A.413.413,0,0,0,530.217,670.669Z" transform="translate(-435.709 -383.441)" fill="#2b2a29"/>
    <path id="Path_34003" data-name="Path 34003" d="M530.249,670.574a35.592,35.592,0,0,1,4.964,1.124l.8-.684c-.175-.045-1.509-.393-2.778-.674a23.781,23.781,0,0,0-2.7-.493l-.146.107c-.046-.02-.134-.07-.246-.12a1.053,1.053,0,0,0-.244.032c-.555.165-.2.872.356.708Z" transform="translate(-435.162 -383.334)" fill="#2b2a29"/>
    <path id="Path_34004" data-name="Path 34004" d="M529.594,670.294a7.778,7.778,0,0,1,4.665,3.905.434.434,0,0,0,.864-.085,8.254,8.254,0,0,0-5.313-4.66.478.478,0,0,0-.143-.016.6.6,0,0,0-.295.149.451.451,0,0,0-.057.091l0,.012s-.064.3.043.418l-.015.017a.434.434,0,0,0,.255.168Z" transform="translate(-432.172 -385.522)" fill="#2b2a29"/>
    <path id="Path_34005" data-name="Path 34005" d="M532,668.524a.788.788,0,1,0-1.184.057.844.844,0,0,0,1.184-.057Z" transform="translate(-437.959 -398.261)" fill="#2b2a29" fill-rule="evenodd"/>
    <path id="Path_34006" data-name="Path 34006" d="M531.549,668.277a.788.788,0,1,0-1.183.056.842.842,0,0,0,1.183-.056Z" transform="translate(-434.589 -399.628)" fill="#2b2a29" fill-rule="evenodd"/>
    <path id="Path_34007" data-name="Path 34007" d="M531.133,666.92a1.273,1.273,0,0,0-.165.192,2.392,2.392,0,0,0-.211.464,3.981,3.981,0,0,0,.257,2.284.369.369,0,0,0,.686-.271,4.886,4.886,0,0,1-.245-.923,1.43,1.43,0,0,1,.186-1.213.371.371,0,0,0-.362-.624v0l-.037.014h0l-.005,0a.428.428,0,0,0-.1.071Z" transform="translate(-437.837 -399.998)" fill="#2b2a29"/>
    <path id="Path_34008" data-name="Path 34008" d="M530.842,667.53a3.717,3.717,0,0,1,1.225-.037c.249-.169.556-.339.782-.51,0,0-.9-.137-1.562-.18l-.01.006a1.564,1.564,0,0,0-.712.043l-.007,0a.326.326,0,0,0-.058.043.12.12,0,0,0-.02.028l-.011,0a.373.373,0,0,0,.373.6Z" transform="translate(-437.037 -400.093)" fill="#2b2a29"/>
    <path id="Path_34009" data-name="Path 34009" d="M530.267,667.141a5.228,5.228,0,0,0,.468,2.338.368.368,0,1,0,.677-.291,6.792,6.792,0,0,1-.278-.819,2.735,2.735,0,0,1-.1-1.325.348.348,0,0,0-.159-.421l-.005.015a.443.443,0,0,0-.356-.035.291.291,0,0,0-.073.048.82.82,0,0,0-.159.48l-.014.01Z" transform="translate(-434.754 -401.267)" fill="#2b2a29"/>
    <path id="Path_34010" data-name="Path 34010" d="M538,632.8a.753.753,0,0,1,.753-.753h5.393a.752.752,0,0,1,.752.753v2.365a.751.751,0,0,1-.752.752h-5.393a.753.753,0,0,1-.753-.752Z" transform="translate(-498.7 -592.033)" fill="#2b2a29" fill-rule="evenodd"/>
    <path id="Path_34011" data-name="Path 34011" d="M540.463,633.834h1.085v-.587h-1.085Zm0,1.238h1.085v-.594h-1.085Zm-1.688-2.468h1.087v-.59h-1.087Zm0,1.229h1.087v-.587h-1.087Zm0,1.239h1.087v-.594h-1.087Zm0,1.229h1.087v-.585h-1.087Zm-.6-1.823h-1.086v.594h1.086Zm0-1.231h-1.086v.586h1.086Zm2.6,3.054a2.591,2.591,0,0,0,.613-.585h-.928v.585h.314Zm-3.532-.585a2.626,2.626,0,0,0,.613.585h.315v-.585Zm.613-3.7a2.6,2.6,0,0,0-.617.59h.932v-.59Zm3.537.59a2.592,2.592,0,0,0-.617-.59h-.314v.59h.932Z" transform="translate(-489.427 -592.231)" fill="#2b2a29"/>
    <path id="Path_34012" data-name="Path 34012" d="M540.148,632.073a.9.9,0,0,0-.671.871v1.83a.9.9,0,0,0,.671.872Zm1.364.871a.9.9,0,0,0-.709-.881v3.592a.9.9,0,0,0,.709-.881v-1.83Z" transform="translate(-504.969 -591.961)" fill="#2b2a29"/>
    <path id="Path_34013" data-name="Path 34013" d="M552.27,637.421a1.564,1.564,0,0,1-.444,1.488c-.759.633-15.193,8.682-16.34,9.187a20.849,20.849,0,0,1-7.478.632s-2.791-1.888-2.728-2.656a24.467,24.467,0,0,1,1.21-3.55l2.012-2.374.02.124-1.29,2.3a2.8,2.8,0,0,0,.064,1.161,16.893,16.893,0,0,0,2.645,2.239,14.072,14.072,0,0,0,4.044-.387c3.353-.839,14.906-8.347,15.467-9.249a1.5,1.5,0,0,0,0-1.659l-1.714-2.567c1.827,1.545,2.6,2.254,2.6,2.254l1.932,3.052Z" transform="translate(-423.16 -591.676)" fill="#ffed00" fill-rule="evenodd"/>
    <path id="Path_34014" data-name="Path 34014" d="M525.413,639.056l2.843-1.765s8.383,7.975,11.227,8.661,11.406,6.095,11.406,6.095l-1.667,2.664a15.562,15.562,0,0,0-2.4-1.379l.065-.041s-5.492-3.107-7.226-3.9-7.225-4.986-8.454-5.926c-1.1-.843-5.028-3.741-5.824-4.329l.033-.079Z" transform="translate(-422.403 -563.033)" fill="#ffed00" fill-rule="evenodd"/>
    <path id="Path_34015" data-name="Path 34015" d="M534.02,634.4a8.9,8.9,0,0,0,.89,2.482c.49.6,5.7,4.82,5.7,4.82l-.339,2.9c-.53-.312-3-1.78-4.784-3.086a13.35,13.35,0,0,1-3.382-4.592l-.046-.1a.978.978,0,0,1,.18-.98s1.011-.792,1.78-1.438Z" transform="translate(-455.393 -578.997)" fill="#ffed00" fill-rule="evenodd"/>
    <path id="Path_34016" data-name="Path 34016" d="M541.531,635.017a2.913,2.913,0,0,0-1.689,2s-3.424,2.537-4.174,3.357-2.538,3.805-2.315,4.625a37.041,37.041,0,0,0,2.688,5.444c.447.521.819.373.819.373a4.737,4.737,0,0,1-.447-1.863c0-.968,4.844-9.249,7.159-7.833.746,1.565,2.314,4.476,2.314,4.476a2.656,2.656,0,0,0,.521-2.086c-.3-1.048.223-2.464-.3-3.06s-3.078-2.785-3.152-3.38l-.01-.072c-.175-.233-.632-.848-.994-1.4a6.773,6.773,0,0,0-.421-.579Z" transform="translate(-469.874 -575.589)" fill="#ffed00" fill-rule="evenodd"/>
    <path id="Path_34017" data-name="Path 34017" d="M539.529,634.648a9.976,9.976,0,0,1-2.069,1.6l1.632,3.146a14.022,14.022,0,0,0,1.889-.033,13.843,13.843,0,0,1-1.5-2.393C539.443,636.537,539.529,634.648,539.529,634.648Z" transform="translate(-491.289 -577.63)" fill="#2b2a29" fill-rule="evenodd"/>
    <path id="Path_34018" data-name="Path 34018" d="M531.782,646.988a.524.524,0,1,1,.524.523A.524.524,0,0,1,531.782,646.988Z" transform="translate(-446.109 -512.39)" fill="#fecc00" fill-rule="evenodd"/>
    <path id="Path_34019" data-name="Path 34019" d="M530.7,650.074a.65.65,0,1,1,.651.649A.65.65,0,0,1,530.7,650.074Z" transform="translate(-438.196 -496.049)" fill="#2b2a29" fill-rule="evenodd"/>
    <path id="Path_34020" data-name="Path 34020" d="M530.7,650.688a.65.65,0,1,1,.651.65A.65.65,0,0,1,530.7,650.688Z" transform="translate(-438.196 -492.658)" fill="#2b2a29" fill-rule="evenodd"/>
    <path id="Path_34021" data-name="Path 34021" d="M551.893,650.194a1.131,1.131,0,0,0-.864.1,14.155,14.155,0,0,0-2.353,1.959,1.237,1.237,0,0,0-.054,1.192l.866,1.247q.4.6-.161,2.891l-.75,2.649c1,0,1.82.009,2.36.014l.793-2.608q.4-1.285.975-1.517a2.58,2.58,0,0,0,.705-.163,2.256,2.256,0,0,0,1.192-1.267,12.536,12.536,0,0,0-.015-2.77s-.339-.345-.489-.3-.376.436-.376.436l-.825,1.2c-.114.256-.319.326-.646.241l-1.157-.737a.7.7,0,0,1-.165-.674l1.112-1.427a.394.394,0,0,0-.147-.467Zm-6.783,10.054.229-1.471.419-.011.121-.133.14,0,.378-.118.5-.553.089-.659-.063-.131a1.172,1.172,0,0,0-.135-.223,5.954,5.954,0,0,1,.294-2.86l.078-.2a.079.079,0,0,0,.1-.04.08.08,0,0,0-.041-.1c.07-.046.116-.064.134-.1a.079.079,0,0,0-.041-.1c.068-.046.114-.063.132-.1a.078.078,0,0,0-.039-.1c.066-.045.111-.063.129-.1a.077.077,0,0,0-.039-.1c.065-.045.109-.063.126-.1a.077.077,0,0,0-.041-.1c.065-.046.109-.064.125-.1a.075.075,0,0,0-.042-.1c.062-.046.106-.064.121-.1a.075.075,0,0,0-.041-.1c.062-.047.1-.066.118-.1l-.021-.154c.105-.083.085-.125.047-.138.059-.048.1-.068.112-.105l-.027-.15c.1-.085.08-.125.042-.137.055-.048.094-.069.105-.107l-.034-.146c.1-.087.073-.125.037-.136.051-.049.089-.072.1-.11l-.04-.141c.089-.09.066-.126.029-.135.048-.05.083-.075.09-.112l-.047-.136c.082-.094.056-.127.019-.133.043-.052.076-.079.08-.115l-.056-.128c.075-.1.048-.129.011-.132.039-.053.069-.081.071-.116l-.06-.124c.067-.1.041-.127.005-.128.036-.053.066-.081.066-.116l-.062-.118c.063-.1.034-.126,0-.126.034-.053.06-.081.06-.116l-.064-.113c.059-.1.031-.125,0-.124.033-.051.06-.081.058-.113l-.066-.109c.056-.1.027-.124-.006-.123.03-.05.056-.079.055-.112l-.067-.1c.053-.1.025-.122-.008-.12.028-.049.053-.077.051-.11l-.067-.1c.05-.1.022-.12-.01-.118.027-.047.051-.076.048-.108l-.066-.1c.048-.1.02-.118-.011-.115.026-.047.049-.075.045-.107a.32.32,0,0,1-.017-.157.3.3,0,0,1-.02-.154.289.289,0,0,1-.019-.152l-.108-.377-.1-.911a1.215,1.215,0,0,0-1.1-.94,1.244,1.244,0,0,0-1.38.611l-.33.789c-.085.058-.072.089-.045.1-.1.1-.088.126-.063.141-.1.1-.088.128-.063.143-.1.1-.088.131-.062.145-.1.1-.088.133-.062.147-.1.1-.089.136-.062.149-.1.1-.09.139-.06.153-.107.106-.093.14-.062.152-.109.107-.094.142-.063.154-.109.109-.094.145-.062.157-.109.112-.093.147-.062.159-.05.035-.086.051-.1.083l.031.131c-.1.064-.088.1-.055.112-.05.035-.086.053-.1.086l.039.138c-.05-.021-.085,0-.1.03l.043.141c-.053-.021-.089,0-.1.032l.046.143c-.054-.021-.091,0-.1.032l.05.144c-.057-.021-.093,0-.1.034l.053.144c-.058-.02-.094,0-.1.039l.057.142c-.058-.017-.093.005-.1.042l.058.142c-.057-.014-.091.009-.1.046l.059.139c-.1.091-.072.126-.035.13-.047.053-.081.08-.085.118l.056.135c-.083.1-.055.134-.017.138-.042.057-.077.086-.079.125l.057.135c-.073.1-.046.136-.008.141-.041.063-.07.093-.072.131l.06.136c-.066.108-.039.139,0,.143-.037.068-.065.1-.065.137l.067.137c-.063.114-.033.144,0,.146-.036.07-.065.1-.064.143l.077.138c-.064.119-.031.15.01.15-.035.069-.067.1-.064.148l.088.137c-.069.125-.033.157.01.153-.038.071-.07.109-.066.152l.1.139c-.072.131-.024.163.018.158-.052.073-.084.111-.08.154l.107.066c.032.258.059.465.068.6a5.39,5.39,0,0,1-.45,2.735l-.385.615-.084.575.048.28.564.361.664.451-.242,1.548.885-.012Zm-2.595.045a1.185,1.185,0,0,0,.09-.542c0-.1-.081-1.091-.122-1.326a.62.62,0,0,0-.156-.341,9.136,9.136,0,0,1,.076-3.515,17.451,17.451,0,0,0,.155-6.85c-.294-1.159-.841-1.987-1.95-1.913-3.309.066-1.36,7.867-1.091,8.881a12.928,12.928,0,0,1,.382,3.5.626.626,0,0,0-.126.353c-.02.237-.01,1.232-.006,1.332a1.238,1.238,0,0,0,.122.5C540.762,660.339,541.645,660.313,542.515,660.293Zm-7.09-.606a3.66,3.66,0,0,1,.066.942c1.212-.1,2.545-.179,3.913-.237a29.364,29.364,0,0,0-.27-4.048.344.344,0,0,1-.024-.144c-.028-.157-.053-.288-.086-.43a.319.319,0,0,1-.033-.148c-.233-.84-1.073-3.237-3.443-2.769a1.41,1.41,0,0,0-.368.138l-.11.069a2.228,2.228,0,0,0-.78,2.411l.035.1a7.507,7.507,0,0,1,.6,1.594,12.925,12.925,0,0,1,.027,1.309,6.68,6.68,0,0,1,.468,1.213Zm-3.168,1,.048.337c.313-.057.655-.112,1.02-.161a9.49,9.49,0,0,1-.313-2.4,19.156,19.156,0,0,0-.585-4.64c-.234-.764-.54-1.293-1-1.177a.633.633,0,0,0-.471.509,10.348,10.348,0,0,0-.354-1.145c-.287-.748-.63-1.252-1.077-1.1-1.356.334.555,5.371.811,6.027a14.087,14.087,0,0,1,.653,2.3.611.611,0,0,0,0,.248c.025.159.171.824.187.888a.822.822,0,0,0,.23.455.4.4,0,0,0,.29.085l.058.227.389-.082-.061-.246a.453.453,0,0,0,.176-.122Z" transform="translate(-450.108 -520.555)" fill="#6a6a6a"/>
</svg>
