<svg xmlns="http://www.w3.org/2000/svg" width="150.14" height="90.118" viewBox="0 0 150.14 90.118">
    <g id="Logo_-_Header___Hover_-_W" data-name="Logo - Header _ Hover - W" transform="translate(0.063 0.088)">
        <path id="Path_34527" data-name="Path 34527" d="M241.531,247.944a46.511,46.511,0,0,0-21.406,14.38,6.431,6.431,0,0,0-.373,7.22,65.3,65.3,0,0,0,14.744,17.51,5.518,5.518,0,0,0,3.878.842,38.671,38.671,0,0,0,20.936-8.972,5.545,5.545,0,0,0,1.262-4,43.807,43.807,0,0,0-12.755-25.768,6.247,6.247,0,0,0-6.285-1.213h0Z" transform="translate(-125.593 -228.062)" fill="#ffed00" stroke="#393185" stroke-linejoin="bevel" stroke-miterlimit="22.926" stroke-width="3.528" fill-rule="evenodd"/>
        <path id="Path_34528" data-name="Path 34528" d="M155.962,294.706a64.123,64.123,0,0,0,4.525-9.458,51.882,51.882,0,0,0,2.806-9.82l-6.336-2.127a67.242,67.242,0,0,1-3.575,9.142,55.893,55.893,0,0,1-4.254,7.648,14.974,14.974,0,0,0,3.123,2.579,19.268,19.268,0,0,0,3.711,2.036h0Zm10.409-11.449c2.489-.045,5.793-.5,7.15-1.267.136-2.308.181-5.023.181-8.01,0-4.842-.181-10.454-.588-16.473l-7.331.407c.317,6.019.543,12.219.543,17.6,0,2.76-.09,5.34-.226,7.512l.271.226h0Zm22.944-8.553a37.356,37.356,0,0,1-6.969-.679l-.407.272a45.89,45.89,0,0,1-3.711,8.508,79.679,79.679,0,0,1-4.752,7.286,16.4,16.4,0,0,0,2.851,2.4,18.967,18.967,0,0,0,3.982,2.217,51.867,51.867,0,0,0,3.213-6.109c.814-1.765,1.72-3.8,2.444-5.838a25.22,25.22,0,0,0,3.349.362c1.743,0,1.752-8.417,0-8.417Zm9.232-7.06-6.279,1.587a22.867,22.867,0,0,1,.532,5.065,18.739,18.739,0,0,1-4.39.407c-1.752,0-1.743,8.417,0,8.417a30.342,30.342,0,0,0,9.1-1.312c1.267-1.991,1.855-5.114,1.855-8.237a20.185,20.185,0,0,0-.815-5.928h0Zm4.118,15.613c2.489-.045,5.793-.5,7.15-1.267.136-2.308.181-5.023.181-8.01,0-4.842-.181-10.454-.588-16.473l-7.331.407c.317,6.019.543,12.219.543,17.6,0,2.76-.09,5.34-.226,7.512l.271.226h0Z" transform="translate(-125.593 -228.062)" fill="#2b2a29" stroke="#2b2a29" stroke-miterlimit="22.926" stroke-width="0.084"/>
        <path id="Path_34529" data-name="Path 34529" d="M149.863,257.555c-.719,0-1.591-.051-2.412-.1-.308-4.721-2.771-9.9-7.493-9.9-4.362,0-9.135,6.107-9.135,11.239,0,4.054,3.49,6.415,7.133,7.236a65.587,65.587,0,0,1-7.288,8.57,25.528,25.528,0,0,0,7.749,5.235,44.313,44.313,0,0,0,7.441-13.035,25.333,25.333,0,0,0,4,.308c1.078,0,1.386-1.694,1.386-4.773,0-2.925-.257-4.773-1.386-4.773h0Zm-13.754-.719c0-1.078,1.18-1.642,2.515-1.488a6.883,6.883,0,0,1,4.311,2.463,19.524,19.524,0,0,1-4.208-.1c-1.591-.205-2.412-.513-2.617-.872h0Zm25.249-7.288-8.262,1.9a50.777,50.777,0,0,1,1.745,5.645,21.258,21.258,0,0,1-4.978.462c-1.129,0-1.386,1.848-1.386,4.773,0,3.079.308,4.773,1.386,4.773a34.405,34.405,0,0,0,10.315-1.488c1.437-2.258,2.1-5.8,2.1-9.34a22.893,22.893,0,0,0-.924-6.723h0Z" transform="translate(-125.593 -228.062)" fill="#2b2a29" stroke="#2b2a29" stroke-miterlimit="22.926" stroke-width="0.084"/>
        <path id="Path_34530" data-name="Path 34530" d="M192.043,286.718a9.741,9.741,0,0,0-5.17,3.737,1.152,1.152,0,0,0-.02,1.087,14.48,14.48,0,0,0,3.544,4.321,1.29,1.29,0,0,0,.907.2,9.48,9.48,0,0,0,4.926-2.075,1.379,1.379,0,0,0,.282-.923,10.361,10.361,0,0,0-3-6.06,1.461,1.461,0,0,0-1.47-.284h0Z" transform="translate(-125.593 -228.062)" fill="#ffed00" stroke="#393185" stroke-linejoin="bevel" stroke-miterlimit="22.926" stroke-width="0.6" fill-rule="evenodd"/>
        <path id="Path_34531" data-name="Path 34531" d="M149.883,301.174a3.09,3.09,0,0,0,1.372,1.272c.887-.473,1.917-1.055,3.043-1.7,1.826-1.054,3.919-2.315,6.138-3.714l-1.07-1.5c-2.23,1.379-4.54,2.778-6.57,3.95-1.041.6-2.025,1.143-2.861,1.586l-.051.108h0Z" transform="translate(-125.593 -228.062)" fill="#2b2a29" stroke="#2b2a29" stroke-miterlimit="22.926" stroke-width="0.084"/>
        <path id="Path_34532" data-name="Path 34532" d="M131.577,309.506v4.13h-1.338v3.731h-4.646v-9.954a6.094,6.094,0,0,1,1.576-4.478,5.958,5.958,0,0,1,4.435-1.6,5.248,5.248,0,0,1,4.076,1.447A6.464,6.464,0,0,1,137,307.253v10.115h-4.647v-9.806a2.553,2.553,0,0,0-.219-1.252.866.866,0,0,0-.79-.348q-1.1,0-1.1,1.6v1.944h1.338Zm11.941-7.791v9.371q0,2.294,1.639,2.292a1.635,1.635,0,0,0,1.185-.477,1.554,1.554,0,0,0,.485-1.154,1.628,1.628,0,0,0-.458-1.177,1.493,1.493,0,0,0-1.118-.477,2.013,2.013,0,0,0-1.076.407v-4.721c.5-.051.888-.074,1.146-.074a5.631,5.631,0,0,1,4.146,1.745,5.977,5.977,0,0,1-.031,8.433,6.122,6.122,0,0,1-6.821,1.158,5.668,5.668,0,0,1-2.014-1.514,6.454,6.454,0,0,1-1.377-4.279v-9.532h4.295Zm19.083,4.224-3.5,6.923h4.033v4.506h-11.01l3.485-6.97h-3.622v-4.459H162.6Zm8.441,7.142v4.435a6.113,6.113,0,0,1-5.253-1.611,5.976,5.976,0,0,1,4.24-10.2,5.852,5.852,0,0,1,4.369,1.623,6.056,6.056,0,0,1,1.6,4.435v5.6H171.7v-5.3a2.214,2.214,0,0,0-.438-1.443,1.442,1.442,0,0,0-1.177-.536,1.574,1.574,0,0,0-1.158.493,1.6,1.6,0,0,0-.489,1.165,1.621,1.621,0,0,0,.442,1.169,1.506,1.506,0,0,0,1.126.458,1.912,1.912,0,0,0,1.036-.3Zm13.7-7.255v4.584a1.705,1.705,0,0,0-.809-.246q-1.162,0-1.162,1.784v5.421h-4.294v-6.246a5.6,5.6,0,0,1,1.353-3.947,4.656,4.656,0,0,1,3.606-1.471,8.951,8.951,0,0,1,1.306.121h0Zm12.5,6.52h-6.5a3.424,3.424,0,0,1-.137-.9,3.336,3.336,0,0,1,.2-1.118h2.178a1.354,1.354,0,0,0-1.432-1.291,1.549,1.549,0,0,0-1.306.685,2.872,2.872,0,0,0-.5,1.752,3.062,3.062,0,0,0,.485,1.8,1.5,1.5,0,0,0,1.279.689,1.7,1.7,0,0,0,1.236-.645l2.441,2.937a6,6,0,0,1-3.8,1.345,5.855,5.855,0,0,1-4.275-1.709,6.034,6.034,0,0,1,.016-8.48,5.886,5.886,0,0,1,4.3-1.733,5.784,5.784,0,0,1,5.875,5.863c0,.168-.02.434-.055.8h0Zm11.957,5.022H204.9v-6.454c0-.657-.266-.986-.8-.986s-.794.329-.794.986v6.454h-4.294v-6.375a5.2,5.2,0,0,1,1.479-3.759,5.145,5.145,0,0,1,7.549.246,5.849,5.849,0,0,1,1.158,3.857v6.031h0Zm7.924-11.664a5.938,5.938,0,0,1,4.15,10.158,6.063,6.063,0,0,1-8.511-.008,5.715,5.715,0,0,1-1.768-4.212,5.655,5.655,0,0,1,1.768-4.224,6.022,6.022,0,0,1,4.361-1.713Zm-.113,4.224a1.562,1.562,0,0,0-1.169.5,1.788,1.788,0,0,0,0,2.445,1.608,1.608,0,0,0,2.339,0,1.788,1.788,0,0,0,0-2.445,1.572,1.572,0,0,0-1.177-.5h0Zm23.7,2.178,4.251-.16a6.032,6.032,0,0,1-1.842,4.064,5.634,5.634,0,0,1-4.044,1.592,5.752,5.752,0,0,1-4.255-1.752,5.871,5.871,0,0,1-1.737-4.294,5.577,5.577,0,0,1,1.752-4.134,5.936,5.936,0,0,1,10.025,3.078l-4.342.16a1.719,1.719,0,0,0-1.42-.732,1.612,1.612,0,0,0-1.2.481,1.673,1.673,0,0,0-.469,1.216,1.7,1.7,0,0,0,.5,1.248,1.678,1.678,0,0,0,1.244.5,1.613,1.613,0,0,0,1.545-1.271h0Zm11.538-6.4a5.938,5.938,0,0,1,4.15,10.158,6.063,6.063,0,0,1-8.511-.008,5.715,5.715,0,0,1-1.768-4.212,5.655,5.655,0,0,1,1.768-4.224,6.022,6.022,0,0,1,4.361-1.713Zm-.113,4.224a1.562,1.562,0,0,0-1.169.5,1.788,1.788,0,0,0,0,2.445,1.608,1.608,0,0,0,2.339,0,1.788,1.788,0,0,0,0-2.445,1.572,1.572,0,0,0-1.177-.5h0Zm23.475,7.439h-4.294V311.2a2.343,2.343,0,0,0-.145-.993.549.549,0,0,0-.532-.278c-.473,0-.708.426-.708,1.283v6.156h-4.294V311.2a2.184,2.184,0,0,0-.156-.993.565.565,0,0,0-.54-.278c-.473,0-.712.426-.712,1.283v6.156H259.93v-7.04a4.553,4.553,0,0,1,1.3-3.274,4.2,4.2,0,0,1,3.145-1.349,4.59,4.59,0,0,1,3.418,1.612,4.923,4.923,0,0,1,3.364-1.612,4.239,4.239,0,0,1,3.434,1.561,5.4,5.4,0,0,1,1.017,3.547v6.555h0Z" transform="translate(-125.593 -228.062)" fill="#393185" stroke="#ffed00" stroke-miterlimit="22.926" stroke-width="0.127"/>
        <g id="_1939670943616" transform="translate(-125.593 -228.062)">
            <path id="Path_34533" data-name="Path 34533" d="M238.4,244.3a2.3,2.3,0,0,1-2.47-.751,11.482,11.482,0,0,1-1.237-1.865q-.8-1.38-1.147-2.048a9.186,9.186,0,0,1-.541-1.445,3.241,3.241,0,0,1-.076-2.293,2.1,2.1,0,0,1,1.337-.932,2.81,2.81,0,0,1,1.234.025,1.462,1.462,0,0,1,.955.878,11.61,11.61,0,0,0,.571,2.029,10.64,10.64,0,0,0,1.021,1.469,6.537,6.537,0,0,1,1.2,2.12,3.345,3.345,0,0,1,.141,1.959,1.363,1.363,0,0,1-.99.853h0Z" fill="#e31e24" stroke="#2b2a29" stroke-miterlimit="22.926" stroke-width="0.095"/>
            <path id="Path_34534" data-name="Path 34534" d="M263.427,249.768c-.407.989-1.894,1-3.155.966a13.062,13.062,0,0,1-3.574-.584,5.259,5.259,0,0,1-2.179-1.06,1.4,1.4,0,0,1,.3-2.274,1.524,1.524,0,0,1,1.079-.157c2.142.591,4.885.309,6.643,1.667.449.347,1.106.908.887,1.441Z" fill="#e31e24" stroke="#2b2a29" stroke-miterlimit="22.926" stroke-width="0.095"/>
            <path id="Path_34535" data-name="Path 34535" d="M251.843,238.7l-1.176.64a5.3,5.3,0,0,0-1.794,1.461c-.428.584-.761,1.692-1.339,2.163a1.641,1.641,0,0,1-2.611-.67q-.783-1.522.679-3.267a10.914,10.914,0,0,1,3.311-2.655,4.21,4.21,0,0,1,1.886-.557,1.485,1.485,0,0,1,1.336.948c.294.572.262,1.634-.293,1.936Z" fill="#e31e24" stroke="#2b2a29" stroke-miterlimit="22.926" stroke-width="0.095"/>
        </g>
        <path id="Path_34536" data-name="Path 34536" d="M227.982,312.228a2.614,2.614,0,0,1,1.928.814,2.655,2.655,0,0,1,.81,1.936,2.565,2.565,0,0,1-.8,1.909,2.668,2.668,0,0,1-1.936.786,2.727,2.727,0,0,1-1.916-4.646,2.6,2.6,0,0,1,1.917-.8h0Z" transform="translate(-125.593 -228.062)" fill="#2b2a29" stroke="#2b2a29" stroke-miterlimit="22.926" stroke-width="0.84"/>
        <path id="Path_34537" data-name="Path 34537" d="M182.606,258.035a14.022,14.022,0,0,0-6.454,4.336,1.939,1.939,0,0,0-.113,2.177,19.691,19.691,0,0,0,4.445,5.28,1.663,1.663,0,0,0,1.169.254,11.658,11.658,0,0,0,6.313-2.705,1.672,1.672,0,0,0,.38-1.206A13.209,13.209,0,0,0,184.5,258.4a1.884,1.884,0,0,0-1.9-.366h0Z" transform="translate(-125.593 -228.062)" fill="#393185" stroke="#ffed00" stroke-linejoin="bevel" stroke-miterlimit="22.926" stroke-width="0.127" fill-rule="evenodd"/>
        <path id="Path_34538" data-name="Path 34538" d="M146.674,228.221a19.829,19.829,0,0,0-9.125,6.13,2.741,2.741,0,0,0-.159,3.078,27.838,27.838,0,0,0,6.286,7.465,2.351,2.351,0,0,0,1.653.359,16.485,16.485,0,0,0,8.925-3.825,2.364,2.364,0,0,0,.538-1.705,18.674,18.674,0,0,0-5.438-10.985,2.663,2.663,0,0,0-2.679-.517h0Z" transform="translate(-125.593 -228.062)" fill="#e31e24" stroke="#393185" stroke-linejoin="bevel" stroke-miterlimit="22.926" stroke-width="0.127" fill-rule="evenodd"/>
    </g>
</svg>
