<svg xmlns="http://www.w3.org/2000/svg" width="21.033" height="20.145" viewBox="0 0 21.033 20.145">
    <g id="star-svgrepo-com" transform="translate(0.517 -1.858)">
        <path id="Path_35201" data-name="Path 35201" d="M.427,10.847,4.74,14.5,3.4,20a1.186,1.186,0,0,0,1.788,1.289L10,18.316l4.813,2.972A1.2,1.2,0,0,0,16.6,20l-1.342-5.5,4.314-3.656a1.194,1.194,0,0,0-.684-2.1l-5.655-.421L11.1,3.088a1.2,1.2,0,0,0-2.21,0L6.764,8.321,1.11,8.742A1.2,1.2,0,0,0,.427,10.847Z" transform="translate(0)" fill="#ffed00" stroke="#000" stroke-width="1"/>
    </g>
</svg>
